<svg xmlns="http://www.w3.org/2000/svg" width="1440" height="1197" viewBox="0 0 1440 1197" fill="none"><defs><linearGradient id="mvp--03-planning-par-personne-degrade-1" x1="0" y1="0" x2="0" y2="1"><stop offset="0" stop-color="#fef2f8" stop-opacity="0.702"/><stop offset="1" stop-color="#ffffff"/></linearGradient></defs><g id="MVP · 03 · Planning · Par personne"><rect id="Fond de page" width="1440" height="1197" fill="#ffffff"/><g id="Page"><rect x="0" y="0" width="1440" height="1197" fill="#f8fafc" id="Fond"/><g id="Contenu"><rect x="0" y="0" width="1440" height="1197" fill="#ffffff" id="Fond"/><g id="Header · oralys"><rect x="0" y="0" width="1440" height="63" fill="#ffffff" id="Fond"/><rect x="0" y="60" width="1440" height="3" fill="#fda5d5" id="Bordure basse"/><g id="Grille"><g id="Rangée · oralys"><g id="Rangée · oralys 2"><g id="Icon · logo"><svg viewBox="0 0 16 24" x="24" y="17.99" width="16" height="24"><circle cx="8" cy="6.5" r="5.5" fill="#0f172b"/><circle cx="8" cy="17.5" r="5.5" fill="#0f172b"/><rect x="5.5" y="9" width="5" height="6" fill="white" rx="2.5"/></svg></g><text x="46" y="38.7" font-family="Geist, Helvetica Neue, Arial, sans-serif" font-size="25.6" font-weight="600" letter-spacing="-0.64" fill="#0f172b" xml:space="preserve">oralys</text></g><g id="Menu déroulant · Team"><rect x="128.37" y="15" width="91.17" height="30" rx="15" fill="#fdf2f8" id="Fond"/><rect x="128.87" y="15.5" width="90.17" height="29" rx="14.5" fill="none" stroke="#fccee8" stroke-width="1" id="Bordure"/><g id="Bloc"><rect x="139.37" y="26" width="8" height="8" rx="4" fill="#fb64b6" id="Fond"/></g><text x="153.37" y="35" font-family="Geist, Helvetica Neue, Arial, sans-serif" font-size="14" font-weight="500" fill="#861043" xml:space="preserve">Team</text><g id="Icon · chevron-down"><svg xmlns="http://www.w3.org/2000/svg" width="14" height="14" viewBox="0 0 24 24" fill="none" stroke="#c6005c" stroke-width="2" stroke-linecap="round" stroke-linejoin="round" x="194.54" y="23"><path d="m6 9 6 6 6-6"/></svg></g></g><g id="Déclencheur · MVP"><rect x="231.54" y="20.2" width="39.94" height="19.59" rx="9.8" fill="#0f172b" id="Fond"/><text x="239.54" y="33.45" font-family="Geist, Helvetica Neue, Arial, sans-serif" font-size="10.4" font-weight="600" letter-spacing="0.26" fill="#ffffff" xml:space="preserve">MVP</text></g></g><g id="Button · Cabinet Oralpes"><text x="648.63" y="35.25" font-family="Geist, Helvetica Neue, Arial, sans-serif" font-size="16" font-weight="500" fill="#1d293d" xml:space="preserve">Cabinet Oralpes</text><g id="Icon · chevron-down"><svg xmlns="http://www.w3.org/2000/svg" width="16" height="16" viewBox="0 0 24 24" fill="none" stroke="#62748e" stroke-width="2" stroke-linecap="round" stroke-linejoin="round" x="775.37" y="22"><path d="m6 9 6 6 6-6"/></svg></g></g><g id="Actions · 2"><g id="Déclencheur · Notifications"><g id="Icon · bell"><svg xmlns="http://www.w3.org/2000/svg" width="16" height="16" viewBox="0 0 24 24" fill="none" stroke="#0f172b" stroke-width="2" stroke-linecap="round" stroke-linejoin="round" x="1326" y="22"><path d="M10.268 21a2 2 0 0 0 3.464 0"/><path d="M3.262 15.326A1 1 0 0 0 4 17h16a1 1 0 0 0 .74-1.673C19.41 13.956 18 12.499 18 8A6 6 0 0 0 6 8c0 4.499-1.411 5.956-2.738 7.326"/></svg></g><g id="Rangée · 2"><rect x="1335" y="13" width="16" height="16" rx="8" fill="#f6339a" id="Fond"/><text x="1339.91" y="24.39" font-family="Geist, Helvetica Neue, Arial, sans-serif" font-size="9.6" font-weight="600" fill="#ffffff" xml:space="preserve">2</text></g></g><g id="Menu déroulant · Menu utilisateur"><g id="Initiales · DG"><rect x="1356" y="12" width="36" height="36" rx="18" fill="#d0fae5" id="Fond"/><text x="1365.52" y="33.75" font-family="Geist, Helvetica Neue, Arial, sans-serif" font-size="12" font-weight="500" fill="#006045" xml:space="preserve">DG</text></g><g id="Icon · chevron-down"><svg xmlns="http://www.w3.org/2000/svg" width="16" height="16" viewBox="0 0 24 24" fill="none" stroke="#62748e" stroke-width="2" stroke-linecap="round" stroke-linejoin="round" x="1396" y="22"><path d="m6 9 6 6 6-6"/></svg></g></g></g></g></g><g id="Navigation · Tableau de bord"><rect x="0" y="63" width="1440" height="45" fill="url(#mvp--03-planning-par-personne-degrade-1)" id="Fond"/><rect x="0" y="107" width="1440" height="1" fill="#e2e8f0" id="Bordure basse"/><g id="Liste · Tableau de bord"><text x="36" y="90" font-family="Geist, Helvetica Neue, Arial, sans-serif" font-size="14" font-weight="500" fill="#62748e" xml:space="preserve">Tableau de bord</text><g id="Lien · Planning"><text x="168.3" y="90" font-family="Geist, Helvetica Neue, Arial, sans-serif" font-size="14" font-weight="500" fill="#0f172b" xml:space="preserve">Planning</text><g id="Bloc 2"><rect x="168.3" y="106" width="57.51" height="2" rx="1" fill="#fb64b6" id="Fond"/></g></g><text x="253.81" y="90" font-family="Geist, Helvetica Neue, Arial, sans-serif" font-size="14" font-weight="500" fill="#62748e" xml:space="preserve">Aperçu Soins</text><text x="368.47" y="90" font-family="Geist, Helvetica Neue, Arial, sans-serif" font-size="14" font-weight="500" fill="#62748e" xml:space="preserve">Administration</text></g></g><g id="Bloc · Planning d'équipe 2"><g id="Rangée · Planning d'équipe"><g id="Bloc · Planning d'équipe 3"><text x="112" y="164.5" font-family="Geist, Helvetica Neue, Arial, sans-serif" font-size="24" font-weight="600" letter-spacing="-0.6" fill="#0f172b" xml:space="preserve">Planning d'équipe</text><text x="112" y="191" font-family="Geist, Helvetica Neue, Arial, sans-serif" font-size="14" font-weight="400" fill="#62748e" xml:space="preserve">Présences et absences de tout le cabinet, en une vue. Distinct de l'agenda des RDV patients (Soins).</text></g><g id="Button · Déclarer une absence"><rect x="1141.53" y="140" width="186.47" height="32" rx="10" fill="#171717" id="Fond"/><g id="Icon · calendar-plus"><svg xmlns="http://www.w3.org/2000/svg" width="16" height="16" viewBox="0 0 24 24" fill="none" stroke="#fafafa" stroke-width="2" stroke-linecap="round" stroke-linejoin="round" x="1152.53" y="148"><path d="M16 18h6"/><path d="M16 2v3"/><path d="M19 15v6"/><path d="M21 11.5V5a2 2 0 00-2-2H5a2 2 0 00-2 2v14a2 2 0 002 2h8.3"/><path d="M3 9h18"/><path d="M8 2v3"/></svg></g><text x="1174.53" y="161" font-family="Geist, Helvetica Neue, Arial, sans-serif" font-size="14" font-weight="500" fill="#fafafa" xml:space="preserve">Déclarer une absence</text></g></g><g id="tabs · Calendrier consolidé"><g id="Onglets · Calendrier consolidé"><g id="Onglet · Calendrier consolidé"><rect x="115" y="249.5" width="146.77" height="2" fill="#0a0a0a" id="Indicateur"/><text x="122" y="241" font-family="Geist, Helvetica Neue, Arial, sans-serif" font-size="14" font-weight="500" fill="#0a0a0a" xml:space="preserve">Calendrier consolidé</text></g><g id="Onglet · Demandes à valider"><text x="274.77" y="241" font-family="Geist, Helvetica Neue, Arial, sans-serif" font-size="14" font-weight="500" fill="#0a0a0a" fill-opacity="0.6" xml:space="preserve">Demandes à valider</text><g id="Badge · 2"><rect x="413.77" y="228" width="20.56" height="16" rx="8" fill="#f6339a" id="Fond"/><text x="420.77" y="239.33" font-family="Geist, Helvetica Neue, Arial, sans-serif" font-size="10.4" font-weight="500" fill="#fafafa" xml:space="preserve">2</text></g></g><text x="452.34" y="241" font-family="Geist, Helvetica Neue, Arial, sans-serif" font-size="14" font-weight="500" fill="#0a0a0a" fill-opacity="0.6" xml:space="preserve">Toutes les absences</text></g><g id="tabs content · Aujourd'hui"><g id="Rangée · Aujourd'hui"><g id="Rangée · Aujourd'hui 2"><g id="Button · Précédent"><rect x="112" y="276" width="28" height="28" rx="8" fill="#ffffff" id="Fond"/><rect x="112.5" y="276.5" width="27" height="27" rx="7.5" fill="none" stroke="#e5e5e5" stroke-width="1" id="Bordure"/><g id="Icon · chevron-left"><svg xmlns="http://www.w3.org/2000/svg" width="16" height="16" viewBox="0 0 24 24" fill="none" stroke="#0f172b" stroke-width="2" stroke-linecap="round" stroke-linejoin="round" x="118" y="282"><path d="m15 18-6-6 6-6"/></svg></g></g><g id="Button · Aujourd'hui"><rect x="148" y="276" width="89.13" height="28" rx="8" fill="#ffffff" id="Fond"/><rect x="148.5" y="276.5" width="88.13" height="27" rx="7.5" fill="none" stroke="#e5e5e5" stroke-width="1" id="Bordure"/><text x="159" y="294.36" font-family="Geist, Helvetica Neue, Arial, sans-serif" font-size="12.8" font-weight="500" fill="#0f172b" xml:space="preserve">Aujourd'hui</text></g><g id="Button · Suivant"><rect x="245.13" y="276" width="28" height="28" rx="8" fill="#ffffff" id="Fond"/><rect x="245.63" y="276.5" width="27" height="27" rx="7.5" fill="none" stroke="#e5e5e5" stroke-width="1" id="Bordure"/><g id="Icon · chevron-right"><svg xmlns="http://www.w3.org/2000/svg" width="16" height="16" viewBox="0 0 24 24" fill="none" stroke="#0f172b" stroke-width="2" stroke-linecap="round" stroke-linejoin="round" x="251.13" y="282"><path d="m9 18 6-6-6-6"/></svg></g></g><text x="289.13" y="295" font-family="Geist, Helvetica Neue, Arial, sans-serif" font-size="14" font-weight="500" fill="#1d293d" xml:space="preserve">Lun. 5 Oct. → Sam. 10 Oct.</text></g><g id="Rangée · Tous11"><g id="Actions · Tous11"><g id="Button · Tous11"><rect x="112" y="316" width="65.76" height="28" rx="8" fill="#fce7f3" id="Fond"/><text x="122" y="335" font-family="Geist, Helvetica Neue, Arial, sans-serif" font-size="14" font-weight="500" fill="#861043" xml:space="preserve">Tous</text><text x="158.5" y="334.75" font-family="Geist, Helvetica Neue, Arial, sans-serif" font-size="12" font-weight="500" fill="#90a1b9" xml:space="preserve">11</text></g><g id="Button · Praticiens3"><text x="191.76" y="335" font-family="Geist, Helvetica Neue, Arial, sans-serif" font-size="14" font-weight="400" fill="#314158" xml:space="preserve">Praticiens</text><text x="260.76" y="334.75" font-family="Geist, Helvetica Neue, Arial, sans-serif" font-size="12" font-weight="400" fill="#90a1b9" xml:space="preserve">3</text></g><g id="Button · Assistants dentaires4"><text x="292.12" y="335" font-family="Geist, Helvetica Neue, Arial, sans-serif" font-size="14" font-weight="400" fill="#314158" xml:space="preserve">Assistants dentaires</text><text x="427.93" y="334.75" font-family="Geist, Helvetica Neue, Arial, sans-serif" font-size="12" font-weight="400" fill="#90a1b9" xml:space="preserve">4</text></g><g id="Button · Aides dentaires1"><text x="459.31" y="335" font-family="Geist, Helvetica Neue, Arial, sans-serif" font-size="14" font-weight="400" fill="#314158" xml:space="preserve">Aides dentaires</text><text x="564.02" y="334.75" font-family="Geist, Helvetica Neue, Arial, sans-serif" font-size="12" font-weight="400" fill="#90a1b9" xml:space="preserve">1</text></g><g id="Button · Secrétaires1"><text x="592.63" y="335" font-family="Geist, Helvetica Neue, Arial, sans-serif" font-size="14" font-weight="400" fill="#314158" xml:space="preserve">Secrétaires</text><text x="671.38" y="334.75" font-family="Geist, Helvetica Neue, Arial, sans-serif" font-size="12" font-weight="400" fill="#90a1b9" xml:space="preserve">1</text></g><g id="Button · Comptables1"><text x="699.98" y="335" font-family="Geist, Helvetica Neue, Arial, sans-serif" font-size="14" font-weight="400" fill="#314158" xml:space="preserve">Comptables</text><text x="783.37" y="334.75" font-family="Geist, Helvetica Neue, Arial, sans-serif" font-size="12" font-weight="400" fill="#90a1b9" xml:space="preserve">1</text></g><g id="Button · Gestionnaires2"><text x="811.98" y="335" font-family="Geist, Helvetica Neue, Arial, sans-serif" font-size="14" font-weight="400" fill="#314158" xml:space="preserve">Gestionnaires</text><text x="905.61" y="334.75" font-family="Geist, Helvetica Neue, Arial, sans-serif" font-size="12" font-weight="400" fill="#90a1b9" xml:space="preserve">2</text></g></g><g id="Groupe de boutons · Semaine"><g id="Toggle · Semaine"><rect x="935.04" y="316" width="78.22" height="28" rx="8" fill="#f5f5f5" id="Fond"/><rect x="935.54" y="316.5" width="77.22" height="27" rx="7.5" fill="none" stroke="#e5e5e5" stroke-width="1" id="Bordure"/><text x="948.04" y="334.36" font-family="Geist, Helvetica Neue, Arial, sans-serif" font-size="12.8" font-weight="500" fill="#0f172b" xml:space="preserve">Semaine</text></g><g id="Toggle · Mois"><rect x="1021.76" y="316.5" width="53.69" height="27" rx="7.5" fill="none" stroke="#e5e5e5" stroke-width="1" id="Bordure"/><text x="1034.26" y="334.36" font-family="Geist, Helvetica Neue, Arial, sans-serif" font-size="12.8" font-weight="500" fill="#0f172b" xml:space="preserve">Mois</text></g></g></g></g><g id="Alerte · Tensions de planning sur la période"><rect x="112" y="360" width="1216" height="64" rx="10" fill="#fffbeb" id="Fond"/><rect x="112.5" y="360.5" width="1215" height="63" rx="9.5" fill="none" stroke="#fee685" stroke-width="1" id="Bordure"/><g id="Icon · triangle-alert"><svg xmlns="http://www.w3.org/2000/svg" width="16" height="16" viewBox="0 0 24 24" fill="none" stroke="#7b3306" stroke-width="2" stroke-linecap="round" stroke-linejoin="round" x="123" y="371"><path d="m21.73 18-8-14a2 2 0 0 0-3.48 0l-8 14A2 2 0 0 0 4 21h16a2 2 0 0 0 1.73-3"/><path d="M12 9v4"/><path d="M12 17h.01"/></svg></g><text x="147" y="384" font-family="Geist, Helvetica Neue, Arial, sans-serif" font-size="14" font-weight="500" fill="#7b3306" xml:space="preserve">Tensions de planning sur la période</text><g id="Item · Stérilisation sans aide dentaire le mer."><text x="147" y="410" font-family="Geist, Helvetica Neue, Arial, sans-serif" font-size="14" font-weight="500" fill="#973c00" xml:space="preserve">Stérilisation sans aide dentaire</text><text x="351.82" y="410" font-family="Geist, Helvetica Neue, Arial, sans-serif" font-size="14" font-weight="400" fill="#973c00" xml:space="preserve">le mer. 7 oct., jeu. 8 oct., ven. 9 oct..</text></g></g><g id="Bloc · Collaborateur"><rect x="112.5" y="440.5" width="1215" height="692.14" rx="13.5" fill="none" stroke="#e5e5e5" stroke-width="1" id="Bordure"/><g id="Tableau"><g id="Ligne · Collaborateur"><rect x="113" y="441" width="1214" height="60.05" fill="#f8fafc" fill-opacity="0.8" id="Fond"/><rect x="113" y="500.05" width="1214" height="1" fill="#e5e5e5" id="Bordure basse"/><g id="Colonne · Collaborateur"><rect x="113" y="441" width="224" height="60.05" fill="#f8fafc" id="Fond"/><text x="129" y="474.52" font-family="Geist, Helvetica Neue, Arial, sans-serif" font-size="12" font-weight="500" fill="#62748e" xml:space="preserve">Collaborateur</text></g><g id="Colonne · 5"><text x="406.48" y="464.5" font-family="Geist, Helvetica Neue, Arial, sans-serif" font-size="10.88" font-weight="400" fill="#62748e" xml:space="preserve">LUN</text><text x="412.75" y="483.55" font-family="Geist, Helvetica Neue, Arial, sans-serif" font-size="14" font-weight="500" fill="#1d293d" xml:space="preserve">5</text></g><g id="Colonne · 6"><text x="565.81" y="464.5" font-family="Geist, Helvetica Neue, Arial, sans-serif" font-size="10.88" font-weight="400" fill="#62748e" xml:space="preserve">MAR</text><text x="573.48" y="483.55" font-family="Geist, Helvetica Neue, Arial, sans-serif" font-size="14" font-weight="500" fill="#1d293d" xml:space="preserve">6</text></g><g id="Colonne · 7"><text x="733.42" y="460.5" font-family="Geist, Helvetica Neue, Arial, sans-serif" font-size="10.88" font-weight="400" fill="#62748e" xml:space="preserve">MER</text><text x="741.25" y="479.55" font-family="Geist, Helvetica Neue, Arial, sans-serif" font-size="14" font-weight="500" fill="#1d293d" xml:space="preserve">7</text><g id="Info-bulle"><rect x="741.97" y="486.55" width="6" height="6" rx="3" fill="#fe9a00" id="Fond"/></g></g><g id="Colonne · 8"><text x="901.87" y="460.5" font-family="Geist, Helvetica Neue, Arial, sans-serif" font-size="10.88" font-weight="400" fill="#62748e" xml:space="preserve">JEU</text><text x="907.86" y="479.55" font-family="Geist, Helvetica Neue, Arial, sans-serif" font-size="14" font-weight="500" fill="#1d293d" xml:space="preserve">8</text><g id="Info-bulle 2"><rect x="909.23" y="486.55" width="6" height="6" rx="3" fill="#fe9a00" id="Fond"/></g></g><g id="Colonne · 9"><text x="1068.71" y="460.5" font-family="Geist, Helvetica Neue, Arial, sans-serif" font-size="10.88" font-weight="400" fill="#62748e" xml:space="preserve">VEN</text><text x="1075.24" y="479.55" font-family="Geist, Helvetica Neue, Arial, sans-serif" font-size="14" font-weight="500" fill="#1d293d" xml:space="preserve">9</text><g id="Info-bulle 3"><rect x="1076.48" y="486.55" width="6" height="6" rx="3" fill="#fe9a00" id="Fond"/></g></g><g id="Colonne · 10"><text x="1235.13" y="464.5" font-family="Geist, Helvetica Neue, Arial, sans-serif" font-size="10.88" font-weight="400" fill="#62748e" xml:space="preserve">SAM</text><text x="1239.28" y="483.55" font-family="Geist, Helvetica Neue, Arial, sans-serif" font-size="14" font-weight="500" fill="#1d293d" xml:space="preserve">10</text></g></g><g id="Corps de tableau"><g id="Ligne · PRATICIENS (3)"><rect x="113" y="501.05" width="1214" height="29" fill="#fcf2f8" fill-opacity="0.4" id="Fond"/><rect x="113" y="529.05" width="1214" height="1" fill="#e5e5e5" id="Bordure basse"/><g id="Cellule · PRATICIENS (3)"><text x="129" y="519.3" font-family="Geist, Helvetica Neue, Arial, sans-serif" font-size="12" font-weight="600" letter-spacing="0.3" fill="#45556c" xml:space="preserve">PRATICIENS</text><text x="204.39" y="519.3" font-family="Geist, Helvetica Neue, Arial, sans-serif" font-size="12" font-weight="400" letter-spacing="0.3" fill="#90a1b9" xml:space="preserve">(3)</text></g></g><g id="Ligne · Dr Sophie Martin"><rect x="113" y="577.59" width="1214" height="1" fill="#e5e5e5" id="Bordure basse"/><g id="Cellule · Dr Sophie Martin"><rect x="113" y="530.05" width="224" height="48.55" fill="#ffffff" id="Fond"/><g id="Rangée · Dr Sophie Martin"><g id="Initiales · SM"><rect x="129" y="542.32" width="24" height="24" rx="12" fill="#fce7f3" id="Fond"/><text x="131.67" y="558.07" font-family="Geist, Helvetica Neue, Arial, sans-serif" font-size="12" font-weight="500" fill="#a3004c" xml:space="preserve">SM</text></g><g id="Bloc · Dr Sophie Martin"><text x="161" y="551.55" font-family="Geist, Helvetica Neue, Arial, sans-serif" font-size="14" font-weight="400" fill="#1d293d" xml:space="preserve">Dr Sophie Martin</text><text x="161" y="568.05" font-family="Geist, Helvetica Neue, Arial, sans-serif" font-size="10.88" font-weight="400" fill="#90a1b9" xml:space="preserve">+ Gestionnaire</text></g></g></g><g id="Bloc · Thomas + Inès 2"><rect x="371.15" y="545.32" width="92.18" height="19.5" rx="4" fill="#ecfdf5" id="Fond"/><text x="377.15" y="559.07" font-family="Geist, Helvetica Neue, Arial, sans-serif" font-size="12" font-weight="500" fill="#006045" xml:space="preserve">Thomas + Inès</text></g><g id="Bloc · Thomas + Inès 4"><rect x="531.63" y="545.32" width="92.18" height="19.5" rx="4" fill="#ecfdf5" id="Fond"/><text x="537.63" y="559.07" font-family="Geist, Helvetica Neue, Arial, sans-serif" font-size="12" font-weight="500" fill="#006045" xml:space="preserve">Thomas + Inès</text></g><g id="Bloc · Thomas · manque 1 2"><rect x="686.23" y="545.32" width="117.47" height="19.5" rx="4" fill="#ffe4e6" id="Fond"/><text x="692.23" y="559.07" font-family="Geist, Helvetica Neue, Arial, sans-serif" font-size="12" font-weight="500" fill="#a50036" xml:space="preserve">Thomas · manque 1</text></g><g id="Bloc · Thomas + Inès 6"><rect x="866.14" y="545.32" width="92.18" height="19.5" rx="4" fill="#ecfdf5" id="Fond"/><text x="872.14" y="559.07" font-family="Geist, Helvetica Neue, Arial, sans-serif" font-size="12" font-weight="500" fill="#006045" xml:space="preserve">Thomas + Inès</text></g><g id="Bloc · Thomas · manque 1 4"><rect x="1020.75" y="545.32" width="117.47" height="19.5" rx="4" fill="#ffe4e6" id="Fond"/><text x="1026.75" y="559.07" font-family="Geist, Helvetica Neue, Arial, sans-serif" font-size="12" font-weight="500" fill="#a50036" xml:space="preserve">Thomas · manque 1</text></g><g id="Bloc 3"><rect x="1168.51" y="534.55" width="156.49" height="39.55" rx="8" fill="#f1f5f9" id="Fond (hachures)"/></g></g><g id="Ligne · Dr Flore Perche"><rect x="113" y="617.59" width="1214" height="1" fill="#e5e5e5" id="Bordure basse"/><g id="Cellule · Dr Flore Perche"><rect x="113" y="578.59" width="224" height="40" fill="#ffffff" id="Fond"/><g id="Rangée · Dr Flore Perche"><g id="Initiales · FP"><rect x="129" y="586.59" width="24" height="24" rx="12" fill="#fef3c6" id="Fond"/><text x="133.59" y="602.34" font-family="Geist, Helvetica Neue, Arial, sans-serif" font-size="12" font-weight="500" fill="#973c00" xml:space="preserve">FP</text></g><text x="161" y="603.59" font-family="Geist, Helvetica Neue, Arial, sans-serif" font-size="14" font-weight="400" fill="#1d293d" xml:space="preserve">Dr Flore Perche</text></g></g><g id="Bloc · Seul · manque 1 2"><rect x="367.91" y="589.59" width="98.66" height="19.5" rx="4" fill="#ffe4e6" id="Fond"/><text x="373.91" y="603.34" font-family="Geist, Helvetica Neue, Arial, sans-serif" font-size="12" font-weight="500" fill="#a50036" xml:space="preserve">Seul · manque 1</text></g><g id="Bloc · Seul · manque 1 4"><rect x="528.38" y="589.59" width="98.66" height="19.5" rx="4" fill="#ffe4e6" id="Fond"/><text x="534.38" y="603.34" font-family="Geist, Helvetica Neue, Arial, sans-serif" font-size="12" font-weight="500" fill="#a50036" xml:space="preserve">Seul · manque 1</text></g><g id="Bloc · Inès 2"><rect x="727.16" y="589.59" width="35.61" height="19.5" rx="4" fill="#ecfdf5" id="Fond"/><text x="733.16" y="603.34" font-family="Geist, Helvetica Neue, Arial, sans-serif" font-size="12" font-weight="500" fill="#006045" xml:space="preserve">Inès</text></g><g id="Bloc · Léa 2"><rect x="896.09" y="589.59" width="32.28" height="19.5" rx="4" fill="#ecfdf5" id="Fond"/><text x="902.09" y="603.34" font-family="Geist, Helvetica Neue, Arial, sans-serif" font-size="12" font-weight="500" fill="#006045" xml:space="preserve">Léa</text></g><g id="Bloc · Inès 4"><rect x="1061.68" y="589.59" width="35.61" height="19.5" rx="4" fill="#ecfdf5" id="Fond"/><text x="1067.68" y="603.34" font-family="Geist, Helvetica Neue, Arial, sans-serif" font-size="12" font-weight="500" fill="#006045" xml:space="preserve">Inès</text></g><g id="Bloc 4"><rect x="1168.51" y="583.09" width="156.49" height="31" rx="8" fill="#f1f5f9" id="Fond (hachures)"/></g></g><g id="Ligne · Dr Paul Dray"><rect x="113" y="657.59" width="1214" height="1" fill="#e5e5e5" id="Bordure basse"/><g id="Cellule · Dr Paul Dray"><rect x="113" y="618.59" width="224" height="40" fill="#ffffff" id="Fond"/><g id="Rangée · Dr Paul Dray"><g id="Initiales · PD"><rect x="129" y="626.59" width="24" height="24" rx="12" fill="#fce7f3" id="Fond"/><text x="132.97" y="642.34" font-family="Geist, Helvetica Neue, Arial, sans-serif" font-size="12" font-weight="500" fill="#a3004c" xml:space="preserve">PD</text></g><text x="161" y="643.59" font-family="Geist, Helvetica Neue, Arial, sans-serif" font-size="14" font-weight="400" fill="#1d293d" xml:space="preserve">Dr Paul Dray</text></g></g><g id="Bloc · Seul · manque 1 6"><rect x="367.91" y="629.59" width="98.66" height="19.5" rx="4" fill="#ffe4e6" id="Fond"/><text x="373.91" y="643.34" font-family="Geist, Helvetica Neue, Arial, sans-serif" font-size="12" font-weight="500" fill="#a50036" xml:space="preserve">Seul · manque 1</text></g><g id="Bloc · Seul · manque 1 8"><rect x="528.38" y="629.59" width="98.66" height="19.5" rx="4" fill="#ffe4e6" id="Fond"/><text x="534.38" y="643.34" font-family="Geist, Helvetica Neue, Arial, sans-serif" font-size="12" font-weight="500" fill="#a50036" xml:space="preserve">Seul · manque 1</text></g><g id="Bloc 5"><rect x="659.95" y="623.09" width="170.04" height="31" rx="8" fill="#f1f5f9" id="Fond (hachures)"/></g><g id="Bloc · Seul · manque 1 10"><rect x="862.9" y="629.59" width="98.66" height="19.5" rx="4" fill="#ffe4e6" id="Fond"/><text x="868.9" y="643.34" font-family="Geist, Helvetica Neue, Arial, sans-serif" font-size="12" font-weight="500" fill="#a50036" xml:space="preserve">Seul · manque 1</text></g><g id="Bloc · Seul · manque 1 12"><rect x="1030.16" y="629.59" width="98.66" height="19.5" rx="4" fill="#ffe4e6" id="Fond"/><text x="1036.16" y="643.34" font-family="Geist, Helvetica Neue, Arial, sans-serif" font-size="12" font-weight="500" fill="#a50036" xml:space="preserve">Seul · manque 1</text></g><g id="Bloc 6"><rect x="1168.51" y="623.09" width="156.49" height="31" rx="8" fill="#f1f5f9" id="Fond (hachures)"/></g></g><g id="Ligne · ASSISTANTS DENTAIRES (4)"><rect x="113" y="658.59" width="1214" height="29" fill="#fcf2f8" fill-opacity="0.4" id="Fond"/><rect x="113" y="686.59" width="1214" height="1" fill="#e5e5e5" id="Bordure basse"/><g id="Cellule · ASSISTANTS DENTAIRES (4)"><text x="129" y="676.84" font-family="Geist, Helvetica Neue, Arial, sans-serif" font-size="12" font-weight="600" letter-spacing="0.3" fill="#45556c" xml:space="preserve">ASSISTANTS DENTAIRES</text><text x="278.68" y="676.84" font-family="Geist, Helvetica Neue, Arial, sans-serif" font-size="12" font-weight="400" letter-spacing="0.3" fill="#90a1b9" xml:space="preserve">(4)</text></g></g><g id="Ligne · Thomas Dupont"><rect x="113" y="726.59" width="1214" height="1" fill="#e5e5e5" id="Bordure basse"/><g id="Cellule · Thomas Dupont"><rect x="113" y="687.59" width="224" height="40" fill="#ffffff" id="Fond"/><g id="Rangée · Thomas Dupont"><g id="Initiales · TD"><rect x="129" y="695.59" width="24" height="24" rx="12" fill="#ede9fe" id="Fond"/><text x="133.54" y="711.34" font-family="Geist, Helvetica Neue, Arial, sans-serif" font-size="12" font-weight="500" fill="#5d0ec0" xml:space="preserve">TD</text></g><text x="161" y="712.59" font-family="Geist, Helvetica Neue, Arial, sans-serif" font-size="14" font-weight="400" fill="#1d293d" xml:space="preserve">Thomas Dupont</text></g></g><g id="Bloc · Dr Martin 2"><rect x="384.96" y="698.59" width="64.55" height="19.5" rx="4" fill="#d0fae5" id="Fond"/><text x="390.96" y="712.34" font-family="Geist, Helvetica Neue, Arial, sans-serif" font-size="12" font-weight="500" fill="#004f3b" xml:space="preserve">Dr Martin</text></g><g id="Bloc · Dr Martin 4"><rect x="545.44" y="698.59" width="64.55" height="19.5" rx="4" fill="#d0fae5" id="Fond"/><text x="551.44" y="712.34" font-family="Geist, Helvetica Neue, Arial, sans-serif" font-size="12" font-weight="500" fill="#004f3b" xml:space="preserve">Dr Martin</text></g><g id="Bloc · Dr Martin 6"><rect x="712.7" y="698.59" width="64.55" height="19.5" rx="4" fill="#d0fae5" id="Fond"/><text x="718.7" y="712.34" font-family="Geist, Helvetica Neue, Arial, sans-serif" font-size="12" font-weight="500" fill="#004f3b" xml:space="preserve">Dr Martin</text></g><g id="Bloc · Dr Martin 8"><rect x="879.95" y="698.59" width="64.55" height="19.5" rx="4" fill="#d0fae5" id="Fond"/><text x="885.95" y="712.34" font-family="Geist, Helvetica Neue, Arial, sans-serif" font-size="12" font-weight="500" fill="#004f3b" xml:space="preserve">Dr Martin</text></g><g id="Bloc · Dr Martin 10"><rect x="1047.21" y="698.59" width="64.55" height="19.5" rx="4" fill="#d0fae5" id="Fond"/><text x="1053.21" y="712.34" font-family="Geist, Helvetica Neue, Arial, sans-serif" font-size="12" font-weight="500" fill="#004f3b" xml:space="preserve">Dr Martin</text></g><g id="Bloc 7"><rect x="1168.51" y="692.09" width="156.49" height="31" rx="8" fill="#f1f5f9" id="Fond (hachures)"/></g></g><g id="Ligne · Inès Moreau"><rect x="113" y="775.14" width="1214" height="1" fill="#e5e5e5" id="Bordure basse"/><g id="Cellule · Inès Moreau"><rect x="113" y="727.59" width="224" height="48.55" fill="#ffffff" id="Fond"/><g id="Rangée · Inès Moreau"><g id="Initiales · IM"><rect x="129" y="739.87" width="24" height="24" rx="12" fill="#ffedd4" id="Fond"/><text x="134.09" y="755.62" font-family="Geist, Helvetica Neue, Arial, sans-serif" font-size="12" font-weight="500" fill="#9f2d00" xml:space="preserve">IM</text></g><g id="Bloc · Inès Moreau"><text x="161" y="749.09" font-family="Geist, Helvetica Neue, Arial, sans-serif" font-size="14" font-weight="400" fill="#1d293d" xml:space="preserve">Inès Moreau</text><text x="161" y="765.59" font-family="Geist, Helvetica Neue, Arial, sans-serif" font-size="10.88" font-weight="400" fill="#90a1b9" xml:space="preserve">+ Resp. stérilisation</text></g></g></g><g id="Bloc · ↻ Dr Martin 2"><rect x="378.89" y="741.87" width="76.7" height="21.5" rx="4" fill="#f0f9ff" id="Fond"/><rect x="379.39" y="742.37" width="75.7" height="20.5" rx="3.5" fill="none" stroke="#74d4ff" stroke-width="1" stroke-dasharray="4 3" id="Bordure"/><text x="385.89" y="756.62" font-family="Geist, Helvetica Neue, Arial, sans-serif" font-size="12" font-weight="500" fill="#024a70" xml:space="preserve">↻ Dr Martin</text></g><g id="Bloc · ↻ Dr Martin 4"><rect x="539.37" y="741.87" width="76.7" height="21.5" rx="4" fill="#f0f9ff" id="Fond"/><rect x="539.87" y="742.37" width="75.7" height="20.5" rx="3.5" fill="none" stroke="#74d4ff" stroke-width="1" stroke-dasharray="4 3" id="Bordure"/><text x="546.37" y="756.62" font-family="Geist, Helvetica Neue, Arial, sans-serif" font-size="12" font-weight="500" fill="#024a70" xml:space="preserve">↻ Dr Martin</text></g><g id="Bloc · Dr Perche 2"><rect x="711.4" y="742.87" width="67.15" height="19.5" rx="4" fill="#d0fae5" id="Fond"/><text x="717.4" y="756.62" font-family="Geist, Helvetica Neue, Arial, sans-serif" font-size="12" font-weight="500" fill="#004f3b" xml:space="preserve">Dr Perche</text></g><g id="Bloc · ↻ Dr Martin 6"><rect x="873.88" y="741.87" width="76.7" height="21.5" rx="4" fill="#f0f9ff" id="Fond"/><rect x="874.38" y="742.37" width="75.7" height="20.5" rx="3.5" fill="none" stroke="#74d4ff" stroke-width="1" stroke-dasharray="4 3" id="Bordure"/><text x="880.88" y="756.62" font-family="Geist, Helvetica Neue, Arial, sans-serif" font-size="12" font-weight="500" fill="#024a70" xml:space="preserve">↻ Dr Martin</text></g><g id="Bloc · Dr Perche 4"><rect x="1045.91" y="742.87" width="67.15" height="19.5" rx="4" fill="#d0fae5" id="Fond"/><text x="1051.91" y="756.62" font-family="Geist, Helvetica Neue, Arial, sans-serif" font-size="12" font-weight="500" fill="#004f3b" xml:space="preserve">Dr Perche</text></g><g id="Bloc 8"><rect x="1168.51" y="732.09" width="156.49" height="39.55" rx="8" fill="#f1f5f9" id="Fond (hachures)"/></g></g><g id="Ligne · Camille Laurent"><rect x="113" y="815.14" width="1214" height="1" fill="#e5e5e5" id="Bordure basse"/><g id="Cellule · Camille Laurent"><rect x="113" y="776.14" width="224" height="40" fill="#ffffff" id="Fond"/><g id="Rangée · Camille Laurent"><g id="Initiales · CL"><rect x="129" y="784.14" width="24" height="24" rx="12" fill="#ffedd4" id="Fond"/><text x="133.27" y="799.89" font-family="Geist, Helvetica Neue, Arial, sans-serif" font-size="12" font-weight="500" fill="#9f2d00" xml:space="preserve">CL</text></g><text x="161" y="801.14" font-family="Geist, Helvetica Neue, Arial, sans-serif" font-size="14" font-weight="400" fill="#1d293d" xml:space="preserve">Camille Laurent</text></g></g><g id="Déclencheur · Congé"><rect x="339" y="780.64" width="156.48" height="31" rx="8" fill="#dff2fe" id="Fond"/><rect x="339.5" y="781.14" width="155.48" height="30" rx="7.5" fill="none" stroke="#b8e6fe" stroke-width="1" id="Bordure"/><text x="399.02" y="799.89" font-family="Geist, Helvetica Neue, Arial, sans-serif" font-size="12" font-weight="500" fill="#00598a" xml:space="preserve">Congé</text></g><g id="Déclencheur · Congé 2"><rect x="499.48" y="780.64" width="156.48" height="31" rx="8" fill="#dff2fe" id="Fond"/><rect x="499.98" y="781.14" width="155.48" height="30" rx="7.5" fill="none" stroke="#b8e6fe" stroke-width="1" id="Bordure"/><text x="559.5" y="799.89" font-family="Geist, Helvetica Neue, Arial, sans-serif" font-size="12" font-weight="500" fill="#00598a" xml:space="preserve">Congé</text></g><g id="Déclencheur · Congé 3"><rect x="659.95" y="780.64" width="170.04" height="31" rx="8" fill="#dff2fe" id="Fond"/><rect x="660.45" y="781.14" width="169.04" height="30" rx="7.5" fill="none" stroke="#b8e6fe" stroke-width="1" id="Bordure"/><text x="726.76" y="799.89" font-family="Geist, Helvetica Neue, Arial, sans-serif" font-size="12" font-weight="500" fill="#00598a" xml:space="preserve">Congé</text></g><g id="Déclencheur · Congé 4"><rect x="833.99" y="780.64" width="156.48" height="31" rx="8" fill="#dff2fe" id="Fond"/><rect x="834.49" y="781.14" width="155.48" height="30" rx="7.5" fill="none" stroke="#b8e6fe" stroke-width="1" id="Bordure"/><text x="894.02" y="799.89" font-family="Geist, Helvetica Neue, Arial, sans-serif" font-size="12" font-weight="500" fill="#00598a" xml:space="preserve">Congé</text></g><g id="Déclencheur · Congé 5"><rect x="994.47" y="780.64" width="170.04" height="31" rx="8" fill="#dff2fe" id="Fond"/><rect x="994.97" y="781.14" width="169.04" height="30" rx="7.5" fill="none" stroke="#b8e6fe" stroke-width="1" id="Bordure"/><text x="1061.27" y="799.89" font-family="Geist, Helvetica Neue, Arial, sans-serif" font-size="12" font-weight="500" fill="#00598a" xml:space="preserve">Congé</text></g><g id="Bloc 9"><rect x="1168.51" y="780.64" width="156.49" height="31" rx="8" fill="#f1f5f9" id="Fond (hachures)"/></g></g><g id="Ligne · Léa Garnier"><rect x="113" y="855.14" width="1214" height="1" fill="#e5e5e5" id="Bordure basse"/><g id="Cellule · Léa Garnier"><rect x="113" y="816.14" width="224" height="40" fill="#ffffff" id="Fond"/><g id="Rangée · Léa Garnier"><g id="Initiales · LG"><rect x="129" y="824.14" width="24" height="24" rx="12" fill="#fce7f3" id="Fond"/><text x="133.51" y="839.89" font-family="Geist, Helvetica Neue, Arial, sans-serif" font-size="12" font-weight="500" fill="#a3004c" xml:space="preserve">LG</text></g><text x="161" y="841.14" font-family="Geist, Helvetica Neue, Arial, sans-serif" font-size="14" font-weight="400" fill="#1d293d" xml:space="preserve">Léa Garnier</text></g></g><g id="Déclencheur · Congé 6"><rect x="339" y="820.64" width="156.48" height="31" rx="8" fill="#ffffff" id="Fond"/><rect x="340" y="821.64" width="154.48" height="29" rx="7" fill="none" stroke="#b8e6fe" stroke-width="2" stroke-dasharray="4 3" id="Bordure"/><text x="371.13" y="839.89" font-family="Geist, Helvetica Neue, Arial, sans-serif" font-size="12" font-weight="500" fill="#00598a" xml:space="preserve">Congé</text><g id="Bloc · · à valider" opacity="0.7"><text x="411.55" y="839.89" font-family="Geist, Helvetica Neue, Arial, sans-serif" font-size="12" font-weight="400" fill="#00598a" xml:space="preserve">· à valider</text></g></g><g id="Déclencheur · Congé 7"><rect x="499.48" y="820.64" width="156.48" height="31" rx="8" fill="#ffffff" id="Fond"/><rect x="500.48" y="821.64" width="154.48" height="29" rx="7" fill="none" stroke="#b8e6fe" stroke-width="2" stroke-dasharray="4 3" id="Bordure"/><text x="531.61" y="839.89" font-family="Geist, Helvetica Neue, Arial, sans-serif" font-size="12" font-weight="500" fill="#00598a" xml:space="preserve">Congé</text><g id="Bloc · · à valider 2" opacity="0.7"><text x="572.03" y="839.89" font-family="Geist, Helvetica Neue, Arial, sans-serif" font-size="12" font-weight="400" fill="#00598a" xml:space="preserve">· à valider</text></g></g><g id="Bloc 10"><rect x="659.95" y="820.64" width="170.04" height="31" rx="8" fill="#f1f5f9" id="Fond (hachures)"/></g><g id="Bloc · Dr Perche 6"><rect x="878.66" y="827.14" width="67.15" height="19.5" rx="4" fill="#d0fae5" id="Fond"/><text x="884.66" y="840.89" font-family="Geist, Helvetica Neue, Arial, sans-serif" font-size="12" font-weight="500" fill="#004f3b" xml:space="preserve">Dr Perche</text></g><g id="Bloc 11"><rect x="994.47" y="820.64" width="170.04" height="31" rx="8" fill="#f1f5f9" id="Fond (hachures)"/></g><g id="Bloc 12"><rect x="1168.51" y="820.64" width="156.49" height="31" rx="8" fill="#f1f5f9" id="Fond (hachures)"/></g></g><g id="Ligne · AIDES DENTAIRES (1)"><rect x="113" y="856.14" width="1214" height="29" fill="#fcf2f8" fill-opacity="0.4" id="Fond"/><rect x="113" y="884.14" width="1214" height="1" fill="#e5e5e5" id="Bordure basse"/><g id="Cellule · AIDES DENTAIRES (1)"><text x="129" y="874.39" font-family="Geist, Helvetica Neue, Arial, sans-serif" font-size="12" font-weight="600" letter-spacing="0.3" fill="#45556c" xml:space="preserve">AIDES DENTAIRES</text><text x="240.49" y="874.39" font-family="Geist, Helvetica Neue, Arial, sans-serif" font-size="12" font-weight="400" letter-spacing="0.3" fill="#90a1b9" xml:space="preserve">(1)</text></g></g><g id="Ligne · Manon Leroy"><rect x="113" y="924.14" width="1214" height="1" fill="#e5e5e5" id="Bordure basse"/><g id="Cellule · Manon Leroy"><rect x="113" y="885.14" width="224" height="40" fill="#ffffff" id="Fond"/><g id="Rangée · Manon Leroy"><g id="Initiales · ML"><rect x="129" y="893.14" width="24" height="24" rx="12" fill="#d0fae5" id="Fond"/><text x="132.16" y="908.89" font-family="Geist, Helvetica Neue, Arial, sans-serif" font-size="12" font-weight="500" fill="#006045" xml:space="preserve">ML</text></g><text x="161" y="910.14" font-family="Geist, Helvetica Neue, Arial, sans-serif" font-size="14" font-weight="400" fill="#1d293d" xml:space="preserve">Manon Leroy</text></g></g><g id="Bloc 14"><rect x="414.23" y="904.14" width="6" height="6" rx="3" fill="#00d492" id="Fond"/></g><g id="Bloc 16"><rect x="574.71" y="904.14" width="6" height="6" rx="3" fill="#00d492" id="Fond"/></g><g id="Déclencheur · Formation"><rect x="659.95" y="889.64" width="170.04" height="31" rx="8" fill="#ede9fe" id="Fond"/><rect x="660.45" y="890.14" width="169.04" height="30" rx="7.5" fill="none" stroke="#ddd6ff" stroke-width="1" id="Bordure"/><text x="716.74" y="908.89" font-family="Geist, Helvetica Neue, Arial, sans-serif" font-size="12" font-weight="500" fill="#5d0ec0" xml:space="preserve">Formation</text></g><g id="Déclencheur · Formation 2"><rect x="833.99" y="889.64" width="156.48" height="31" rx="8" fill="#ede9fe" id="Fond"/><rect x="834.49" y="890.14" width="155.48" height="30" rx="7.5" fill="none" stroke="#ddd6ff" stroke-width="1" id="Bordure"/><text x="884" y="908.89" font-family="Geist, Helvetica Neue, Arial, sans-serif" font-size="12" font-weight="500" fill="#5d0ec0" xml:space="preserve">Formation</text></g><g id="Bloc 17"><rect x="994.47" y="889.64" width="170.04" height="31" rx="8" fill="#f1f5f9" id="Fond (hachures)"/></g><g id="Bloc 18"><rect x="1168.51" y="889.64" width="156.49" height="31" rx="8" fill="#f1f5f9" id="Fond (hachures)"/></g></g><g id="Ligne · SECRÉTAIRES (1)"><rect x="113" y="925.14" width="1214" height="29" fill="#fcf2f8" fill-opacity="0.4" id="Fond"/><rect x="113" y="953.14" width="1214" height="1" fill="#e5e5e5" id="Bordure basse"/><g id="Cellule · SECRÉTAIRES (1)"><text x="129" y="943.39" font-family="Geist, Helvetica Neue, Arial, sans-serif" font-size="12" font-weight="600" letter-spacing="0.3" fill="#45556c" xml:space="preserve">SECRÉTAIRES</text><text x="216.21" y="943.39" font-family="Geist, Helvetica Neue, Arial, sans-serif" font-size="12" font-weight="400" letter-spacing="0.3" fill="#90a1b9" xml:space="preserve">(1)</text></g></g><g id="Ligne · Nathalie Roux"><rect x="113" y="993.14" width="1214" height="1" fill="#e5e5e5" id="Bordure basse"/><g id="Cellule · Nathalie Roux"><rect x="113" y="954.14" width="224" height="40" fill="#ffffff" id="Fond"/><g id="Rangée · Nathalie Roux"><g id="Initiales · NR"><rect x="129" y="962.14" width="24" height="24" rx="12" fill="#fef3c6" id="Fond"/><text x="132.55" y="977.89" font-family="Geist, Helvetica Neue, Arial, sans-serif" font-size="12" font-weight="500" fill="#973c00" xml:space="preserve">NR</text></g><text x="161" y="979.14" font-family="Geist, Helvetica Neue, Arial, sans-serif" font-size="14" font-weight="400" fill="#1d293d" xml:space="preserve">Nathalie Roux</text></g></g><g id="Bloc 20"><rect x="414.23" y="973.14" width="6" height="6" rx="3" fill="#00d492" id="Fond"/></g><g id="Bloc 22"><rect x="574.71" y="973.14" width="6" height="6" rx="3" fill="#00d492" id="Fond"/></g><g id="Bloc 24"><rect x="741.97" y="973.14" width="6" height="6" rx="3" fill="#00d492" id="Fond"/></g><g id="Bloc 26"><rect x="909.23" y="973.14" width="6" height="6" rx="3" fill="#00d492" id="Fond"/></g><g id="Bloc 28"><rect x="1076.48" y="973.14" width="6" height="6" rx="3" fill="#00d492" id="Fond"/></g><g id="Bloc 29"><rect x="1168.51" y="958.64" width="156.49" height="31" rx="8" fill="#f1f5f9" id="Fond (hachures)"/></g></g><g id="Ligne · COMPTABLES (1)"><rect x="113" y="994.14" width="1214" height="29" fill="#fcf2f8" fill-opacity="0.4" id="Fond"/><rect x="113" y="1022.14" width="1214" height="1" fill="#e5e5e5" id="Bordure basse"/><g id="Cellule · COMPTABLES (1)"><text x="129" y="1012.39" font-family="Geist, Helvetica Neue, Arial, sans-serif" font-size="12" font-weight="600" letter-spacing="0.3" fill="#45556c" xml:space="preserve">COMPTABLES</text><text x="216.08" y="1012.39" font-family="Geist, Helvetica Neue, Arial, sans-serif" font-size="12" font-weight="400" letter-spacing="0.3" fill="#90a1b9" xml:space="preserve">(1)</text></g></g><g id="Ligne · Karima Benali"><rect x="113" y="1062.14" width="1214" height="1" fill="#e5e5e5" id="Bordure basse"/><g id="Cellule · Karima Benali"><rect x="113" y="1023.14" width="224" height="40" fill="#ffffff" id="Fond"/><g id="Rangée · Karima Benali"><g id="Initiales · KB"><rect x="129" y="1031.14" width="24" height="24" rx="12" fill="#ffedd4" id="Fond"/><text x="132.99" y="1046.89" font-family="Geist, Helvetica Neue, Arial, sans-serif" font-size="12" font-weight="500" fill="#9f2d00" xml:space="preserve">KB</text></g><text x="161" y="1048.14" font-family="Geist, Helvetica Neue, Arial, sans-serif" font-size="14" font-weight="400" fill="#1d293d" xml:space="preserve">Karima Benali</text></g></g><g id="Bloc 30"><rect x="339" y="1027.64" width="156.48" height="31" rx="8" fill="#f1f5f9" id="Fond (hachures)"/></g><g id="Bloc 32"><rect x="574.71" y="1042.14" width="6" height="6" rx="3" fill="#00d492" id="Fond"/></g><g id="Bloc 33"><rect x="659.95" y="1027.64" width="170.04" height="31" rx="8" fill="#f1f5f9" id="Fond (hachures)"/></g><g id="Bloc 35"><rect x="909.23" y="1042.14" width="6" height="6" rx="3" fill="#00d492" id="Fond"/></g><g id="Bloc 36"><rect x="994.47" y="1027.64" width="170.04" height="31" rx="8" fill="#f1f5f9" id="Fond (hachures)"/></g><g id="Bloc 37"><rect x="1168.51" y="1027.64" width="156.49" height="31" rx="8" fill="#f1f5f9" id="Fond (hachures)"/></g></g><g id="Ligne · GESTIONNAIRES (1)"><rect x="113" y="1063.14" width="1214" height="29" fill="#fcf2f8" fill-opacity="0.4" id="Fond"/><rect x="113" y="1091.14" width="1214" height="1" fill="#e5e5e5" id="Bordure basse"/><g id="Cellule · GESTIONNAIRES (1)"><text x="129" y="1081.39" font-family="Geist, Helvetica Neue, Arial, sans-serif" font-size="12" font-weight="600" letter-spacing="0.3" fill="#45556c" xml:space="preserve">GESTIONNAIRES</text><text x="231.77" y="1081.39" font-family="Geist, Helvetica Neue, Arial, sans-serif" font-size="12" font-weight="400" letter-spacing="0.3" fill="#90a1b9" xml:space="preserve">(1)</text></g></g><g id="Ligne · Delphine Girard"><g id="Cellule · Delphine Girard"><rect x="113" y="1092.14" width="224" height="40" fill="#ffffff" id="Fond"/><g id="Rangée · Delphine Girard"><g id="Initiales · DG 2"><rect x="129" y="1100.39" width="24" height="24" rx="12" fill="#d0fae5" id="Fond"/><text x="132.52" y="1116.14" font-family="Geist, Helvetica Neue, Arial, sans-serif" font-size="12" font-weight="500" fill="#006045" xml:space="preserve">DG</text></g><text x="161" y="1117.39" font-family="Geist, Helvetica Neue, Arial, sans-serif" font-size="14" font-weight="400" fill="#1d293d" xml:space="preserve">Delphine Girard</text></g></g><g id="Bloc 39"><rect x="414.23" y="1111.39" width="6" height="6" rx="3" fill="#00d492" id="Fond"/></g><g id="Bloc 41"><rect x="574.71" y="1111.39" width="6" height="6" rx="3" fill="#00d492" id="Fond"/></g><g id="Bloc 43"><rect x="741.97" y="1111.39" width="6" height="6" rx="3" fill="#00d492" id="Fond"/></g><g id="Bloc 45"><rect x="909.23" y="1111.39" width="6" height="6" rx="3" fill="#00d492" id="Fond"/></g><g id="Bloc 47"><rect x="1076.48" y="1111.39" width="6" height="6" rx="3" fill="#00d492" id="Fond"/></g><g id="Bloc 48"><rect x="1168.51" y="1096.64" width="156.49" height="31.5" rx="8" fill="#f1f5f9" id="Fond (hachures)"/></g></g></g></g></g><g id="Rangée · Présent (cliquer pour déclarer une absen"><g id="Rangée · Présent (cliquer pour déclarer une absen 2"><g id="Bloc 49"><rect x="112" y="1154.14" width="6" height="6" rx="3" fill="#00d492" id="Fond"/></g><text x="124" y="1160.89" font-family="Geist, Helvetica Neue, Arial, sans-serif" font-size="12" font-weight="400" fill="#62748e" xml:space="preserve">Présent (cliquer pour déclarer une absence)</text></g><g id="Rangée · Congé"><g id="Bloc 50"><rect x="378.42" y="1151.14" width="20" height="12" rx="4" fill="#dff2fe" id="Fond"/><rect x="378.92" y="1151.64" width="19" height="11" rx="3.5" fill="none" stroke="#b8e6fe" stroke-width="1" id="Bordure"/></g><text x="404.42" y="1160.89" font-family="Geist, Helvetica Neue, Arial, sans-serif" font-size="12" font-weight="400" fill="#62748e" xml:space="preserve">Congé</text></g><g id="Rangée · Maladie"><g id="Bloc 51"><rect x="456.09" y="1151.14" width="20" height="12" rx="4" fill="#ffe4e6" id="Fond"/><rect x="456.59" y="1151.64" width="19" height="11" rx="3.5" fill="none" stroke="#ffccd3" stroke-width="1" id="Bordure"/></g><text x="482.09" y="1160.89" font-family="Geist, Helvetica Neue, Arial, sans-serif" font-size="12" font-weight="400" fill="#62748e" xml:space="preserve">Maladie</text></g><g id="Rangée · Formation"><g id="Bloc 52"><rect x="541.17" y="1151.14" width="20" height="12" rx="4" fill="#ede9fe" id="Fond"/><rect x="541.67" y="1151.64" width="19" height="11" rx="3.5" fill="none" stroke="#ddd6ff" stroke-width="1" id="Bordure"/></g><text x="567.17" y="1160.89" font-family="Geist, Helvetica Neue, Arial, sans-serif" font-size="12" font-weight="400" fill="#62748e" xml:space="preserve">Formation</text></g><g id="Rangée · À valider"><g id="Bloc 53"><rect x="638.69" y="1151.64" width="19" height="11" rx="3.5" fill="none" stroke="#cad5e2" stroke-width="1" stroke-dasharray="4 3" id="Bordure"/></g><text x="664.19" y="1160.89" font-family="Geist, Helvetica Neue, Arial, sans-serif" font-size="12" font-weight="400" fill="#62748e" xml:space="preserve">À valider</text></g><g id="Rangée · Dernier moment"><g id="Bloc 54"><rect x="726.96" y="1150.14" width="22" height="14" rx="5" fill="none" stroke="#ff637e" stroke-width="2" id="Bordure"/></g><text x="753.96" y="1160.89" font-family="Geist, Helvetica Neue, Arial, sans-serif" font-size="12" font-weight="400" fill="#62748e" xml:space="preserve">Dernier moment</text></g><g id="Rangée · Non travaillé"><g id="Bloc 55"><rect x="858.34" y="1151.14" width="20" height="12" rx="4" fill="#f1f5f9" id="Fond (hachures)"/></g><text x="884.34" y="1160.89" font-family="Geist, Helvetica Neue, Arial, sans-serif" font-size="12" font-weight="400" fill="#62748e" xml:space="preserve">Non travaillé</text></g><g id="Rangée · Tension"><g id="Bloc 56"><rect x="969.46" y="1154.14" width="6" height="6" rx="3" fill="#fe9a00" id="Fond"/></g><text x="981.46" y="1160.89" font-family="Geist, Helvetica Neue, Arial, sans-serif" font-size="12" font-weight="400" fill="#62748e" xml:space="preserve">Tension</text></g></g></g></g></g></g></g></g></svg>