<svg xmlns="http://www.w3.org/2000/svg" width="1440" height="1246" viewBox="0 0 1440 1246" fill="none"><defs><linearGradient id="mvp--25-admin-utilisateur-menu-actions-degrade-1" x1="0" y1="0" x2="0" y2="1"><stop offset="0" stop-color="#fef2f8" stop-opacity="0.702"/><stop offset="1" stop-color="#ffffff"/></linearGradient></defs><g id="MVP · 25 · Administration · Menu d’actions"><rect id="Fond de page" width="1440" height="1246" fill="#ffffff"/><g id="Page"><rect x="0" y="0" width="1440" height="1245.5" fill="#f8fafc" id="Fond"/><g id="Contenu"><rect x="0" y="0" width="1440" height="1245.5" fill="#ffffff" id="Fond"/><g id="Header · oralys"><rect x="0" y="0" width="1440" height="67" fill="#ffffff" id="Fond"/><rect x="0" y="64" width="1440" height="3" fill="#fda5d5" id="Bordure basse"/><g id="Grille"><g id="Rangée · oralys"><g id="Rangée · oralys 2"><g id="Icon · logo"><svg viewBox="0 0 16 24" x="24" y="19.99" width="16" height="24"><circle cx="8" cy="6.5" r="5.5" fill="#0f172b"/><circle cx="8" cy="17.5" r="5.5" fill="#0f172b"/><rect x="5.5" y="9" width="5" height="6" fill="white" rx="2.5"/></svg></g><text x="46" y="40.7" font-family="Geist, Helvetica Neue, Arial, sans-serif" font-size="25.6" font-weight="600" letter-spacing="-0.64" fill="#0f172b" xml:space="preserve">oralys</text></g><g id="Menu déroulant · Team"><rect x="128.37" y="17" width="91.17" height="30" rx="15" fill="#fdf2f8" id="Fond"/><rect x="128.87" y="17.5" width="90.17" height="29" rx="14.5" fill="none" stroke="#fccee8" stroke-width="1" id="Bordure"/><g id="Bloc"><rect x="139.37" y="28" width="8" height="8" rx="4" fill="#fb64b6" id="Fond"/></g><text x="153.37" y="37" font-family="Geist, Helvetica Neue, Arial, sans-serif" font-size="14" font-weight="500" fill="#861043" xml:space="preserve">Team</text><g id="Icon · chevron-down"><svg xmlns="http://www.w3.org/2000/svg" width="14" height="14" viewBox="0 0 24 24" fill="none" stroke="#c6005c" stroke-width="2" stroke-linecap="round" stroke-linejoin="round" x="194.54" y="25"><path d="m6 9 6 6 6-6"/></svg></g></g><g id="Déclencheur · MVP"><rect x="231.54" y="22.2" width="39.94" height="19.59" rx="9.8" fill="#0f172b" id="Fond"/><text x="239.54" y="35.45" font-family="Geist, Helvetica Neue, Arial, sans-serif" font-size="10.4" font-weight="600" letter-spacing="0.26" fill="#ffffff" xml:space="preserve">MVP</text></g></g><g id="Button · Cabinet Oralpes"><text x="648.63" y="37.25" font-family="Geist, Helvetica Neue, Arial, sans-serif" font-size="16" font-weight="500" fill="#1d293d" xml:space="preserve">Cabinet Oralpes</text><g id="Icon · chevron-down"><svg xmlns="http://www.w3.org/2000/svg" width="16" height="16" viewBox="0 0 24 24" fill="none" stroke="#62748e" stroke-width="2" stroke-linecap="round" stroke-linejoin="round" x="775.37" y="24"><path d="m6 9 6 6 6-6"/></svg></g></g><g id="Actions · Changer d'utilisateur"><g id="Button · Changer d'utilisateur"><rect x="1027.58" y="18" width="164.75" height="28" rx="8" fill="#ffffff" id="Fond"/><rect x="1028.08" y="18.5" width="163.75" height="27" rx="7.5" fill="none" stroke="#e5e5e5" stroke-width="1" id="Bordure"/><g id="Icon · users"><svg xmlns="http://www.w3.org/2000/svg" width="14" height="14" viewBox="0 0 24 24" fill="none" stroke="#0f172b" stroke-width="2" stroke-linecap="round" stroke-linejoin="round" x="1038.58" y="25"><path d="M16 21v-2a4 4 0 0 0-4-4H6a4 4 0 0 0-4 4v2"/><path d="M16 3.128a4 4 0 0 1 0 7.744"/><path d="M22 21v-2a4 4 0 0 0-3-3.87"/><circle cx="9" cy="7" r="4"/></svg></g><text x="1056.58" y="36.4" font-family="Geist, Helvetica Neue, Arial, sans-serif" font-size="12.8" font-weight="500" fill="#0f172b" xml:space="preserve">Changer d'utilisateur</text></g><g id="Déclencheur · Notifications"><g id="Icon · bell"><svg xmlns="http://www.w3.org/2000/svg" width="16" height="16" viewBox="0 0 24 24" fill="none" stroke="#0f172b" stroke-width="2" stroke-linecap="round" stroke-linejoin="round" x="1206.33" y="24"><path d="M10.268 21a2 2 0 0 0 3.464 0"/><path d="M3.262 15.326A1 1 0 0 0 4 17h16a1 1 0 0 0 .74-1.673C19.41 13.956 18 12.499 18 8A6 6 0 0 0 6 8c0 4.499-1.411 5.956-2.738 7.326"/></svg></g><g id="Rangée · 2"><rect x="1215.33" y="15" width="16" height="16" rx="8" fill="#f6339a" id="Fond"/><text x="1220.24" y="26.39" font-family="Geist, Helvetica Neue, Arial, sans-serif" font-size="9.6" font-weight="600" fill="#ffffff" xml:space="preserve">2</text></g></g><g id="Menu déroulant · Menu utilisateur"><g id="Initiales · DG"><rect x="1238.33" y="14" width="36" height="36" rx="18" fill="#d0fae5" id="Fond"/><text x="1247.84" y="35.75" font-family="Geist, Helvetica Neue, Arial, sans-serif" font-size="12" font-weight="500" fill="#006045" xml:space="preserve">DG</text></g><g id="Bloc · Delphine Girard"><text x="1282.33" y="29" font-family="Geist, Helvetica Neue, Arial, sans-serif" font-size="14" font-weight="500" fill="#0f172b" xml:space="preserve">Delphine Girard</text><text x="1282.33" y="45.75" font-family="Geist, Helvetica Neue, Arial, sans-serif" font-size="12" font-weight="400" fill="#62748e" xml:space="preserve">Gestionnaire</text></g><g id="Icon · chevron-down"><svg xmlns="http://www.w3.org/2000/svg" width="16" height="16" viewBox="0 0 24 24" fill="none" stroke="#62748e" stroke-width="2" stroke-linecap="round" stroke-linejoin="round" x="1392" y="24"><path d="m6 9 6 6 6-6"/></svg></g></g></g></g></g><g id="Navigation · Tableau de bord"><rect x="0" y="67" width="1440" height="45" fill="url(#mvp--25-admin-utilisateur-menu-actions-degrade-1)" id="Fond"/><rect x="0" y="111" width="1440" height="1" fill="#e2e8f0" id="Bordure basse"/><g id="Liste · Tableau de bord"><text x="36" y="94" font-family="Geist, Helvetica Neue, Arial, sans-serif" font-size="14" font-weight="500" fill="#62748e" xml:space="preserve">Tableau de bord</text><text x="168.3" y="94" font-family="Geist, Helvetica Neue, Arial, sans-serif" font-size="14" font-weight="500" fill="#62748e" xml:space="preserve">Planning</text><text x="253.81" y="94" font-family="Geist, Helvetica Neue, Arial, sans-serif" font-size="14" font-weight="500" fill="#62748e" xml:space="preserve">Aperçu Soins</text><g id="Lien · Administration"><text x="368.47" y="94" font-family="Geist, Helvetica Neue, Arial, sans-serif" font-size="14" font-weight="500" fill="#0f172b" xml:space="preserve">Administration</text><g id="Bloc 2"><rect x="368.47" y="110" width="96.06" height="2" rx="1" fill="#fb64b6" id="Fond"/></g></g></g></g><g id="Rangée · Fiche du cabinet"><g id="Liste · Fiche du cabinet"><g id="Rangée · Fiche du cabinet 2"><g id="Icon · building-complex"><svg xmlns="http://www.w3.org/2000/svg" width="16" height="16" viewBox="0 0 24 24" fill="none" stroke="#90a1b9" stroke-width="2" stroke-linecap="round" stroke-linejoin="round" x="26" y="152"><path d="M10 12h4"/><path d="M10 8h4"/><path d="M14 21v-3a2 2 0 0 0-4 0v3"/><path d="M6 10H4a2 2 0 0 0-2 2v7a2 2 0 0 0 2 2h16a2 2 0 0 0 2-2V9a2 2 0 0 0-2-2h-2"/><path d="M6 21V5a2 2 0 0 1 2-2h8a2 2 0 0 1 2 2v16"/></svg></g><text x="52" y="165" font-family="Geist, Helvetica Neue, Arial, sans-serif" font-size="14" font-weight="400" fill="#90a1b9" xml:space="preserve">Fiche du cabinet</text></g><g id="Rangée · Équipe"><g id="Icon · users"><svg xmlns="http://www.w3.org/2000/svg" width="16" height="16" viewBox="0 0 24 24" fill="none" stroke="#90a1b9" stroke-width="2" stroke-linecap="round" stroke-linejoin="round" x="26" y="186"><path d="M16 21v-2a4 4 0 0 0-4-4H6a4 4 0 0 0-4 4v2"/><path d="M16 3.128a4 4 0 0 1 0 7.744"/><path d="M22 21v-2a4 4 0 0 0-3-3.87"/><circle cx="9" cy="7" r="4"/></svg></g><text x="52" y="199" font-family="Geist, Helvetica Neue, Arial, sans-serif" font-size="14" font-weight="400" fill="#90a1b9" xml:space="preserve">Équipe</text><g id="Bloc · V1"><rect x="211.69" y="187.14" width="18.31" height="13.71" rx="4" fill="#f1f5f9" id="Fond"/><text x="215.69" y="197.39" font-family="Geist, Helvetica Neue, Arial, sans-serif" font-size="9.6" font-weight="500" fill="#62748e" xml:space="preserve">V1</text></g></g><g id="Lien · Utilisateurs"><rect x="16" y="212" width="224" height="32" rx="8" fill="#f1f5f9" id="Fond"/><g id="Icon · user-cog"><svg xmlns="http://www.w3.org/2000/svg" width="16" height="16" viewBox="0 0 24 24" fill="none" stroke="#62748e" stroke-width="2" stroke-linecap="round" stroke-linejoin="round" x="26" y="220"><path d="M10 15H6a4 4 0 0 0-4 4v2"/><path d="m14.305 16.53.923-.382"/><path d="m15.228 13.852-.923-.383"/><path d="m16.852 12.228-.383-.923"/><path d="m16.852 17.772-.383.924"/><path d="m19.148 12.228.383-.923"/><path d="m19.53 18.696-.382-.924"/><path d="m20.772 13.852.924-.383"/><path d="m20.772 16.148.924.383"/><circle cx="18" cy="15" r="3"/><circle cx="9" cy="7" r="4"/></svg></g><text x="52" y="233" font-family="Geist, Helvetica Neue, Arial, sans-serif" font-size="14" font-weight="500" fill="#0f172b" xml:space="preserve">Utilisateurs</text></g><g id="Rangée · Rôles &amp; droits"><g id="Icon · shield-check"><svg xmlns="http://www.w3.org/2000/svg" width="16" height="16" viewBox="0 0 24 24" fill="none" stroke="#90a1b9" stroke-width="2" stroke-linecap="round" stroke-linejoin="round" x="26" y="254"><path d="M20 13c0 5-3.5 7.5-7.66 8.95a1 1 0 0 1-.67-.01C7.5 20.5 4 18 4 13V6a1 1 0 0 1 1-1c2 0 4.5-1.2 6.24-2.72a1.17 1.17 0 0 1 1.52 0C14.51 3.81 17 5 19 5a1 1 0 0 1 1 1z"/><path d="m9 12 2 2 4-4"/></svg></g><text x="52" y="267" font-family="Geist, Helvetica Neue, Arial, sans-serif" font-size="14" font-weight="400" fill="#90a1b9" xml:space="preserve">Rôles &amp; droits</text><g id="Bloc · V2"><rect x="209.73" y="255.14" width="20.27" height="13.71" rx="4" fill="#f1f5f9" id="Fond"/><text x="213.73" y="265.39" font-family="Geist, Helvetica Neue, Arial, sans-serif" font-size="9.6" font-weight="500" fill="#62748e" xml:space="preserve">V2</text></g></g><g id="Rangée · Postes partagés"><g id="Icon · monitor-smartphone"><svg xmlns="http://www.w3.org/2000/svg" width="16" height="16" viewBox="0 0 24 24" fill="none" stroke="#90a1b9" stroke-width="2" stroke-linecap="round" stroke-linejoin="round" x="26" y="288"><path d="M18 8V6a2 2 0 0 0-2-2H4a2 2 0 0 0-2 2v7a2 2 0 0 0 2 2h8"/><path d="M10 19v-3.96 3.15"/><path d="M7 19h5"/><rect width="6" height="10" x="16" y="12" rx="2"/></svg></g><text x="52" y="301" font-family="Geist, Helvetica Neue, Arial, sans-serif" font-size="14" font-weight="400" fill="#90a1b9" xml:space="preserve">Postes partagés</text><g id="Bloc · V2 2"><rect x="209.73" y="289.14" width="20.27" height="13.71" rx="4" fill="#f1f5f9" id="Fond"/><text x="213.73" y="299.39" font-family="Geist, Helvetica Neue, Arial, sans-serif" font-size="9.6" font-weight="500" fill="#62748e" xml:space="preserve">V2</text></g></g><g id="Rangée · Journal d'audit"><g id="Icon · rotate-ccw-clock"><svg xmlns="http://www.w3.org/2000/svg" width="16" height="16" viewBox="0 0 24 24" fill="none" stroke="#90a1b9" stroke-width="2" stroke-linecap="round" stroke-linejoin="round" x="26" y="322"><path d="M3 12a9 9 0 1 0 9-9 9.75 9.75 0 0 0-6.74 2.74L3 8"/><path d="M3 3v5h5"/><path d="M12 7v5l4 2"/></svg></g><text x="52" y="335" font-family="Geist, Helvetica Neue, Arial, sans-serif" font-size="14" font-weight="400" fill="#90a1b9" xml:space="preserve">Journal d'audit</text><g id="Bloc · V2 3"><rect x="209.73" y="323.14" width="20.27" height="13.71" rx="4" fill="#f1f5f9" id="Fond"/><text x="213.73" y="333.39" font-family="Geist, Helvetica Neue, Arial, sans-serif" font-size="9.6" font-weight="500" fill="#62748e" xml:space="preserve">V2</text></g></g><g id="Rangée · Actes"><g id="Icon · list"><svg xmlns="http://www.w3.org/2000/svg" width="16" height="16" viewBox="0 0 24 24" fill="none" stroke="#90a1b9" stroke-width="2" stroke-linecap="round" stroke-linejoin="round" x="26" y="356"><path d="M3 5h.01"/><path d="M3 12h.01"/><path d="M3 19h.01"/><path d="M8 5h13"/><path d="M8 12h13"/><path d="M8 19h13"/></svg></g><text x="52" y="369" font-family="Geist, Helvetica Neue, Arial, sans-serif" font-size="14" font-weight="400" fill="#90a1b9" xml:space="preserve">Actes</text></g><g id="Rangée · Motifs de consultation"><g id="Icon · calendar-days"><svg xmlns="http://www.w3.org/2000/svg" width="16" height="16" viewBox="0 0 24 24" fill="none" stroke="#90a1b9" stroke-width="2" stroke-linecap="round" stroke-linejoin="round" x="26" y="390"><path d="M8 2v3"/><path d="M16 2v3"/><rect x="3" y="3" width="18" height="18" rx="2"/><path d="M3 9h18"/><path d="M8 13h.01"/><path d="M12 13h.01"/><path d="M16 13h.01"/><path d="M8 17h.01"/><path d="M12 17h.01"/><path d="M16 17h.01"/></svg></g><text x="52" y="403" font-family="Geist, Helvetica Neue, Arial, sans-serif" font-size="14" font-weight="400" fill="#90a1b9" xml:space="preserve">Motifs de consultation</text></g><g id="Rangée · Templates de documents"><g id="Icon · file-text"><svg xmlns="http://www.w3.org/2000/svg" width="16" height="16" viewBox="0 0 24 24" fill="none" stroke="#90a1b9" stroke-width="2" stroke-linecap="round" stroke-linejoin="round" x="26" y="424"><path d="M6 22a2 2 0 0 1-2-2V4a2 2 0 0 1 2-2h8a2.4 2.4 0 0 1 1.704.706l3.588 3.588A2.4 2.4 0 0 1 20 8v12a2 2 0 0 1-2 2z"/><path d="M14 2v5a1 1 0 0 0 1 1h5"/><path d="M10 9H8"/><path d="M16 13H8"/><path d="M16 17H8"/></svg></g><text x="52" y="437" font-family="Geist, Helvetica Neue, Arial, sans-serif" font-size="14" font-weight="400" fill="#90a1b9" xml:space="preserve">Templates de documents</text></g><g id="Rangée · Stérilisation"><g id="Icon · flask-conical"><svg xmlns="http://www.w3.org/2000/svg" width="16" height="16" viewBox="0 0 24 24" fill="none" stroke="#90a1b9" stroke-width="2" stroke-linecap="round" stroke-linejoin="round" x="26" y="458"><path d="M14 2v6a2 2 0 0 0 .245.96l5.51 10.08A2 2 0 0 1 18 22H6a2 2 0 0 1-1.755-2.96l5.51-10.08A2 2 0 0 0 10 8V2"/><path d="M6.453 15h11.094"/><path d="M8.5 2h7"/></svg></g><text x="52" y="471" font-family="Geist, Helvetica Neue, Arial, sans-serif" font-size="14" font-weight="400" fill="#90a1b9" xml:space="preserve">Stérilisation</text></g><g id="Rangée · Comptes bancaires"><g id="Icon · landmark"><svg xmlns="http://www.w3.org/2000/svg" width="16" height="16" viewBox="0 0 24 24" fill="none" stroke="#90a1b9" stroke-width="2" stroke-linecap="round" stroke-linejoin="round" x="26" y="492"><path d="M10 18v-7"/><path d="M11.119 2.205a2 2 0 0 1 1.762 0l7.84 3.846A.5.5 0 0 1 20.5 7h-17a.5.5 0 0 1-.22-.949z"/><path d="M14 18v-7"/><path d="M18 18v-7"/><path d="M3 22h18"/><path d="M6 18v-7"/></svg></g><text x="52" y="505" font-family="Geist, Helvetica Neue, Arial, sans-serif" font-size="14" font-weight="400" fill="#90a1b9" xml:space="preserve">Comptes bancaires</text></g></g><g id="Bloc · Utilisateurs du cabinet 3"><g id="Rangée · Utilisateurs du cabinet"><g id="Bloc · Utilisateurs du cabinet 4"><text x="296" y="168.5" font-family="Geist, Helvetica Neue, Arial, sans-serif" font-size="24" font-weight="600" letter-spacing="-0.6" fill="#0f172b" xml:space="preserve">Utilisateurs du cabinet</text><text x="296" y="195" font-family="Geist, Helvetica Neue, Arial, sans-serif" font-size="14" font-weight="400" fill="#62748e" xml:space="preserve">Gérez les accès de vos collaborateurs à Oralys, leurs rôles et leur cycle de vie.</text></g><g id="Button · Ajouter un utilisateur"><rect x="1218.28" y="144" width="181.72" height="32" rx="10" fill="#171717" id="Fond"/><g id="Icon · plus"><svg xmlns="http://www.w3.org/2000/svg" width="16" height="16" viewBox="0 0 24 24" fill="none" stroke="#fafafa" stroke-width="2" stroke-linecap="round" stroke-linejoin="round" x="1229.28" y="152"><path d="M5 12h14"/><path d="M12 5v14"/></svg></g><text x="1251.28" y="165" font-family="Geist, Helvetica Neue, Arial, sans-serif" font-size="14" font-weight="500" fill="#fafafa" xml:space="preserve">Ajouter un utilisateur</text></g></g><g id="Rangée · Tous14"><g id="Actions · Tous14"><g id="Button · Tous14"><rect x="296" y="226" width="68.68" height="28" rx="8" fill="#fce7f3" id="Fond"/><text x="306" y="245" font-family="Geist, Helvetica Neue, Arial, sans-serif" font-size="14" font-weight="500" fill="#861043" xml:space="preserve">Tous</text><text x="342.5" y="244.75" font-family="Geist, Helvetica Neue, Arial, sans-serif" font-size="12" font-weight="500" fill="#90a1b9" xml:space="preserve">14</text></g><g id="Button · Actifs11"><text x="378.68" y="245" font-family="Geist, Helvetica Neue, Arial, sans-serif" font-size="14" font-weight="400" fill="#314158" xml:space="preserve">Actifs</text><text x="421.23" y="244.75" font-family="Geist, Helvetica Neue, Arial, sans-serif" font-size="12" font-weight="400" fill="#90a1b9" xml:space="preserve">11</text></g><g id="Button · En attente1"><text x="453.97" y="245" font-family="Geist, Helvetica Neue, Arial, sans-serif" font-size="14" font-weight="400" fill="#314158" xml:space="preserve">En attente</text><text x="524.95" y="244.75" font-family="Geist, Helvetica Neue, Arial, sans-serif" font-size="12" font-weight="400" fill="#90a1b9" xml:space="preserve">1</text></g><g id="Button · Archivés2"><text x="553.55" y="245" font-family="Geist, Helvetica Neue, Arial, sans-serif" font-size="14" font-weight="400" fill="#314158" xml:space="preserve">Archivés</text><text x="614.34" y="244.75" font-family="Geist, Helvetica Neue, Arial, sans-serif" font-size="12" font-weight="400" fill="#90a1b9" xml:space="preserve">2</text></g></g><g id="Bloc 3"><g id="Icon · search"><svg xmlns="http://www.w3.org/2000/svg" width="16" height="16" viewBox="0 0 24 24" fill="none" stroke="#90a1b9" stroke-width="2" stroke-linecap="round" stroke-linejoin="round" x="1154" y="232"><path d="m21 21-4.34-4.34"/><circle cx="11" cy="11" r="8"/></svg></g><g id="Input"><rect x="1144.5" y="224.5" width="255" height="31" rx="9.5" fill="none" stroke="#e5e5e5" stroke-width="1" id="Bordure"/><text x="1177" y="245" font-family="Geist, Helvetica Neue, Arial, sans-serif" font-size="14" font-weight="400" fill="#94a3b8">Rechercher nom ou email</text></g></g></g><g id="Tableau"><g id="Ligne · UTILISATEUR RÔLE(S) ENVIRONNEMENT PAR DÉ"><rect x="296" y="319" width="1104" height="1" fill="#e5e5e5" id="Bordure basse"/><text x="304" y="303.5" font-family="Geist, Helvetica Neue, Arial, sans-serif" font-size="12" font-weight="500" letter-spacing="0.3" fill="#62748e" xml:space="preserve">UTILISATEUR</text><text x="543.99" y="303.5" font-family="Geist, Helvetica Neue, Arial, sans-serif" font-size="12" font-weight="500" letter-spacing="0.3" fill="#62748e" xml:space="preserve">RÔLE(S)</text><text x="919.9" y="303.5" font-family="Geist, Helvetica Neue, Arial, sans-serif" font-size="12" font-weight="500" letter-spacing="0.3" fill="#62748e" xml:space="preserve">ENVIRONNEMENT PAR DÉFAUT</text><text x="1215.02" y="303.5" font-family="Geist, Helvetica Neue, Arial, sans-serif" font-size="12" font-weight="500" letter-spacing="0.3" fill="#62748e" xml:space="preserve">STATUT</text></g><g id="table body · Karima Benali"><g id="Ligne · Karima Benali"><rect x="296" y="380" width="1104" height="1" fill="#e5e5e5" id="Bordure basse"/><g id="Cellule · Karima Benali"><text x="304" y="347.5" font-family="Geist, Helvetica Neue, Arial, sans-serif" font-size="14" font-weight="500" fill="#0f172b" xml:space="preserve">Karima Benali</text><text x="304" y="364.25" font-family="Geist, Helvetica Neue, Arial, sans-serif" font-size="12" font-weight="400" fill="#62748e" xml:space="preserve">karima.benali@oralpes.fr</text></g><g id="Badge · Comptable"><rect x="543.99" y="340.5" width="78.21" height="20" rx="8" fill="#f1f5f9" id="Fond"/><text x="552.99" y="354.25" font-family="Geist, Helvetica Neue, Arial, sans-serif" font-size="12" font-weight="400" fill="#314158" xml:space="preserve">Comptable</text></g><text x="919.9" y="355.5" font-family="Geist, Helvetica Neue, Arial, sans-serif" font-size="14" font-weight="400" fill="#314158" xml:space="preserve">-</text><g id="Badge · ACTIF"><rect x="1215.02" y="340.5" width="49.99" height="20" rx="8" fill="#ecfdf5" id="Fond"/><rect x="1215.52" y="341" width="48.99" height="19" rx="7.5" fill="none" stroke="#a4f4cf" stroke-width="1" id="Bordure"/><text x="1224.02" y="354.23" font-family="Geist, Helvetica Neue, Arial, sans-serif" font-size="10.88" font-weight="600" letter-spacing="0.27" fill="#007a55" xml:space="preserve">ACTIF</text></g><g id="Icon · ellipsis"><svg xmlns="http://www.w3.org/2000/svg" width="16" height="16" viewBox="0 0 24 24" fill="none" stroke="#0f172b" stroke-width="2" stroke-linecap="round" stroke-linejoin="round" x="1370" y="342.5"><circle cx="12" cy="12" r="1"/><circle cx="19" cy="12" r="1"/><circle cx="5" cy="12" r="1"/></svg></g></g><g id="Ligne · Paul Dray"><rect x="296" y="441" width="1104" height="1" fill="#e5e5e5" id="Bordure basse"/><g id="Cellule · Paul Dray"><text x="304" y="408.5" font-family="Geist, Helvetica Neue, Arial, sans-serif" font-size="14" font-weight="500" fill="#0f172b" xml:space="preserve">Paul Dray</text><text x="304" y="425.25" font-family="Geist, Helvetica Neue, Arial, sans-serif" font-size="12" font-weight="400" fill="#62748e" xml:space="preserve">paul.dray@oralpes.fr</text></g><g id="Badge · Praticien"><rect x="543.99" y="401.5" width="65.91" height="20" rx="8" fill="#f1f5f9" id="Fond"/><text x="552.99" y="415.25" font-family="Geist, Helvetica Neue, Arial, sans-serif" font-size="12" font-weight="400" fill="#314158" xml:space="preserve">Praticien</text></g><text x="919.9" y="416.5" font-family="Geist, Helvetica Neue, Arial, sans-serif" font-size="14" font-weight="400" fill="#314158" xml:space="preserve">Paul Dray</text><g id="Badge · ACTIF 2"><rect x="1215.02" y="401.5" width="49.99" height="20" rx="8" fill="#ecfdf5" id="Fond"/><rect x="1215.52" y="402" width="48.99" height="19" rx="7.5" fill="none" stroke="#a4f4cf" stroke-width="1" id="Bordure"/><text x="1224.02" y="415.23" font-family="Geist, Helvetica Neue, Arial, sans-serif" font-size="10.88" font-weight="600" letter-spacing="0.27" fill="#007a55" xml:space="preserve">ACTIF</text></g><g id="Icon · ellipsis"><svg xmlns="http://www.w3.org/2000/svg" width="16" height="16" viewBox="0 0 24 24" fill="none" stroke="#0f172b" stroke-width="2" stroke-linecap="round" stroke-linejoin="round" x="1370" y="403.5"><circle cx="12" cy="12" r="1"/><circle cx="19" cy="12" r="1"/><circle cx="5" cy="12" r="1"/></svg></g></g><g id="Ligne · Julie Dubois"><rect x="296" y="442" width="1104" height="61" fill="#f5f5f5" fill-opacity="0.502" id="Fond"/><rect x="296" y="502" width="1104" height="1" fill="#e5e5e5" id="Bordure basse"/><g id="Cellule · Julie Dubois"><text x="304" y="469.5" font-family="Geist, Helvetica Neue, Arial, sans-serif" font-size="14" font-weight="500" fill="#0f172b" xml:space="preserve">Julie Dubois</text><text x="304" y="486.25" font-family="Geist, Helvetica Neue, Arial, sans-serif" font-size="12" font-weight="400" fill="#62748e" xml:space="preserve">julie.dubois@oralpes.fr</text></g><g id="Badge · Secrétaire"><rect x="543.99" y="462.5" width="74.23" height="20" rx="8" fill="#f1f5f9" id="Fond"/><text x="552.99" y="476.25" font-family="Geist, Helvetica Neue, Arial, sans-serif" font-size="12" font-weight="400" fill="#314158" xml:space="preserve">Secrétaire</text></g><text x="919.9" y="477.5" font-family="Geist, Helvetica Neue, Arial, sans-serif" font-size="14" font-weight="400" fill="#314158" xml:space="preserve">-</text><g id="Pile · EN ATTENTE"><g id="Badge · EN ATTENTE"><rect x="1215.02" y="453.5" width="84.48" height="20" rx="8" fill="#fffbeb" id="Fond"/><rect x="1215.52" y="454" width="83.48" height="19" rx="7.5" fill="none" stroke="#fee685" stroke-width="1" id="Bordure"/><text x="1224.02" y="467.23" font-family="Geist, Helvetica Neue, Arial, sans-serif" font-size="10.88" font-weight="600" letter-spacing="0.27" fill="#bb4d00" xml:space="preserve">EN ATTENTE</text></g><text x="1215.02" y="487.5" font-family="Geist, Helvetica Neue, Arial, sans-serif" font-size="11.2" font-weight="400" fill="#90a1b9" xml:space="preserve">Invité le 10 sept.</text></g><g id="Menu déroulant · Actions pour Julie Dubois"><rect x="1364" y="458.5" width="28" height="28" rx="8" fill="#f5f5f5" id="Fond"/><g id="Icon · ellipsis"><svg xmlns="http://www.w3.org/2000/svg" width="16" height="16" viewBox="0 0 24 24" fill="none" stroke="#0a0a0a" stroke-width="2" stroke-linecap="round" stroke-linejoin="round" x="1370" y="464.5"><circle cx="12" cy="12" r="1"/><circle cx="19" cy="12" r="1"/><circle cx="5" cy="12" r="1"/></svg></g></g></g><g id="Ligne · Thomas Dupont"><rect x="296" y="563" width="1104" height="1" fill="#e5e5e5" id="Bordure basse"/><g id="Cellule · Thomas Dupont"><text x="304" y="530.5" font-family="Geist, Helvetica Neue, Arial, sans-serif" font-size="14" font-weight="500" fill="#0f172b" xml:space="preserve">Thomas Dupont</text><text x="304" y="547.25" font-family="Geist, Helvetica Neue, Arial, sans-serif" font-size="12" font-weight="400" fill="#62748e" xml:space="preserve">thomas.dupont@oralpes.fr</text></g><g id="Badge · Assistant dentaire"><rect x="543.99" y="523.5" width="117.1" height="20" rx="8" fill="#f1f5f9" id="Fond"/><text x="552.99" y="537.25" font-family="Geist, Helvetica Neue, Arial, sans-serif" font-size="12" font-weight="400" fill="#314158" xml:space="preserve">Assistant dentaire</text></g><text x="919.9" y="538.5" font-family="Geist, Helvetica Neue, Arial, sans-serif" font-size="14" font-weight="400" fill="#314158" xml:space="preserve">Sophie Martin</text><g id="Badge · ACTIF 3"><rect x="1215.02" y="523.5" width="49.99" height="20" rx="8" fill="#ecfdf5" id="Fond"/><rect x="1215.52" y="524" width="48.99" height="19" rx="7.5" fill="none" stroke="#a4f4cf" stroke-width="1" id="Bordure"/><text x="1224.02" y="537.23" font-family="Geist, Helvetica Neue, Arial, sans-serif" font-size="10.88" font-weight="600" letter-spacing="0.27" fill="#007a55" xml:space="preserve">ACTIF</text></g><g id="Icon · ellipsis"><svg xmlns="http://www.w3.org/2000/svg" width="16" height="16" viewBox="0 0 24 24" fill="none" stroke="#0f172b" stroke-width="2" stroke-linecap="round" stroke-linejoin="round" x="1370" y="525.5"><circle cx="12" cy="12" r="1"/><circle cx="19" cy="12" r="1"/><circle cx="5" cy="12" r="1"/></svg></g></g><g id="Ligne · Léa Garnier"><rect x="296" y="624" width="1104" height="1" fill="#e5e5e5" id="Bordure basse"/><g id="Cellule · Léa Garnier"><text x="304" y="591.5" font-family="Geist, Helvetica Neue, Arial, sans-serif" font-size="14" font-weight="500" fill="#0f172b" xml:space="preserve">Léa Garnier</text><text x="304" y="608.25" font-family="Geist, Helvetica Neue, Arial, sans-serif" font-size="12" font-weight="400" fill="#62748e" xml:space="preserve">lea.garnier@oralpes.fr</text></g><g id="Badge · Assistant dentaire 2"><rect x="543.99" y="584.5" width="117.1" height="20" rx="8" fill="#f1f5f9" id="Fond"/><text x="552.99" y="598.25" font-family="Geist, Helvetica Neue, Arial, sans-serif" font-size="12" font-weight="400" fill="#314158" xml:space="preserve">Assistant dentaire</text></g><text x="919.9" y="599.5" font-family="Geist, Helvetica Neue, Arial, sans-serif" font-size="14" font-weight="400" fill="#314158" xml:space="preserve">Flore Perche</text><g id="Badge · ACTIF 4"><rect x="1215.02" y="584.5" width="49.99" height="20" rx="8" fill="#ecfdf5" id="Fond"/><rect x="1215.52" y="585" width="48.99" height="19" rx="7.5" fill="none" stroke="#a4f4cf" stroke-width="1" id="Bordure"/><text x="1224.02" y="598.23" font-family="Geist, Helvetica Neue, Arial, sans-serif" font-size="10.88" font-weight="600" letter-spacing="0.27" fill="#007a55" xml:space="preserve">ACTIF</text></g><g id="Icon · ellipsis"><svg xmlns="http://www.w3.org/2000/svg" width="16" height="16" viewBox="0 0 24 24" fill="none" stroke="#0f172b" stroke-width="2" stroke-linecap="round" stroke-linejoin="round" x="1370" y="586.5"><circle cx="12" cy="12" r="1"/><circle cx="19" cy="12" r="1"/><circle cx="5" cy="12" r="1"/></svg></g></g><g id="Ligne · Delphine Girard"><rect x="296" y="685" width="1104" height="1" fill="#e5e5e5" id="Bordure basse"/><g id="Cellule · Delphine Girard"><text x="304" y="652.5" font-family="Geist, Helvetica Neue, Arial, sans-serif" font-size="14" font-weight="500" fill="#0f172b" xml:space="preserve">Delphine Girard</text><text x="304" y="669.25" font-family="Geist, Helvetica Neue, Arial, sans-serif" font-size="12" font-weight="400" fill="#62748e" xml:space="preserve">delphine.girard@oralpes.fr</text></g><g id="Badge · Gestionnaire"><rect x="543.99" y="645.5" width="86.99" height="20" rx="8" fill="#f1f5f9" id="Fond"/><text x="552.99" y="659.25" font-family="Geist, Helvetica Neue, Arial, sans-serif" font-size="12" font-weight="400" fill="#314158" xml:space="preserve">Gestionnaire</text></g><text x="919.9" y="660.5" font-family="Geist, Helvetica Neue, Arial, sans-serif" font-size="14" font-weight="400" fill="#314158" xml:space="preserve">-</text><g id="Badge · ACTIF 5"><rect x="1215.02" y="645.5" width="49.99" height="20" rx="8" fill="#ecfdf5" id="Fond"/><rect x="1215.52" y="646" width="48.99" height="19" rx="7.5" fill="none" stroke="#a4f4cf" stroke-width="1" id="Bordure"/><text x="1224.02" y="659.23" font-family="Geist, Helvetica Neue, Arial, sans-serif" font-size="10.88" font-weight="600" letter-spacing="0.27" fill="#007a55" xml:space="preserve">ACTIF</text></g><g id="Icon · ellipsis"><svg xmlns="http://www.w3.org/2000/svg" width="16" height="16" viewBox="0 0 24 24" fill="none" stroke="#0f172b" stroke-width="2" stroke-linecap="round" stroke-linejoin="round" x="1370" y="647.5"><circle cx="12" cy="12" r="1"/><circle cx="19" cy="12" r="1"/><circle cx="5" cy="12" r="1"/></svg></g></g><g id="Ligne · Camille Laurent"><rect x="296" y="746" width="1104" height="1" fill="#e5e5e5" id="Bordure basse"/><g id="Cellule · Camille Laurent"><text x="304" y="713.5" font-family="Geist, Helvetica Neue, Arial, sans-serif" font-size="14" font-weight="500" fill="#0f172b" xml:space="preserve">Camille Laurent</text><text x="304" y="730.25" font-family="Geist, Helvetica Neue, Arial, sans-serif" font-size="12" font-weight="400" fill="#62748e" xml:space="preserve">camille.laurent@oralpes.fr</text></g><g id="Badge · Assistant dentaire 3"><rect x="543.99" y="706.5" width="117.1" height="20" rx="8" fill="#f1f5f9" id="Fond"/><text x="552.99" y="720.25" font-family="Geist, Helvetica Neue, Arial, sans-serif" font-size="12" font-weight="400" fill="#314158" xml:space="preserve">Assistant dentaire</text></g><text x="919.9" y="721.5" font-family="Geist, Helvetica Neue, Arial, sans-serif" font-size="14" font-weight="400" fill="#314158" xml:space="preserve">Paul Dray</text><g id="Badge · ACTIF 6"><rect x="1215.02" y="706.5" width="49.99" height="20" rx="8" fill="#ecfdf5" id="Fond"/><rect x="1215.52" y="707" width="48.99" height="19" rx="7.5" fill="none" stroke="#a4f4cf" stroke-width="1" id="Bordure"/><text x="1224.02" y="720.23" font-family="Geist, Helvetica Neue, Arial, sans-serif" font-size="10.88" font-weight="600" letter-spacing="0.27" fill="#007a55" xml:space="preserve">ACTIF</text></g><g id="Icon · ellipsis"><svg xmlns="http://www.w3.org/2000/svg" width="16" height="16" viewBox="0 0 24 24" fill="none" stroke="#0f172b" stroke-width="2" stroke-linecap="round" stroke-linejoin="round" x="1370" y="708.5"><circle cx="12" cy="12" r="1"/><circle cx="19" cy="12" r="1"/><circle cx="5" cy="12" r="1"/></svg></g></g><g id="Ligne · Manon Leroy"><rect x="296" y="807" width="1104" height="1" fill="#e5e5e5" id="Bordure basse"/><g id="Cellule · Manon Leroy"><text x="304" y="774.5" font-family="Geist, Helvetica Neue, Arial, sans-serif" font-size="14" font-weight="500" fill="#0f172b" xml:space="preserve">Manon Leroy</text><text x="304" y="791.25" font-family="Geist, Helvetica Neue, Arial, sans-serif" font-size="12" font-weight="400" fill="#62748e" xml:space="preserve">manon.leroy@oralpes.fr</text></g><g id="Badge · Aide dentaire"><rect x="543.99" y="767.5" width="90.37" height="20" rx="8" fill="#f1f5f9" id="Fond"/><text x="552.99" y="781.25" font-family="Geist, Helvetica Neue, Arial, sans-serif" font-size="12" font-weight="400" fill="#314158" xml:space="preserve">Aide dentaire</text></g><text x="919.9" y="782.5" font-family="Geist, Helvetica Neue, Arial, sans-serif" font-size="14" font-weight="400" fill="#314158" xml:space="preserve">-</text><g id="Badge · ACTIF 7"><rect x="1215.02" y="767.5" width="49.99" height="20" rx="8" fill="#ecfdf5" id="Fond"/><rect x="1215.52" y="768" width="48.99" height="19" rx="7.5" fill="none" stroke="#a4f4cf" stroke-width="1" id="Bordure"/><text x="1224.02" y="781.23" font-family="Geist, Helvetica Neue, Arial, sans-serif" font-size="10.88" font-weight="600" letter-spacing="0.27" fill="#007a55" xml:space="preserve">ACTIF</text></g><g id="Icon · ellipsis"><svg xmlns="http://www.w3.org/2000/svg" width="16" height="16" viewBox="0 0 24 24" fill="none" stroke="#0f172b" stroke-width="2" stroke-linecap="round" stroke-linejoin="round" x="1370" y="769.5"><circle cx="12" cy="12" r="1"/><circle cx="19" cy="12" r="1"/><circle cx="5" cy="12" r="1"/></svg></g></g><g id="Ligne · Sophie Martin"><rect x="296" y="868" width="1104" height="1" fill="#e5e5e5" id="Bordure basse"/><g id="Cellule · Sophie Martin 2"><text x="304" y="835.5" font-family="Geist, Helvetica Neue, Arial, sans-serif" font-size="14" font-weight="500" fill="#0f172b" xml:space="preserve">Sophie Martin</text><text x="304" y="852.25" font-family="Geist, Helvetica Neue, Arial, sans-serif" font-size="12" font-weight="400" fill="#62748e" xml:space="preserve">sophie.martin@oralpes.fr</text></g><g id="Rangée · Praticien 2"><g id="Badge · Praticien 2"><rect x="543.99" y="828.5" width="65.91" height="20" rx="8" fill="#f1f5f9" id="Fond"/><text x="552.99" y="842.25" font-family="Geist, Helvetica Neue, Arial, sans-serif" font-size="12" font-weight="400" fill="#314158" xml:space="preserve">Praticien</text></g><g id="Badge · Gestionnaire 2"><rect x="615.9" y="828.5" width="86.99" height="20" rx="8" fill="#f1f5f9" id="Fond"/><text x="624.9" y="842.25" font-family="Geist, Helvetica Neue, Arial, sans-serif" font-size="12" font-weight="400" fill="#314158" xml:space="preserve">Gestionnaire</text></g></g><text x="919.9" y="843.5" font-family="Geist, Helvetica Neue, Arial, sans-serif" font-size="14" font-weight="400" fill="#314158" xml:space="preserve">Sophie Martin</text><g id="Badge · ACTIF 8"><rect x="1215.02" y="828.5" width="49.99" height="20" rx="8" fill="#ecfdf5" id="Fond"/><rect x="1215.52" y="829" width="48.99" height="19" rx="7.5" fill="none" stroke="#a4f4cf" stroke-width="1" id="Bordure"/><text x="1224.02" y="842.23" font-family="Geist, Helvetica Neue, Arial, sans-serif" font-size="10.88" font-weight="600" letter-spacing="0.27" fill="#007a55" xml:space="preserve">ACTIF</text></g><g id="Icon · ellipsis"><svg xmlns="http://www.w3.org/2000/svg" width="16" height="16" viewBox="0 0 24 24" fill="none" stroke="#0f172b" stroke-width="2" stroke-linecap="round" stroke-linejoin="round" x="1370" y="830.5"><circle cx="12" cy="12" r="1"/><circle cx="19" cy="12" r="1"/><circle cx="5" cy="12" r="1"/></svg></g></g><g id="Ligne · Inès Moreau"><rect x="296" y="929" width="1104" height="1" fill="#e5e5e5" id="Bordure basse"/><g id="Cellule · Inès Moreau"><text x="304" y="896.5" font-family="Geist, Helvetica Neue, Arial, sans-serif" font-size="14" font-weight="500" fill="#0f172b" xml:space="preserve">Inès Moreau</text><text x="304" y="913.25" font-family="Geist, Helvetica Neue, Arial, sans-serif" font-size="12" font-weight="400" fill="#62748e" xml:space="preserve">ines.moreau@oralpes.fr</text></g><g id="Rangée · Assistant dentaire 4"><g id="Badge · Assistant dentaire 4"><rect x="543.99" y="889.5" width="117.1" height="20" rx="8" fill="#f1f5f9" id="Fond"/><text x="552.99" y="903.25" font-family="Geist, Helvetica Neue, Arial, sans-serif" font-size="12" font-weight="400" fill="#314158" xml:space="preserve">Assistant dentaire</text></g><g id="Badge · Resp. stérilisation"><rect x="667.09" y="889.5" width="114.47" height="20" rx="8" fill="#f1f5f9" id="Fond"/><text x="676.09" y="903.25" font-family="Geist, Helvetica Neue, Arial, sans-serif" font-size="12" font-weight="400" fill="#314158" xml:space="preserve">Resp. stérilisation</text></g></g><text x="919.9" y="904.5" font-family="Geist, Helvetica Neue, Arial, sans-serif" font-size="14" font-weight="400" fill="#314158" xml:space="preserve">Flore Perche</text><g id="Badge · ACTIF 9"><rect x="1215.02" y="889.5" width="49.99" height="20" rx="8" fill="#ecfdf5" id="Fond"/><rect x="1215.52" y="890" width="48.99" height="19" rx="7.5" fill="none" stroke="#a4f4cf" stroke-width="1" id="Bordure"/><text x="1224.02" y="903.23" font-family="Geist, Helvetica Neue, Arial, sans-serif" font-size="10.88" font-weight="600" letter-spacing="0.27" fill="#007a55" xml:space="preserve">ACTIF</text></g><g id="Icon · ellipsis"><svg xmlns="http://www.w3.org/2000/svg" width="16" height="16" viewBox="0 0 24 24" fill="none" stroke="#0f172b" stroke-width="2" stroke-linecap="round" stroke-linejoin="round" x="1370" y="891.5"><circle cx="12" cy="12" r="1"/><circle cx="19" cy="12" r="1"/><circle cx="5" cy="12" r="1"/></svg></g></g><g id="Ligne · Flore Perche"><rect x="296" y="990" width="1104" height="1" fill="#e5e5e5" id="Bordure basse"/><g id="Cellule · Flore Perche 3"><text x="304" y="957.5" font-family="Geist, Helvetica Neue, Arial, sans-serif" font-size="14" font-weight="500" fill="#0f172b" xml:space="preserve">Flore Perche</text><text x="304" y="974.25" font-family="Geist, Helvetica Neue, Arial, sans-serif" font-size="12" font-weight="400" fill="#62748e" xml:space="preserve">flore.perche@oralpes.fr</text></g><g id="Badge · Praticien 3"><rect x="543.99" y="950.5" width="65.91" height="20" rx="8" fill="#f1f5f9" id="Fond"/><text x="552.99" y="964.25" font-family="Geist, Helvetica Neue, Arial, sans-serif" font-size="12" font-weight="400" fill="#314158" xml:space="preserve">Praticien</text></g><text x="919.9" y="965.5" font-family="Geist, Helvetica Neue, Arial, sans-serif" font-size="14" font-weight="400" fill="#314158" xml:space="preserve">Flore Perche</text><g id="Badge · ACTIF 10"><rect x="1215.02" y="950.5" width="49.99" height="20" rx="8" fill="#ecfdf5" id="Fond"/><rect x="1215.52" y="951" width="48.99" height="19" rx="7.5" fill="none" stroke="#a4f4cf" stroke-width="1" id="Bordure"/><text x="1224.02" y="964.23" font-family="Geist, Helvetica Neue, Arial, sans-serif" font-size="10.88" font-weight="600" letter-spacing="0.27" fill="#007a55" xml:space="preserve">ACTIF</text></g><g id="Icon · ellipsis"><svg xmlns="http://www.w3.org/2000/svg" width="16" height="16" viewBox="0 0 24 24" fill="none" stroke="#0f172b" stroke-width="2" stroke-linecap="round" stroke-linejoin="round" x="1370" y="952.5"><circle cx="12" cy="12" r="1"/><circle cx="19" cy="12" r="1"/><circle cx="5" cy="12" r="1"/></svg></g></g><g id="Ligne · Nathalie Roux"><rect x="296" y="1051" width="1104" height="1" fill="#e5e5e5" id="Bordure basse"/><g id="Cellule · Nathalie Roux"><text x="304" y="1018.5" font-family="Geist, Helvetica Neue, Arial, sans-serif" font-size="14" font-weight="500" fill="#0f172b" xml:space="preserve">Nathalie Roux</text><text x="304" y="1035.25" font-family="Geist, Helvetica Neue, Arial, sans-serif" font-size="12" font-weight="400" fill="#62748e" xml:space="preserve">nathalie.roux@oralpes.fr</text></g><g id="Badge · Secrétaire 2"><rect x="543.99" y="1011.5" width="74.23" height="20" rx="8" fill="#f1f5f9" id="Fond"/><text x="552.99" y="1025.25" font-family="Geist, Helvetica Neue, Arial, sans-serif" font-size="12" font-weight="400" fill="#314158" xml:space="preserve">Secrétaire</text></g><text x="919.9" y="1026.5" font-family="Geist, Helvetica Neue, Arial, sans-serif" font-size="14" font-weight="400" fill="#314158" xml:space="preserve">-</text><g id="Badge · ACTIF 11"><rect x="1215.02" y="1011.5" width="49.99" height="20" rx="8" fill="#ecfdf5" id="Fond"/><rect x="1215.52" y="1012" width="48.99" height="19" rx="7.5" fill="none" stroke="#a4f4cf" stroke-width="1" id="Bordure"/><text x="1224.02" y="1025.23" font-family="Geist, Helvetica Neue, Arial, sans-serif" font-size="10.88" font-weight="600" letter-spacing="0.27" fill="#007a55" xml:space="preserve">ACTIF</text></g><g id="Icon · ellipsis"><svg xmlns="http://www.w3.org/2000/svg" width="16" height="16" viewBox="0 0 24 24" fill="none" stroke="#0f172b" stroke-width="2" stroke-linecap="round" stroke-linejoin="round" x="1370" y="1013.5"><circle cx="12" cy="12" r="1"/><circle cx="19" cy="12" r="1"/><circle cx="5" cy="12" r="1"/></svg></g></g><g id="Ligne · Michel Fontaine"><rect x="296" y="1112" width="1104" height="1" fill="#e5e5e5" id="Bordure basse"/><g id="Cellule · Michel Fontaine"><text x="304" y="1079.5" font-family="Geist, Helvetica Neue, Arial, sans-serif" font-size="14" font-weight="500" fill="#62748e" xml:space="preserve">Michel Fontaine</text><text x="304" y="1096.25" font-family="Geist, Helvetica Neue, Arial, sans-serif" font-size="12" font-weight="400" fill="#62748e" xml:space="preserve">michel.fontaine@oralpes.fr</text></g><g id="Badge · Praticien 4"><rect x="543.99" y="1072.5" width="65.91" height="20" rx="8" fill="#f1f5f9" id="Fond"/><text x="552.99" y="1086.25" font-family="Geist, Helvetica Neue, Arial, sans-serif" font-size="12" font-weight="400" fill="#314158" xml:space="preserve">Praticien</text></g><text x="919.9" y="1087.5" font-family="Geist, Helvetica Neue, Arial, sans-serif" font-size="14" font-weight="400" fill="#314158" xml:space="preserve">Michel Fontaine</text><g id="Badge · ARCHIVÉ"><rect x="1215.02" y="1072.5" width="67.17" height="20" rx="8" fill="#f1f5f9" id="Fond"/><rect x="1215.52" y="1073" width="66.17" height="19" rx="7.5" fill="none" stroke="#e2e8f0" stroke-width="1" id="Bordure"/><text x="1224.02" y="1086.23" font-family="Geist, Helvetica Neue, Arial, sans-serif" font-size="10.88" font-weight="600" letter-spacing="0.27" fill="#62748e" xml:space="preserve">ARCHIVÉ</text></g><g id="Icon · ellipsis"><svg xmlns="http://www.w3.org/2000/svg" width="16" height="16" viewBox="0 0 24 24" fill="none" stroke="#90a1b9" stroke-width="2" stroke-linecap="round" stroke-linejoin="round" x="1370" y="1074.5"><circle cx="12" cy="12" r="1"/><circle cx="19" cy="12" r="1"/><circle cx="5" cy="12" r="1"/></svg></g></g><g id="Ligne · Hugo Petit"><g id="Cellule · Hugo Petit"><text x="304" y="1140.5" font-family="Geist, Helvetica Neue, Arial, sans-serif" font-size="14" font-weight="500" fill="#62748e" xml:space="preserve">Hugo Petit</text><text x="304" y="1157.25" font-family="Geist, Helvetica Neue, Arial, sans-serif" font-size="12" font-weight="400" fill="#62748e" xml:space="preserve">hugo.petit@oralpes.fr</text></g><g id="Rangée · Aide dentaire 2"><g id="Badge · Aide dentaire 2"><rect x="543.99" y="1133.5" width="90.37" height="20" rx="8" fill="#f1f5f9" id="Fond"/><text x="552.99" y="1147.25" font-family="Geist, Helvetica Neue, Arial, sans-serif" font-size="12" font-weight="400" fill="#314158" xml:space="preserve">Aide dentaire</text></g><g id="Badge · Resp. stérilisation 2"><rect x="640.36" y="1133.5" width="114.47" height="20" rx="8" fill="#f1f5f9" id="Fond"/><text x="649.36" y="1147.25" font-family="Geist, Helvetica Neue, Arial, sans-serif" font-size="12" font-weight="400" fill="#314158" xml:space="preserve">Resp. stérilisation</text></g></g><text x="919.9" y="1148.5" font-family="Geist, Helvetica Neue, Arial, sans-serif" font-size="14" font-weight="400" fill="#314158" xml:space="preserve">-</text><g id="Badge · ARCHIVÉ 2"><rect x="1215.02" y="1133.5" width="67.17" height="20" rx="8" fill="#f1f5f9" id="Fond"/><rect x="1215.52" y="1134" width="66.17" height="19" rx="7.5" fill="none" stroke="#e2e8f0" stroke-width="1" id="Bordure"/><text x="1224.02" y="1147.23" font-family="Geist, Helvetica Neue, Arial, sans-serif" font-size="10.88" font-weight="600" letter-spacing="0.27" fill="#62748e" xml:space="preserve">ARCHIVÉ</text></g><g id="Icon · ellipsis"><svg xmlns="http://www.w3.org/2000/svg" width="16" height="16" viewBox="0 0 24 24" fill="none" stroke="#90a1b9" stroke-width="2" stroke-linecap="round" stroke-linejoin="round" x="1370" y="1135.5"><circle cx="12" cy="12" r="1"/><circle cx="19" cy="12" r="1"/><circle cx="5" cy="12" r="1"/></svg></g></g></g></g><text x="296" y="1209.25" font-family="Geist, Helvetica Neue, Arial, sans-serif" font-size="12" font-weight="400" fill="#90a1b9" xml:space="preserve">La suppression définitive n'est proposée qu'aux comptes archivés ou jamais activés, pour ne pas effacer par erreur la traçabilité d'un compte actif.</text></g></g></g><g id="Menu · Renvoyer le mail"><rect x="1168" y="490.5" width="224" height="194" rx="10" fill="#ffffff" id="Fond"/><rect x="1167.5" y="490" width="225" height="195" rx="10.5" fill="none" stroke="#0a0a0a" stroke-opacity="0.102" stroke-width="1" id="Bordure"/><g id="Item de menu · Renvoyer le mail"><g id="Icon · mail"><svg xmlns="http://www.w3.org/2000/svg" width="16" height="16" viewBox="0 0 24 24" fill="none" stroke="#0a0a0a" stroke-width="2" stroke-linecap="round" stroke-linejoin="round" x="1178" y="500.5"><path d="m22 7-8.991 5.727a2 2 0 0 1-2.009 0L2 7"/><rect x="2" y="4" width="20" height="16" rx="2"/></svg></g><text x="1200" y="513.5" font-family="Geist, Helvetica Neue, Arial, sans-serif" font-size="14" font-weight="400" fill="#0a0a0a" xml:space="preserve">Renvoyer le mail</text></g><g id="Item de menu · Voir l'email d'invitation"><g id="Icon · eye"><svg xmlns="http://www.w3.org/2000/svg" width="16" height="16" viewBox="0 0 24 24" fill="none" stroke="#0a0a0a" stroke-width="2" stroke-linecap="round" stroke-linejoin="round" x="1178" y="528.5"><path d="M2.062 12.348a1 1 0 0 1 0-.696 10.75 10.75 0 0 1 19.876 0 1 1 0 0 1 0 .696 10.75 10.75 0 0 1-19.876 0"/><circle cx="12" cy="12" r="3"/></svg></g><text x="1200" y="541.5" font-family="Geist, Helvetica Neue, Arial, sans-serif" font-size="14" font-weight="400" fill="#0a0a0a" xml:space="preserve">Voir l'email d'invitation</text></g><g id="Item de menu · Simuler l'activation"><g id="Icon · mail-check"><svg xmlns="http://www.w3.org/2000/svg" width="16" height="16" viewBox="0 0 24 24" fill="none" stroke="#0a0a0a" stroke-width="2" stroke-linecap="round" stroke-linejoin="round" x="1178" y="556.5"><path d="M22 13V6a2 2 0 0 0-2-2H4a2 2 0 0 0-2 2v12c0 1.1.9 2 2 2h8"/><path d="m22 7-8.97 5.7a1.94 1.94 0 0 1-2.06 0L2 7"/><path d="m16 19 2 2 4-4"/></svg></g><text x="1200" y="569.5" font-family="Geist, Helvetica Neue, Arial, sans-serif" font-size="14" font-weight="400" fill="#0a0a0a" xml:space="preserve">Simuler l'activation</text></g><g id="Séparateur"><rect x="1168" y="582.5" width="224" height="1" fill="#e5e5e5" id="Fond"/></g><g id="Item de menu · Modifier"><g id="Icon · pencil"><svg xmlns="http://www.w3.org/2000/svg" width="16" height="16" viewBox="0 0 24 24" fill="none" stroke="#0a0a0a" stroke-width="2" stroke-linecap="round" stroke-linejoin="round" x="1178" y="593.5"><path d="M21.174 6.812a1 1 0 0 0-3.986-3.987L3.842 16.174a2 2 0 0 0-.5.83l-1.321 4.352a.5.5 0 0 0 .623.622l4.353-1.32a2 2 0 0 0 .83-.497z"/><path d="m15 5 4 4"/></svg></g><text x="1200" y="606.5" font-family="Geist, Helvetica Neue, Arial, sans-serif" font-size="14" font-weight="400" fill="#0a0a0a" xml:space="preserve">Modifier</text></g><g id="Item de menu · Archiver"><g id="Icon · archive"><svg xmlns="http://www.w3.org/2000/svg" width="16" height="16" viewBox="0 0 24 24" fill="none" stroke="#0a0a0a" stroke-width="2" stroke-linecap="round" stroke-linejoin="round" x="1178" y="621.5"><rect width="20" height="5" x="2" y="3" rx="1"/><path d="M4 8v11a2 2 0 0 0 2 2h12a2 2 0 0 0 2-2V8"/><path d="M10 12h4"/></svg></g><text x="1200" y="634.5" font-family="Geist, Helvetica Neue, Arial, sans-serif" font-size="14" font-weight="400" fill="#0a0a0a" xml:space="preserve">Archiver</text></g><g id="Séparateur 2"><rect x="1168" y="647.5" width="224" height="1" fill="#e5e5e5" id="Fond"/></g><g id="Item de menu · Supprimer définitivement"><g id="Icon · trash"><svg xmlns="http://www.w3.org/2000/svg" width="16" height="16" viewBox="0 0 24 24" fill="none" stroke="#e7000b" stroke-width="2" stroke-linecap="round" stroke-linejoin="round" x="1178" y="658.5"><path d="M10 11v6"/><path d="M14 11v6"/><path d="M19 6v14a2 2 0 0 1-2 2H7a2 2 0 0 1-2-2V6"/><path d="M3 6h18"/><path d="M8 6V4a2 2 0 0 1 2-2h4a2 2 0 0 1 2 2v2"/></svg></g><text x="1200" y="671.5" font-family="Geist, Helvetica Neue, Arial, sans-serif" font-size="14" font-weight="400" fill="#e7000b" xml:space="preserve">Supprimer définitivement</text></g></g></g></g></svg>