<svg xmlns="http://www.w3.org/2000/svg" width="1440" height="1168" viewBox="0 0 1440 1168" fill="none"><defs><linearGradient id="34-admin-journal-audit-degrade-1" x1="0" y1="0" x2="0" y2="1"><stop offset="0" stop-color="#fef2f8" stop-opacity="0.702"/><stop offset="1" stop-color="#ffffff"/></linearGradient></defs><g id="34 · Administration · Journal d’audit"><rect id="Fond de page" width="1440" height="1168" fill="#ffffff"/><g id="Page"><rect x="0" y="0" width="1440" height="1168" fill="#f8fafc" id="Fond"/><g id="Contenu"><rect x="0" y="0" width="1440" height="1168" fill="#ffffff" id="Fond"/><g id="Header · oralys"><rect x="0" y="0" width="1440" height="63" fill="#ffffff" id="Fond"/><rect x="0" y="60" width="1440" height="3" fill="#fda5d5" id="Bordure basse"/><g id="Grille"><g id="Rangée · oralys"><g id="Rangée · oralys 2"><g id="Icon · logo"><svg viewBox="0 0 16 24" x="24" y="17.99" width="16" height="24"><circle cx="8" cy="6.5" r="5.5" fill="#0f172b"/><circle cx="8" cy="17.5" r="5.5" fill="#0f172b"/><rect x="5.5" y="9" width="5" height="6" fill="white" rx="2.5"/></svg></g><text x="46" y="38.7" font-family="Geist, Helvetica Neue, Arial, sans-serif" font-size="25.6" font-weight="600" letter-spacing="-0.64" fill="#0f172b" xml:space="preserve">oralys</text></g><g id="Menu déroulant · Team"><rect x="128.37" y="15" width="91.17" height="30" rx="15" fill="#fdf2f8" id="Fond"/><rect x="128.87" y="15.5" width="90.17" height="29" rx="14.5" fill="none" stroke="#fccee8" stroke-width="1" id="Bordure"/><g id="Bloc"><rect x="139.37" y="26" width="8" height="8" rx="4" fill="#fb64b6" id="Fond"/></g><text x="153.37" y="35" font-family="Geist, Helvetica Neue, Arial, sans-serif" font-size="14" font-weight="500" fill="#861043" xml:space="preserve">Team</text><g id="Icon · chevron-down"><svg xmlns="http://www.w3.org/2000/svg" width="14" height="14" viewBox="0 0 24 24" fill="none" stroke="#c6005c" stroke-width="2" stroke-linecap="round" stroke-linejoin="round" x="194.54" y="23"><path d="m6 9 6 6 6-6"/></svg></g></g></g><g id="Button · Cabinet Oralpes"><text x="648.63" y="35.25" font-family="Geist, Helvetica Neue, Arial, sans-serif" font-size="16" font-weight="500" fill="#1d293d" xml:space="preserve">Cabinet Oralpes</text><g id="Icon · chevron-down"><svg xmlns="http://www.w3.org/2000/svg" width="16" height="16" viewBox="0 0 24 24" fill="none" stroke="#62748e" stroke-width="2" stroke-linecap="round" stroke-linejoin="round" x="775.37" y="22"><path d="m6 9 6 6 6-6"/></svg></g></g><g id="Actions · Changer d'utilisateur"><g id="Button · Changer d'utilisateur"><rect x="1147.25" y="16" width="164.75" height="28" rx="8" fill="#ffffff" id="Fond"/><rect x="1147.75" y="16.5" width="163.75" height="27" rx="7.5" fill="none" stroke="#e5e5e5" stroke-width="1" id="Bordure"/><g id="Icon · users"><svg xmlns="http://www.w3.org/2000/svg" width="14" height="14" viewBox="0 0 24 24" fill="none" stroke="#0f172b" stroke-width="2" stroke-linecap="round" stroke-linejoin="round" x="1158.25" y="23"><path d="M16 21v-2a4 4 0 0 0-4-4H6a4 4 0 0 0-4 4v2"/><path d="M16 3.128a4 4 0 0 1 0 7.744"/><path d="M22 21v-2a4 4 0 0 0-3-3.87"/><circle cx="9" cy="7" r="4"/></svg></g><text x="1176.25" y="34.4" font-family="Geist, Helvetica Neue, Arial, sans-serif" font-size="12.8" font-weight="500" fill="#0f172b" xml:space="preserve">Changer d'utilisateur</text></g><g id="Déclencheur · Notifications"><g id="Icon · bell"><svg xmlns="http://www.w3.org/2000/svg" width="16" height="16" viewBox="0 0 24 24" fill="none" stroke="#0f172b" stroke-width="2" stroke-linecap="round" stroke-linejoin="round" x="1326" y="22"><path d="M10.268 21a2 2 0 0 0 3.464 0"/><path d="M3.262 15.326A1 1 0 0 0 4 17h16a1 1 0 0 0 .74-1.673C19.41 13.956 18 12.499 18 8A6 6 0 0 0 6 8c0 4.499-1.411 5.956-2.738 7.326"/></svg></g><g id="Rangée · 2"><rect x="1335" y="13" width="16" height="16" rx="8" fill="#f6339a" id="Fond"/><text x="1339.91" y="24.39" font-family="Geist, Helvetica Neue, Arial, sans-serif" font-size="9.6" font-weight="600" fill="#ffffff" xml:space="preserve">2</text></g></g><g id="Menu déroulant · Menu utilisateur"><g id="Initiales · DG"><rect x="1356" y="12" width="36" height="36" rx="18" fill="#d0fae5" id="Fond"/><text x="1365.52" y="33.75" font-family="Geist, Helvetica Neue, Arial, sans-serif" font-size="12" font-weight="500" fill="#006045" xml:space="preserve">DG</text></g><g id="Icon · chevron-down"><svg xmlns="http://www.w3.org/2000/svg" width="16" height="16" viewBox="0 0 24 24" fill="none" stroke="#62748e" stroke-width="2" stroke-linecap="round" stroke-linejoin="round" x="1396" y="22"><path d="m6 9 6 6 6-6"/></svg></g></g></g></g></g><g id="Navigation · Tableau de bord"><rect x="0" y="63" width="1440" height="45" fill="url(#34-admin-journal-audit-degrade-1)" id="Fond"/><rect x="0" y="107" width="1440" height="1" fill="#e2e8f0" id="Bordure basse"/><g id="Liste · Tableau de bord"><text x="36" y="90" font-family="Geist, Helvetica Neue, Arial, sans-serif" font-size="14" font-weight="500" fill="#62748e" xml:space="preserve">Tableau de bord</text><text x="168.3" y="90" font-family="Geist, Helvetica Neue, Arial, sans-serif" font-size="14" font-weight="500" fill="#62748e" xml:space="preserve">Planning</text><text x="253.81" y="90" font-family="Geist, Helvetica Neue, Arial, sans-serif" font-size="14" font-weight="500" fill="#62748e" xml:space="preserve">Remplacements</text><text x="387.96" y="90" font-family="Geist, Helvetica Neue, Arial, sans-serif" font-size="14" font-weight="500" fill="#62748e" xml:space="preserve">Praticiens &amp; équipes</text><text x="548.8" y="90" font-family="Geist, Helvetica Neue, Arial, sans-serif" font-size="14" font-weight="500" fill="#62748e" xml:space="preserve">Aperçu Soins</text><g id="Lien · Administration"><text x="663.45" y="90" font-family="Geist, Helvetica Neue, Arial, sans-serif" font-size="14" font-weight="500" fill="#0f172b" xml:space="preserve">Administration</text><g id="Bloc 2"><rect x="663.45" y="106" width="96.06" height="2" rx="1" fill="#fb64b6" id="Fond"/></g></g></g></g><g id="Rangée · Fiche du cabinet"><g id="Liste · Fiche du cabinet"><g id="Rangée · Fiche du cabinet 2"><g id="Icon · building-complex"><svg xmlns="http://www.w3.org/2000/svg" width="16" height="16" viewBox="0 0 24 24" fill="none" stroke="#90a1b9" stroke-width="2" stroke-linecap="round" stroke-linejoin="round" x="26" y="148"><path d="M10 12h4"/><path d="M10 8h4"/><path d="M14 21v-3a2 2 0 0 0-4 0v3"/><path d="M6 10H4a2 2 0 0 0-2 2v7a2 2 0 0 0 2 2h16a2 2 0 0 0 2-2V9a2 2 0 0 0-2-2h-2"/><path d="M6 21V5a2 2 0 0 1 2-2h8a2 2 0 0 1 2 2v16"/></svg></g><text x="52" y="161" font-family="Geist, Helvetica Neue, Arial, sans-serif" font-size="14" font-weight="400" fill="#90a1b9" xml:space="preserve">Fiche du cabinet</text></g><g id="Lien · Équipe"><g id="Icon · users"><svg xmlns="http://www.w3.org/2000/svg" width="16" height="16" viewBox="0 0 24 24" fill="none" stroke="#62748e" stroke-width="2" stroke-linecap="round" stroke-linejoin="round" x="26" y="182"><path d="M16 21v-2a4 4 0 0 0-4-4H6a4 4 0 0 0-4 4v2"/><path d="M16 3.128a4 4 0 0 1 0 7.744"/><path d="M22 21v-2a4 4 0 0 0-3-3.87"/><circle cx="9" cy="7" r="4"/></svg></g><text x="52" y="195" font-family="Geist, Helvetica Neue, Arial, sans-serif" font-size="14" font-weight="400" fill="#314158" xml:space="preserve">Équipe</text></g><g id="Lien · Utilisateurs"><g id="Icon · user-cog"><svg xmlns="http://www.w3.org/2000/svg" width="16" height="16" viewBox="0 0 24 24" fill="none" stroke="#62748e" stroke-width="2" stroke-linecap="round" stroke-linejoin="round" x="26" y="216"><path d="M10 15H6a4 4 0 0 0-4 4v2"/><path d="m14.305 16.53.923-.382"/><path d="m15.228 13.852-.923-.383"/><path d="m16.852 12.228-.383-.923"/><path d="m16.852 17.772-.383.924"/><path d="m19.148 12.228.383-.923"/><path d="m19.53 18.696-.382-.924"/><path d="m20.772 13.852.924-.383"/><path d="m20.772 16.148.924.383"/><circle cx="18" cy="15" r="3"/><circle cx="9" cy="7" r="4"/></svg></g><text x="52" y="229" font-family="Geist, Helvetica Neue, Arial, sans-serif" font-size="14" font-weight="400" fill="#314158" xml:space="preserve">Utilisateurs</text></g><g id="Lien · Rôles &amp; droits"><g id="Icon · shield-check"><svg xmlns="http://www.w3.org/2000/svg" width="16" height="16" viewBox="0 0 24 24" fill="none" stroke="#62748e" stroke-width="2" stroke-linecap="round" stroke-linejoin="round" x="26" y="250"><path d="M20 13c0 5-3.5 7.5-7.66 8.95a1 1 0 0 1-.67-.01C7.5 20.5 4 18 4 13V6a1 1 0 0 1 1-1c2 0 4.5-1.2 6.24-2.72a1.17 1.17 0 0 1 1.52 0C14.51 3.81 17 5 19 5a1 1 0 0 1 1 1z"/><path d="m9 12 2 2 4-4"/></svg></g><text x="52" y="263" font-family="Geist, Helvetica Neue, Arial, sans-serif" font-size="14" font-weight="400" fill="#314158" xml:space="preserve">Rôles &amp; droits</text><g id="Bloc · Team"><rect x="197.88" y="251.14" width="32.12" height="13.71" rx="4" fill="#fce7f3" id="Fond"/><text x="201.88" y="261.39" font-family="Geist, Helvetica Neue, Arial, sans-serif" font-size="9.6" font-weight="500" fill="#c6005c" xml:space="preserve">Team</text></g></g><g id="Lien · Postes partagés"><g id="Icon · monitor-smartphone"><svg xmlns="http://www.w3.org/2000/svg" width="16" height="16" viewBox="0 0 24 24" fill="none" stroke="#62748e" stroke-width="2" stroke-linecap="round" stroke-linejoin="round" x="26" y="284"><path d="M18 8V6a2 2 0 0 0-2-2H4a2 2 0 0 0-2 2v7a2 2 0 0 0 2 2h8"/><path d="M10 19v-3.96 3.15"/><path d="M7 19h5"/><rect width="6" height="10" x="16" y="12" rx="2"/></svg></g><text x="52" y="297" font-family="Geist, Helvetica Neue, Arial, sans-serif" font-size="14" font-weight="400" fill="#314158" xml:space="preserve">Postes partagés</text><g id="Bloc · Team 2"><rect x="197.88" y="285.14" width="32.12" height="13.71" rx="4" fill="#fce7f3" id="Fond"/><text x="201.88" y="295.39" font-family="Geist, Helvetica Neue, Arial, sans-serif" font-size="9.6" font-weight="500" fill="#c6005c" xml:space="preserve">Team</text></g></g><g id="Lien · Journal d'audit"><rect x="16" y="310" width="224" height="32" rx="8" fill="#f1f5f9" id="Fond"/><g id="Icon · rotate-ccw-clock"><svg xmlns="http://www.w3.org/2000/svg" width="16" height="16" viewBox="0 0 24 24" fill="none" stroke="#62748e" stroke-width="2" stroke-linecap="round" stroke-linejoin="round" x="26" y="318"><path d="M3 12a9 9 0 1 0 9-9 9.75 9.75 0 0 0-6.74 2.74L3 8"/><path d="M3 3v5h5"/><path d="M12 7v5l4 2"/></svg></g><text x="52" y="331" font-family="Geist, Helvetica Neue, Arial, sans-serif" font-size="14" font-weight="500" fill="#0f172b" xml:space="preserve">Journal d'audit</text><g id="Bloc · Team 3"><rect x="197.88" y="319.14" width="32.12" height="13.71" rx="4" fill="#fce7f3" id="Fond"/><text x="201.88" y="329.39" font-family="Geist, Helvetica Neue, Arial, sans-serif" font-size="9.6" font-weight="500" fill="#c6005c" xml:space="preserve">Team</text></g></g><g id="Rangée · Actes"><g id="Icon · list"><svg xmlns="http://www.w3.org/2000/svg" width="16" height="16" viewBox="0 0 24 24" fill="none" stroke="#90a1b9" stroke-width="2" stroke-linecap="round" stroke-linejoin="round" x="26" y="352"><path d="M3 5h.01"/><path d="M3 12h.01"/><path d="M3 19h.01"/><path d="M8 5h13"/><path d="M8 12h13"/><path d="M8 19h13"/></svg></g><text x="52" y="365" font-family="Geist, Helvetica Neue, Arial, sans-serif" font-size="14" font-weight="400" fill="#90a1b9" xml:space="preserve">Actes</text></g><g id="Rangée · Motifs de consultation"><g id="Icon · calendar-days"><svg xmlns="http://www.w3.org/2000/svg" width="16" height="16" viewBox="0 0 24 24" fill="none" stroke="#90a1b9" stroke-width="2" stroke-linecap="round" stroke-linejoin="round" x="26" y="386"><path d="M8 2v3"/><path d="M16 2v3"/><rect x="3" y="3" width="18" height="18" rx="2"/><path d="M3 9h18"/><path d="M8 13h.01"/><path d="M12 13h.01"/><path d="M16 13h.01"/><path d="M8 17h.01"/><path d="M12 17h.01"/><path d="M16 17h.01"/></svg></g><text x="52" y="399" font-family="Geist, Helvetica Neue, Arial, sans-serif" font-size="14" font-weight="400" fill="#90a1b9" xml:space="preserve">Motifs de consultation</text></g><g id="Rangée · Templates de documents"><g id="Icon · file-text"><svg xmlns="http://www.w3.org/2000/svg" width="16" height="16" viewBox="0 0 24 24" fill="none" stroke="#90a1b9" stroke-width="2" stroke-linecap="round" stroke-linejoin="round" x="26" y="420"><path d="M6 22a2 2 0 0 1-2-2V4a2 2 0 0 1 2-2h8a2.4 2.4 0 0 1 1.704.706l3.588 3.588A2.4 2.4 0 0 1 20 8v12a2 2 0 0 1-2 2z"/><path d="M14 2v5a1 1 0 0 0 1 1h5"/><path d="M10 9H8"/><path d="M16 13H8"/><path d="M16 17H8"/></svg></g><text x="52" y="433" font-family="Geist, Helvetica Neue, Arial, sans-serif" font-size="14" font-weight="400" fill="#90a1b9" xml:space="preserve">Templates de documents</text></g><g id="Rangée · Stérilisation"><g id="Icon · flask-conical"><svg xmlns="http://www.w3.org/2000/svg" width="16" height="16" viewBox="0 0 24 24" fill="none" stroke="#90a1b9" stroke-width="2" stroke-linecap="round" stroke-linejoin="round" x="26" y="454"><path d="M14 2v6a2 2 0 0 0 .245.96l5.51 10.08A2 2 0 0 1 18 22H6a2 2 0 0 1-1.755-2.96l5.51-10.08A2 2 0 0 0 10 8V2"/><path d="M6.453 15h11.094"/><path d="M8.5 2h7"/></svg></g><text x="52" y="467" font-family="Geist, Helvetica Neue, Arial, sans-serif" font-size="14" font-weight="400" fill="#90a1b9" xml:space="preserve">Stérilisation</text></g><g id="Rangée · Comptes bancaires"><g id="Icon · landmark"><svg xmlns="http://www.w3.org/2000/svg" width="16" height="16" viewBox="0 0 24 24" fill="none" stroke="#90a1b9" stroke-width="2" stroke-linecap="round" stroke-linejoin="round" x="26" y="488"><path d="M10 18v-7"/><path d="M11.119 2.205a2 2 0 0 1 1.762 0l7.84 3.846A.5.5 0 0 1 20.5 7h-17a.5.5 0 0 1-.22-.949z"/><path d="M14 18v-7"/><path d="M18 18v-7"/><path d="M3 22h18"/><path d="M6 18v-7"/></svg></g><text x="52" y="501" font-family="Geist, Helvetica Neue, Arial, sans-serif" font-size="14" font-weight="400" fill="#90a1b9" xml:space="preserve">Comptes bancaires</text></g></g><g id="Bloc · Journal d'audit 3"><g id="Bloc · Journal d'audit 4"><text x="296" y="164.5" font-family="Geist, Helvetica Neue, Arial, sans-serif" font-size="24" font-weight="600" letter-spacing="-0.6" fill="#0f172b" xml:space="preserve">Journal d'audit</text><text x="296" y="191" font-family="Geist, Helvetica Neue, Arial, sans-serif" font-size="14" font-weight="400" fill="#62748e" xml:space="preserve">Qui a fait quoi, quand, et avec quel rôle au moment de l'action. Conservé même après archivage.</text></g><g id="Rangée · Tous les utilisateurs"><g id="Select · Tous les utilisateurs"><rect x="296.5" y="220.5" width="223" height="31" rx="9.5" fill="none" stroke="#e5e5e5" stroke-width="1" id="Bordure"/><text x="307" y="241" font-family="Geist, Helvetica Neue, Arial, sans-serif" font-size="14" font-weight="400" fill="#0f172b" xml:space="preserve">Tous les utilisateurs</text><g id="Icon · chevron-down"><svg xmlns="http://www.w3.org/2000/svg" width="16" height="16" viewBox="0 0 24 24" fill="none" stroke="#737373" stroke-width="2" stroke-linecap="round" stroke-linejoin="round" x="495" y="228"><path d="m6 9 6 6 6-6"/></svg></g></g><g id="Select · Tous les types d'action"><rect x="532.5" y="220.5" width="239" height="31" rx="9.5" fill="none" stroke="#e5e5e5" stroke-width="1" id="Bordure"/><text x="543" y="241" font-family="Geist, Helvetica Neue, Arial, sans-serif" font-size="14" font-weight="400" fill="#0f172b" xml:space="preserve">Tous les types d'action</text><g id="Icon · chevron-down"><svg xmlns="http://www.w3.org/2000/svg" width="16" height="16" viewBox="0 0 24 24" fill="none" stroke="#737373" stroke-width="2" stroke-linecap="round" stroke-linejoin="round" x="747" y="228"><path d="m6 9 6 6 6-6"/></svg></g></g><g id="Actions · 7 jours"><text x="794" y="241" font-family="Geist, Helvetica Neue, Arial, sans-serif" font-size="14" font-weight="400" fill="#314158" xml:space="preserve">7 jours</text><text x="860.3" y="241" font-family="Geist, Helvetica Neue, Arial, sans-serif" font-size="14" font-weight="400" fill="#314158" xml:space="preserve">30 jours</text><text x="937.13" y="241" font-family="Geist, Helvetica Neue, Arial, sans-serif" font-size="14" font-weight="400" fill="#314158" xml:space="preserve">12 mois</text><g id="Button · Tout"><rect x="999.08" y="222" width="48.5" height="28" rx="8" fill="#fce7f3" id="Fond"/><text x="1009.08" y="241" font-family="Geist, Helvetica Neue, Arial, sans-serif" font-size="14" font-weight="500" fill="#861043" xml:space="preserve">Tout</text></g></g><g id="Label · Actions sensibles uniquement"><g id="Switch"><rect x="1168.78" y="226.8" width="32" height="18.4" rx="9.2" fill="#e5e5e5" id="Fond"/><g id="switch thumb"><rect x="1169.78" y="227.99" width="16" height="16" rx="8" fill="#ffffff" id="Fond"/></g></g><text x="1208.78" y="240.99" font-family="Geist, Helvetica Neue, Arial, sans-serif" font-size="14" font-weight="400" fill="#45556c" xml:space="preserve">Actions sensibles uniquement</text></g></g><g id="Bloc · Cycle de stérilisation n°1302 lancé (aut"><rect x="296.5" y="276.5" width="1103" height="819" rx="13.5" fill="none" stroke="#e5e5e5" stroke-width="1" id="Bordure"/><g id="Liste · Cycle de stérilisation n°1302 lancé (aut"><g id="Item · Cycle de stérilisation n°1302 lancé (aut"><rect x="313" y="339" width="1070" height="1" fill="#e5e5e5" id="Bordure basse"/><g id="Rangée"><rect x="313" y="291" width="28" height="28" rx="14" fill="#fce7f3" id="Fond"/><g id="Icon · flask-conical"><svg xmlns="http://www.w3.org/2000/svg" width="14" height="14" viewBox="0 0 24 24" fill="none" stroke="#c6005c" stroke-width="2" stroke-linecap="round" stroke-linejoin="round" x="320" y="298"><path d="M14 2v6a2 2 0 0 0 .245.96l5.51 10.08A2 2 0 0 1 18 22H6a2 2 0 0 1-1.755-2.96l5.51-10.08A2 2 0 0 0 10 8V2"/><path d="M6.453 15h11.094"/><path d="M8.5 2h7"/></svg></g></g><g id="Bloc · Cycle de stérilisation n°1302 lancé (aut 2"><text x="353" y="304" font-family="Geist, Helvetica Neue, Arial, sans-serif" font-size="14" font-weight="400" fill="#0f172b" xml:space="preserve">Cycle de stérilisation n°1302 lancé (autoclave A)</text><g id="Paragraphe · 25 sept. 2026, 08:05 · Inès Moreau · en "><text x="353" y="322.75" font-family="Geist, Helvetica Neue, Arial, sans-serif" font-size="12" font-weight="400" fill="#62748e" xml:space="preserve">25 sept. 2026, 08:05 ·</text><text x="478.86" y="322.75" font-family="Geist, Helvetica Neue, Arial, sans-serif" font-size="12" font-weight="400" fill="#62748e" xml:space="preserve">Inès Moreau</text><text x="549.26" y="322.75" font-family="Geist, Helvetica Neue, Arial, sans-serif" font-size="12" font-weight="400" fill="#62748e" xml:space="preserve">· en tant que Assistant dentaire + Resp. stérilisation · Poste stérilisation</text></g></g></g><g id="Item · Arrêt maladie déclaré le jour même (25 →"><rect x="313" y="402" width="1070" height="1" fill="#e5e5e5" id="Bordure basse"/><g id="Rangée 2"><rect x="313" y="354" width="28" height="28" rx="14" fill="#f1f5f9" id="Fond"/><g id="Icon · calendar-plus"><svg xmlns="http://www.w3.org/2000/svg" width="14" height="14" viewBox="0 0 24 24" fill="none" stroke="#45556c" stroke-width="2" stroke-linecap="round" stroke-linejoin="round" x="320" y="361"><path d="M16 18h6"/><path d="M16 2v3"/><path d="M19 15v6"/><path d="M21 11.5V5a2 2 0 00-2-2H5a2 2 0 00-2 2v14a2 2 0 002 2h8.3"/><path d="M3 9h18"/><path d="M8 2v3"/></svg></g></g><g id="Bloc · Arrêt maladie déclaré le jour même (25 →"><text x="353" y="367" font-family="Geist, Helvetica Neue, Arial, sans-serif" font-size="14" font-weight="400" fill="#0f172b" xml:space="preserve">Arrêt maladie déclaré le jour même (25 → 26 sept.)</text><g id="Paragraphe · 25 sept. 2026, 07:40 · Thomas Dupont · e"><text x="353" y="385.75" font-family="Geist, Helvetica Neue, Arial, sans-serif" font-size="12" font-weight="400" fill="#62748e" xml:space="preserve">25 sept. 2026, 07:40 ·</text><text x="476.69" y="385.75" font-family="Geist, Helvetica Neue, Arial, sans-serif" font-size="12" font-weight="400" fill="#62748e" xml:space="preserve">Thomas Dupont</text><text x="565.92" y="385.75" font-family="Geist, Helvetica Neue, Arial, sans-serif" font-size="12" font-weight="400" fill="#62748e" xml:space="preserve">· en tant que Assistant dentaire</text></g></g></g><g id="Item · Demande de congé du 12 au 16 octobre"><rect x="313" y="465" width="1070" height="1" fill="#e5e5e5" id="Bordure basse"/><g id="Rangée 3"><rect x="313" y="417" width="28" height="28" rx="14" fill="#f1f5f9" id="Fond"/><g id="Icon · calendar-plus"><svg xmlns="http://www.w3.org/2000/svg" width="14" height="14" viewBox="0 0 24 24" fill="none" stroke="#45556c" stroke-width="2" stroke-linecap="round" stroke-linejoin="round" x="320" y="424"><path d="M16 18h6"/><path d="M16 2v3"/><path d="M19 15v6"/><path d="M21 11.5V5a2 2 0 00-2-2H5a2 2 0 00-2 2v14a2 2 0 002 2h8.3"/><path d="M3 9h18"/><path d="M8 2v3"/></svg></g></g><g id="Bloc · Demande de congé du 12 au 16 octobre"><text x="353" y="430" font-family="Geist, Helvetica Neue, Arial, sans-serif" font-size="14" font-weight="400" fill="#0f172b" xml:space="preserve">Demande de congé du 12 au 16 octobre</text><g id="Paragraphe · 24 sept. 2026, 17:20 · Flore Perche · en"><text x="353" y="448.75" font-family="Geist, Helvetica Neue, Arial, sans-serif" font-size="12" font-weight="400" fill="#62748e" xml:space="preserve">24 sept. 2026, 17:20 ·</text><text x="473.38" y="448.75" font-family="Geist, Helvetica Neue, Arial, sans-serif" font-size="12" font-weight="400" fill="#62748e" xml:space="preserve">Flore Perche</text><text x="545.04" y="448.75" font-family="Geist, Helvetica Neue, Arial, sans-serif" font-size="12" font-weight="400" fill="#62748e" xml:space="preserve">· en tant que Praticien</text></g></g></g><g id="Item · Note ajoutée sur un paiement échelonné ("><rect x="313" y="528" width="1070" height="1" fill="#e5e5e5" id="Bordure basse"/><g id="Rangée 4"><rect x="313" y="480" width="28" height="28" rx="14" fill="#fce7f3" id="Fond"/><g id="Icon · receipt"><svg xmlns="http://www.w3.org/2000/svg" width="14" height="14" viewBox="0 0 24 24" fill="none" stroke="#c6005c" stroke-width="2" stroke-linecap="round" stroke-linejoin="round" x="320" y="487"><path d="M12 17V7"/><path d="M16 8h-6a2 2 0 0 0 0 4h4a2 2 0 0 1 0 4H8"/><path d="M4 3a1 1 0 0 1 1-1 1.3 1.3 0 0 1 .7.2l.933.6a1.3 1.3 0 0 0 1.4 0l.934-.6a1.3 1.3 0 0 1 1.4 0l.933.6a1.3 1.3 0 0 0 1.4 0l.933-.6a1.3 1.3 0 0 1 1.4 0l.934.6a1.3 1.3 0 0 0 1.4 0l.933-.6A1.3 1.3 0 0 1 19 2a1 1 0 0 1 1 1v18a1 1 0 0 1-1 1 1.3 1.3 0 0 1-.7-.2l-.933-.6a1.3 1.3 0 0 0-1.4 0l-.934.6a1.3 1.3 0 0 1-1.4 0l-.933-.6a1.3 1.3 0 0 0-1.4 0l-.933.6a1.3 1.3 0 0 1-1.4 0l-.934-.6a1.3 1.3 0 0 0-1.4 0l-.933.6a1.3 1.3 0 0 1-.7.2 1 1 0 0 1-1-1z"/></svg></g></g><g id="Bloc · Note ajoutée sur un paiement échelonné ("><text x="353" y="493" font-family="Geist, Helvetica Neue, Arial, sans-serif" font-size="14" font-weight="400" fill="#0f172b" xml:space="preserve">Note ajoutée sur un paiement échelonné (patient C. Bernard)</text><g id="Paragraphe · 17 sept. 2026, 16:05 · Nathalie Roux · e"><text x="353" y="511.75" font-family="Geist, Helvetica Neue, Arial, sans-serif" font-size="12" font-weight="400" fill="#62748e" xml:space="preserve">17 sept. 2026, 16:05 ·</text><text x="470.98" y="511.75" font-family="Geist, Helvetica Neue, Arial, sans-serif" font-size="12" font-weight="400" fill="#62748e" xml:space="preserve">Nathalie Roux</text><text x="550.71" y="511.75" font-family="Geist, Helvetica Neue, Arial, sans-serif" font-size="12" font-weight="400" fill="#62748e" xml:space="preserve">· en tant que Secrétaire · Poste accueil</text></g></g></g><g id="Item · Nathalie Roux : retrait du rôle Gestionn"><rect x="313" y="591" width="1070" height="1" fill="#e5e5e5" id="Bordure basse"/><g id="Rangée 5"><rect x="313" y="543" width="28" height="28" rx="14" fill="#fce7f3" id="Fond"/><g id="Icon · key-round"><svg xmlns="http://www.w3.org/2000/svg" width="14" height="14" viewBox="0 0 24 24" fill="none" stroke="#c6005c" stroke-width="2" stroke-linecap="round" stroke-linejoin="round" x="320" y="550"><path d="M2.586 17.414A2 2 0 0 0 2 18.828V21a1 1 0 0 0 1 1h3a1 1 0 0 0 1-1v-1a1 1 0 0 1 1-1h1a1 1 0 0 0 1-1v-1a1 1 0 0 1 1-1h.172a2 2 0 0 0 1.414-.586l.814-.814a6.5 6.5 0 1 0-4-4z"/><circle cx="16.5" cy="7.5" r=".5" fill="#c6005c"/></svg></g></g><g id="Bloc · Nathalie Roux : retrait du rôle Gestionn"><text x="353" y="556" font-family="Geist, Helvetica Neue, Arial, sans-serif" font-size="14" font-weight="400" fill="#0f172b" xml:space="preserve">Nathalie Roux : retrait du rôle Gestionnaire</text><g id="Paragraphe · 15 sept. 2026, 10:30 · Sophie Martin · e"><text x="353" y="574.75" font-family="Geist, Helvetica Neue, Arial, sans-serif" font-size="12" font-weight="400" fill="#62748e" xml:space="preserve">15 sept. 2026, 10:30 ·</text><text x="473.13" y="574.75" font-family="Geist, Helvetica Neue, Arial, sans-serif" font-size="12" font-weight="400" fill="#62748e" xml:space="preserve">Sophie Martin</text><text x="552.59" y="574.75" font-family="Geist, Helvetica Neue, Arial, sans-serif" font-size="12" font-weight="400" fill="#62748e" xml:space="preserve">· en tant que Praticien + Gestionnaire</text></g></g></g><g id="Item · Création de Julie Dubois (Secrétaire), i"><rect x="313" y="654" width="1070" height="1" fill="#e5e5e5" id="Bordure basse"/><g id="Rangée 6"><rect x="313" y="606" width="28" height="28" rx="14" fill="#f1f5f9" id="Fond"/><g id="Icon · user-plus"><svg xmlns="http://www.w3.org/2000/svg" width="14" height="14" viewBox="0 0 24 24" fill="none" stroke="#45556c" stroke-width="2" stroke-linecap="round" stroke-linejoin="round" x="320" y="613"><path d="M16 21v-2a4 4 0 0 0-4-4H6a4 4 0 0 0-4 4v2"/><circle cx="9" cy="7" r="4"/><line x1="19" x2="19" y1="8" y2="14"/><line x1="22" x2="16" y1="11" y2="11"/></svg></g></g><g id="Bloc · Création de Julie Dubois (Secrétaire), i"><text x="353" y="619" font-family="Geist, Helvetica Neue, Arial, sans-serif" font-size="14" font-weight="400" fill="#0f172b" xml:space="preserve">Création de Julie Dubois (Secrétaire), invitation envoyée</text><g id="Paragraphe · 10 sept. 2026, 14:12 · Delphine Girard ·"><text x="353" y="637.75" font-family="Geist, Helvetica Neue, Arial, sans-serif" font-size="12" font-weight="400" fill="#62748e" xml:space="preserve">10 sept. 2026, 14:12 ·</text><text x="469.12" y="637.75" font-family="Geist, Helvetica Neue, Arial, sans-serif" font-size="12" font-weight="400" fill="#62748e" xml:space="preserve">Delphine Girard</text><text x="557.16" y="637.75" font-family="Geist, Helvetica Neue, Arial, sans-serif" font-size="12" font-weight="400" fill="#62748e" xml:space="preserve">· en tant que Gestionnaire</text></g></g></g><g id="Item · Congé de Camille Laurent validé (5 → 9 o"><rect x="313" y="717" width="1070" height="1" fill="#e5e5e5" id="Bordure basse"/><g id="Rangée 7"><rect x="313" y="669" width="28" height="28" rx="14" fill="#f1f5f9" id="Fond"/><g id="Icon · calendar-check"><svg xmlns="http://www.w3.org/2000/svg" width="14" height="14" viewBox="0 0 24 24" fill="none" stroke="#45556c" stroke-width="2" stroke-linecap="round" stroke-linejoin="round" x="320" y="676"><path d="M8 2v3"/><path d="M16 2v3"/><rect x="3" y="3" width="18" height="18" rx="2"/><path d="M3 9h18"/><path d="m9 15 2 2 4-4"/></svg></g></g><g id="Bloc · Congé de Camille Laurent validé (5 → 9 o"><text x="353" y="682" font-family="Geist, Helvetica Neue, Arial, sans-serif" font-size="14" font-weight="400" fill="#0f172b" xml:space="preserve">Congé de Camille Laurent validé (5 → 9 oct.)</text><g id="Paragraphe · 1 août 2026, 09:15 · Delphine Girard · e"><text x="353" y="700.75" font-family="Geist, Helvetica Neue, Arial, sans-serif" font-size="12" font-weight="400" fill="#62748e" xml:space="preserve">1 août 2026, 09:15 ·</text><text x="462.69" y="700.75" font-family="Geist, Helvetica Neue, Arial, sans-serif" font-size="12" font-weight="400" fill="#62748e" xml:space="preserve">Delphine Girard</text><text x="550.73" y="700.75" font-family="Geist, Helvetica Neue, Arial, sans-serif" font-size="12" font-weight="400" fill="#62748e" xml:space="preserve">· en tant que Gestionnaire</text></g></g></g><g id="Item · Demande de congé du 5 au 9 octobre"><rect x="313" y="780" width="1070" height="1" fill="#e5e5e5" id="Bordure basse"/><g id="Rangée 8"><rect x="313" y="732" width="28" height="28" rx="14" fill="#f1f5f9" id="Fond"/><g id="Icon · calendar-plus"><svg xmlns="http://www.w3.org/2000/svg" width="14" height="14" viewBox="0 0 24 24" fill="none" stroke="#45556c" stroke-width="2" stroke-linecap="round" stroke-linejoin="round" x="320" y="739"><path d="M16 18h6"/><path d="M16 2v3"/><path d="M19 15v6"/><path d="M21 11.5V5a2 2 0 00-2-2H5a2 2 0 00-2 2v14a2 2 0 002 2h8.3"/><path d="M3 9h18"/><path d="M8 2v3"/></svg></g></g><g id="Bloc · Demande de congé du 5 au 9 octobre"><text x="353" y="745" font-family="Geist, Helvetica Neue, Arial, sans-serif" font-size="14" font-weight="400" fill="#0f172b" xml:space="preserve">Demande de congé du 5 au 9 octobre</text><g id="Paragraphe · 31 juil. 2026, 11:02 · Camille Laurent ·"><text x="353" y="763.75" font-family="Geist, Helvetica Neue, Arial, sans-serif" font-size="12" font-weight="400" fill="#62748e" xml:space="preserve">31 juil. 2026, 11:02 ·</text><text x="460.67" y="763.75" font-family="Geist, Helvetica Neue, Arial, sans-serif" font-size="12" font-weight="400" fill="#62748e" xml:space="preserve">Camille Laurent</text><text x="550.06" y="763.75" font-family="Geist, Helvetica Neue, Arial, sans-serif" font-size="12" font-weight="400" fill="#62748e" xml:space="preserve">· en tant que Assistant dentaire</text></g></g></g><g id="Item · Archivage de Hugo Petit : fin de CDD"><rect x="313" y="843" width="1070" height="1" fill="#e5e5e5" id="Bordure basse"/><g id="Rangée 9"><rect x="313" y="795" width="28" height="28" rx="14" fill="#fce7f3" id="Fond"/><g id="Icon · archive"><svg xmlns="http://www.w3.org/2000/svg" width="14" height="14" viewBox="0 0 24 24" fill="none" stroke="#c6005c" stroke-width="2" stroke-linecap="round" stroke-linejoin="round" x="320" y="802"><rect width="20" height="5" x="2" y="3" rx="1"/><path d="M4 8v11a2 2 0 0 0 2 2h12a2 2 0 0 0 2-2V8"/><path d="M10 12h4"/></svg></g></g><g id="Bloc · Archivage de Hugo Petit : fin de CDD"><text x="353" y="808" font-family="Geist, Helvetica Neue, Arial, sans-serif" font-size="14" font-weight="400" fill="#0f172b" xml:space="preserve">Archivage de Hugo Petit : fin de CDD</text><g id="Paragraphe · 21 juil. 2026, 18:00 · Delphine Girard ·"><text x="353" y="826.75" font-family="Geist, Helvetica Neue, Arial, sans-serif" font-size="12" font-weight="400" fill="#62748e" xml:space="preserve">21 juil. 2026, 18:00 ·</text><text x="464.15" y="826.75" font-family="Geist, Helvetica Neue, Arial, sans-serif" font-size="12" font-weight="400" fill="#62748e" xml:space="preserve">Delphine Girard</text><text x="552.2" y="826.75" font-family="Geist, Helvetica Neue, Arial, sans-serif" font-size="12" font-weight="400" fill="#62748e" xml:space="preserve">· en tant que Gestionnaire</text></g></g></g><g id="Item · Cycle de stérilisation n°1243 lancé (aut"><rect x="313" y="906" width="1070" height="1" fill="#e5e5e5" id="Bordure basse"/><g id="Rangée 10"><rect x="313" y="858" width="28" height="28" rx="14" fill="#fce7f3" id="Fond"/><g id="Icon · flask-conical"><svg xmlns="http://www.w3.org/2000/svg" width="14" height="14" viewBox="0 0 24 24" fill="none" stroke="#c6005c" stroke-width="2" stroke-linecap="round" stroke-linejoin="round" x="320" y="865"><path d="M14 2v6a2 2 0 0 0 .245.96l5.51 10.08A2 2 0 0 1 18 22H6a2 2 0 0 1-1.755-2.96l5.51-10.08A2 2 0 0 0 10 8V2"/><path d="M6.453 15h11.094"/><path d="M8.5 2h7"/></svg></g></g><g id="Bloc · Cycle de stérilisation n°1243 lancé (aut"><text x="353" y="871" font-family="Geist, Helvetica Neue, Arial, sans-serif" font-size="14" font-weight="400" fill="#0f172b" xml:space="preserve">Cycle de stérilisation n°1243 lancé (autoclave A)</text><g id="Paragraphe · 18 juin 2026, 12:40 · Hugo Petit (archiv"><text x="353" y="889.75" font-family="Geist, Helvetica Neue, Arial, sans-serif" font-size="12" font-weight="400" fill="#62748e" xml:space="preserve">18 juin 2026, 12:40 ·</text><text x="464.4" y="889.75" font-family="Geist, Helvetica Neue, Arial, sans-serif" font-size="12" font-weight="400" fill="#62748e" xml:space="preserve">Hugo Petit</text><text x="524.88" y="889.75" font-family="Geist, Helvetica Neue, Arial, sans-serif" font-size="12" font-weight="400" fill="#62748e" xml:space="preserve">(archivé) · en tant que Aide dentaire + Resp. stérilisation · Poste stérilisation</text></g></g></g><g id="Item · Cycle de stérilisation n°1187 lancé (aut"><rect x="313" y="969" width="1070" height="1" fill="#e5e5e5" id="Bordure basse"/><g id="Rangée 11"><rect x="313" y="921" width="28" height="28" rx="14" fill="#fce7f3" id="Fond"/><g id="Icon · flask-conical"><svg xmlns="http://www.w3.org/2000/svg" width="14" height="14" viewBox="0 0 24 24" fill="none" stroke="#c6005c" stroke-width="2" stroke-linecap="round" stroke-linejoin="round" x="320" y="928"><path d="M14 2v6a2 2 0 0 0 .245.96l5.51 10.08A2 2 0 0 1 18 22H6a2 2 0 0 1-1.755-2.96l5.51-10.08A2 2 0 0 0 10 8V2"/><path d="M6.453 15h11.094"/><path d="M8.5 2h7"/></svg></g></g><g id="Bloc · Cycle de stérilisation n°1187 lancé (aut"><text x="353" y="934" font-family="Geist, Helvetica Neue, Arial, sans-serif" font-size="14" font-weight="400" fill="#0f172b" xml:space="preserve">Cycle de stérilisation n°1187 lancé (autoclave B)</text><g id="Paragraphe · 2 avr. 2026, 08:14 · Hugo Petit (archivé"><text x="353" y="952.75" font-family="Geist, Helvetica Neue, Arial, sans-serif" font-size="12" font-weight="400" fill="#62748e" xml:space="preserve">2 avr. 2026, 08:14 ·</text><text x="459.41" y="952.75" font-family="Geist, Helvetica Neue, Arial, sans-serif" font-size="12" font-weight="400" fill="#62748e" xml:space="preserve">Hugo Petit</text><text x="519.89" y="952.75" font-family="Geist, Helvetica Neue, Arial, sans-serif" font-size="12" font-weight="400" fill="#62748e" xml:space="preserve">(archivé) · en tant que Aide dentaire + Resp. stérilisation · Poste stérilisation</text></g></g></g><g id="Item · Archivage de Michel Fontaine : remplacem"><rect x="313" y="1032" width="1070" height="1" fill="#e5e5e5" id="Bordure basse"/><g id="Rangée 12"><rect x="313" y="984" width="28" height="28" rx="14" fill="#fce7f3" id="Fond"/><g id="Icon · archive"><svg xmlns="http://www.w3.org/2000/svg" width="14" height="14" viewBox="0 0 24 24" fill="none" stroke="#c6005c" stroke-width="2" stroke-linecap="round" stroke-linejoin="round" x="320" y="991"><rect width="20" height="5" x="2" y="3" rx="1"/><path d="M4 8v11a2 2 0 0 0 2 2h12a2 2 0 0 0 2-2V8"/><path d="M10 12h4"/></svg></g></g><g id="Bloc · Archivage de Michel Fontaine : remplacem"><text x="353" y="997" font-family="Geist, Helvetica Neue, Arial, sans-serif" font-size="14" font-weight="400" fill="#0f172b" xml:space="preserve">Archivage de Michel Fontaine : remplacement saisonnier terminé</text><g id="Paragraphe · 21 oct. 2025, 18:02 · Delphine Girard · "><text x="353" y="1015.75" font-family="Geist, Helvetica Neue, Arial, sans-serif" font-size="12" font-weight="400" fill="#62748e" xml:space="preserve">21 oct. 2025, 18:02 ·</text><text x="466" y="1015.75" font-family="Geist, Helvetica Neue, Arial, sans-serif" font-size="12" font-weight="400" fill="#62748e" xml:space="preserve">Delphine Girard</text><text x="554.05" y="1015.75" font-family="Geist, Helvetica Neue, Arial, sans-serif" font-size="12" font-weight="400" fill="#62748e" xml:space="preserve">· en tant que Gestionnaire</text></g></g></g><g id="Item · Création de Michel Fontaine (Praticien, "><g id="Rangée 13"><rect x="313" y="1047" width="28" height="28" rx="14" fill="#f1f5f9" id="Fond"/><g id="Icon · user-plus"><svg xmlns="http://www.w3.org/2000/svg" width="14" height="14" viewBox="0 0 24 24" fill="none" stroke="#45556c" stroke-width="2" stroke-linecap="round" stroke-linejoin="round" x="320" y="1054"><path d="M16 21v-2a4 4 0 0 0-4-4H6a4 4 0 0 0-4 4v2"/><circle cx="9" cy="7" r="4"/><line x1="19" x2="19" y1="8" y2="14"/><line x1="22" x2="16" y1="11" y2="11"/></svg></g></g><g id="Bloc · Création de Michel Fontaine (Praticien, "><text x="353" y="1060" font-family="Geist, Helvetica Neue, Arial, sans-serif" font-size="14" font-weight="400" fill="#0f172b" xml:space="preserve">Création de Michel Fontaine (Praticien, remplaçant saisonnier)</text><g id="Paragraphe · 23 juin 2025, 09:10 · Delphine Girard · "><text x="353" y="1078.75" font-family="Geist, Helvetica Neue, Arial, sans-serif" font-size="12" font-weight="400" fill="#62748e" xml:space="preserve">23 juin 2025, 09:10 ·</text><text x="468.35" y="1078.75" font-family="Geist, Helvetica Neue, Arial, sans-serif" font-size="12" font-weight="400" fill="#62748e" xml:space="preserve">Delphine Girard</text><text x="556.4" y="1078.75" font-family="Geist, Helvetica Neue, Arial, sans-serif" font-size="12" font-weight="400" fill="#62748e" xml:space="preserve">· en tant que Gestionnaire</text></g></g></g></g></g><text x="296" y="1131.75" font-family="Geist, Helvetica Neue, Arial, sans-serif" font-size="12" font-weight="400" fill="#90a1b9" xml:space="preserve">13 entrée(s). Le journal est en ajout seul : aucune entrée ne peut être modifiée ni supprimée.</text></g></g></g></g></g></svg>