<svg xmlns="http://www.w3.org/2000/svg" width="1440" height="1396" viewBox="0 0 1440 1396" fill="none"><defs><linearGradient id="45-feuille-de-route-degrade-1" x1="0" y1="0" x2="0" y2="1"><stop offset="0" stop-color="#fef2f8" stop-opacity="0.702"/><stop offset="1" stop-color="#ffffff"/></linearGradient></defs><g id="45 · Présentation · Feuille de route"><rect id="Fond de page" width="1440" height="1396" fill="#ffffff"/><g id="Page"><rect x="0" y="0" width="1440" height="1396" fill="#f8fafc" id="Fond"/><g id="Contenu"><rect x="0" y="0" width="1440" height="1396" fill="#ffffff" id="Fond"/><g id="Header · oralys"><rect x="0" y="0" width="1440" height="63" fill="#ffffff" id="Fond"/><rect x="0" y="60" width="1440" height="3" fill="#fda5d5" id="Bordure basse"/><g id="Grille"><g id="Rangée · oralys"><g id="Rangée · oralys 2"><g id="Icon · logo"><svg viewBox="0 0 16 24" x="24" y="17.99" width="16" height="24"><circle cx="8" cy="6.5" r="5.5" fill="#0f172b"/><circle cx="8" cy="17.5" r="5.5" fill="#0f172b"/><rect x="5.5" y="9" width="5" height="6" fill="white" rx="2.5"/></svg></g><text x="46" y="38.7" font-family="Geist, Helvetica Neue, Arial, sans-serif" font-size="25.6" font-weight="600" letter-spacing="-0.64" fill="#0f172b" xml:space="preserve">oralys</text></g><g id="Menu déroulant · Team"><rect x="128.37" y="15" width="91.17" height="30" rx="15" fill="#fdf2f8" id="Fond"/><rect x="128.87" y="15.5" width="90.17" height="29" rx="14.5" fill="none" stroke="#fccee8" stroke-width="1" id="Bordure"/><g id="Bloc"><rect x="139.37" y="26" width="8" height="8" rx="4" fill="#fb64b6" id="Fond"/></g><text x="153.37" y="35" font-family="Geist, Helvetica Neue, Arial, sans-serif" font-size="14" font-weight="500" fill="#861043" xml:space="preserve">Team</text><g id="Icon · chevron-down"><svg xmlns="http://www.w3.org/2000/svg" width="14" height="14" viewBox="0 0 24 24" fill="none" stroke="#c6005c" stroke-width="2" stroke-linecap="round" stroke-linejoin="round" x="194.54" y="23"><path d="m6 9 6 6 6-6"/></svg></g></g><g id="Déclencheur · V1"><rect x="231.54" y="20.2" width="28.13" height="19.59" rx="9.8" fill="#0f172b" id="Fond"/><text x="239.54" y="33.45" font-family="Geist, Helvetica Neue, Arial, sans-serif" font-size="10.4" font-weight="600" letter-spacing="0.26" fill="#ffffff" xml:space="preserve">V1</text></g></g><g id="Button · Cabinet Oralpes"><text x="648.63" y="35.25" font-family="Geist, Helvetica Neue, Arial, sans-serif" font-size="16" font-weight="500" fill="#1d293d" xml:space="preserve">Cabinet Oralpes</text><g id="Icon · chevron-down"><svg xmlns="http://www.w3.org/2000/svg" width="16" height="16" viewBox="0 0 24 24" fill="none" stroke="#62748e" stroke-width="2" stroke-linecap="round" stroke-linejoin="round" x="775.37" y="22"><path d="m6 9 6 6 6-6"/></svg></g></g><g id="Actions · 2"><g id="Déclencheur · Notifications"><g id="Icon · bell"><svg xmlns="http://www.w3.org/2000/svg" width="16" height="16" viewBox="0 0 24 24" fill="none" stroke="#0f172b" stroke-width="2" stroke-linecap="round" stroke-linejoin="round" x="1326" y="22"><path d="M10.268 21a2 2 0 0 0 3.464 0"/><path d="M3.262 15.326A1 1 0 0 0 4 17h16a1 1 0 0 0 .74-1.673C19.41 13.956 18 12.499 18 8A6 6 0 0 0 6 8c0 4.499-1.411 5.956-2.738 7.326"/></svg></g><g id="Rangée · 2"><rect x="1335" y="13" width="16" height="16" rx="8" fill="#f6339a" id="Fond"/><text x="1339.91" y="24.39" font-family="Geist, Helvetica Neue, Arial, sans-serif" font-size="9.6" font-weight="600" fill="#ffffff" xml:space="preserve">2</text></g></g><g id="Menu déroulant · Menu utilisateur"><g id="Initiales · DG"><rect x="1356" y="12" width="36" height="36" rx="18" fill="#d0fae5" id="Fond"/><text x="1365.52" y="33.75" font-family="Geist, Helvetica Neue, Arial, sans-serif" font-size="12" font-weight="500" fill="#006045" xml:space="preserve">DG</text></g><g id="Icon · chevron-down"><svg xmlns="http://www.w3.org/2000/svg" width="16" height="16" viewBox="0 0 24 24" fill="none" stroke="#62748e" stroke-width="2" stroke-linecap="round" stroke-linejoin="round" x="1396" y="22"><path d="m6 9 6 6 6-6"/></svg></g></g></g></g></g><g id="Navigation · Tableau de bord"><rect x="0" y="63" width="1440" height="45" fill="url(#45-feuille-de-route-degrade-1)" id="Fond"/><rect x="0" y="107" width="1440" height="1" fill="#e2e8f0" id="Bordure basse"/><g id="Liste · Tableau de bord"><text x="36" y="90" font-family="Geist, Helvetica Neue, Arial, sans-serif" font-size="14" font-weight="500" fill="#62748e" xml:space="preserve">Tableau de bord</text><text x="168.3" y="90" font-family="Geist, Helvetica Neue, Arial, sans-serif" font-size="14" font-weight="500" fill="#62748e" xml:space="preserve">Planning</text><text x="253.81" y="90" font-family="Geist, Helvetica Neue, Arial, sans-serif" font-size="14" font-weight="500" fill="#62748e" xml:space="preserve">Remplacements</text><text x="387.96" y="90" font-family="Geist, Helvetica Neue, Arial, sans-serif" font-size="14" font-weight="500" fill="#62748e" xml:space="preserve">Praticiens &amp; équipes</text><text x="548.8" y="90" font-family="Geist, Helvetica Neue, Arial, sans-serif" font-size="14" font-weight="500" fill="#62748e" xml:space="preserve">Aperçu Soins</text><text x="663.45" y="90" font-family="Geist, Helvetica Neue, Arial, sans-serif" font-size="14" font-weight="500" fill="#62748e" xml:space="preserve">Administration</text></g></g><g id="Bloc · Feuille de route Oralys Team 2"><g id="Bloc · Feuille de route Oralys Team 3"><text x="240" y="164.5" font-family="Geist, Helvetica Neue, Arial, sans-serif" font-size="24" font-weight="600" letter-spacing="-0.6" fill="#0f172b" xml:space="preserve">Feuille de route Oralys Team</text><text x="240" y="191" font-family="Geist, Helvetica Neue, Arial, sans-serif" font-size="14" font-weight="400" fill="#62748e" xml:space="preserve">Le module arrive par étapes. Chaque version règle un problème complet du cabinet et s'appuie sur la précédente.</text></g><g id="Liste · Qui est là, qui manque"><g id="Button · Qui est là, qui manque"><g id="Bloc 2"><rect x="240" y="228" width="234" height="6" rx="3" fill="#fb64b6" id="Fond"/></g><text x="240" y="253.75" font-family="Geist, Helvetica Neue, Arial, sans-serif" font-size="12" font-weight="600" letter-spacing="0.3" fill="#c6005c" xml:space="preserve">MVP</text><text x="240" y="273" font-family="Geist, Helvetica Neue, Arial, sans-serif" font-size="14" font-weight="400" fill="#62748e" xml:space="preserve">Qui est là, qui manque</text></g><g id="Button · V1"><g id="Bloc 3"><rect x="482" y="228" width="234" height="6" rx="3" fill="#fb64b6" id="Fond"/></g><text x="482" y="253.75" font-family="Geist, Helvetica Neue, Arial, sans-serif" font-size="12" font-weight="600" letter-spacing="0.3" fill="#c6005c" xml:space="preserve">V1</text><text x="482" y="273" font-family="Geist, Helvetica Neue, Arial, sans-serif" font-size="14" font-weight="500" fill="#0f172b" xml:space="preserve">Binômes et remplacements</text></g><g id="Button · V2"><g id="Bloc 4"><rect x="724" y="228" width="234" height="6" rx="3" fill="#e2e8f0" id="Fond"/></g><text x="724" y="253.75" font-family="Geist, Helvetica Neue, Arial, sans-serif" font-size="12" font-weight="600" letter-spacing="0.3" fill="#90a1b9" xml:space="preserve">V2</text><text x="724" y="273" font-family="Geist, Helvetica Neue, Arial, sans-serif" font-size="14" font-weight="400" fill="#62748e" xml:space="preserve">Intelligence et conformité</text></g><g id="Button · V3"><g id="Bloc 5"><rect x="966" y="228" width="234" height="6" rx="3" fill="#e2e8f0" id="Fond"/></g><text x="966" y="253.75" font-family="Geist, Helvetica Neue, Arial, sans-serif" font-size="12" font-weight="600" letter-spacing="0.3" fill="#90a1b9" xml:space="preserve">V3</text><text x="966" y="273" font-family="Geist, Helvetica Neue, Arial, sans-serif" font-size="14" font-weight="400" fill="#62748e" xml:space="preserve">Le collaborateur</text></g></g><g id="Bloc · Qui est là, qui manque"><g id="Card · Qui est là, qui manque"><rect x="240" y="311.5" width="960" height="275.94" rx="14" fill="#ffffff" id="Fond"/><rect x="239.5" y="311" width="961" height="276.94" rx="14.5" fill="none" stroke="#0a0a0a" stroke-opacity="0.102" stroke-width="1" id="Bordure"/><g id="Card content · Qui est là, qui manque"><g id="Bloc · Qui est là, qui manque 2"><g id="Bloc · MVP"><rect x="256" y="328.5" width="46.72" height="20" rx="10" fill="#0f172b" id="Fond"/><text x="266" y="342.25" font-family="Geist, Helvetica Neue, Arial, sans-serif" font-size="12" font-weight="600" fill="#ffffff" xml:space="preserve">MVP</text></g><text x="256" y="375.25" font-family="Geist, Helvetica Neue, Arial, sans-serif" font-size="18" font-weight="600" fill="#0f172b" xml:space="preserve">Qui est là, qui manque</text></g><g id="Bloc · Le problème réglé : Aujourd'hui, les abs"><g id="Paragraphe · Le problème réglé : Aujourd'hui, les abs"><text x="472" y="342.5" font-family="Geist, Helvetica Neue, Arial, sans-serif" font-size="14" font-weight="500" fill="#1d293d" xml:space="preserve">Le problème réglé :</text><text x="600.75" y="342.5" font-family="Geist, Helvetica Neue, Arial, sans-serif" font-size="14" font-weight="400" fill="#45556c" xml:space="preserve">Aujourd'hui, les absences vivent dans un tableau à part et l'alerte passe par téléphone.</text></g><g id="Bloc · CE QU'ON PEUT FAIRE"><text x="472" y="375.25" font-family="Geist, Helvetica Neue, Arial, sans-serif" font-size="12" font-weight="500" letter-spacing="0.3" fill="#62748e" xml:space="preserve">CE QU'ON PEUT FAIRE</text><g id="Liste · Créer, inviter, archiver ou réactiver un"><g id="Item · Créer, inviter, archiver ou réactiver un"><g id="Icon · check"><svg xmlns="http://www.w3.org/2000/svg" width="16" height="16" viewBox="0 0 24 24" fill="none" stroke="#009966" stroke-width="2" stroke-linecap="round" stroke-linejoin="round" x="472" y="387.5"><path d="M20 6 9 17l-5-5"/></svg></g><text x="496" y="400.5" font-family="Geist, Helvetica Neue, Arial, sans-serif" font-size="14" font-weight="400" fill="#314158" xml:space="preserve">Créer, inviter, archiver ou réactiver un utilisateur (un email déjà pris est bloqué)</text></g><g id="Item · Déclarer une absence, la valider ou la r"><g id="Icon · check"><svg xmlns="http://www.w3.org/2000/svg" width="16" height="16" viewBox="0 0 24 24" fill="none" stroke="#009966" stroke-width="2" stroke-linecap="round" stroke-linejoin="round" x="472" y="413.5"><path d="M20 6 9 17l-5-5"/></svg></g><text x="496" y="426.5" font-family="Geist, Helvetica Neue, Arial, sans-serif" font-size="14" font-weight="400" fill="#314158" xml:space="preserve">Déclarer une absence, la valider ou la refuser, l'annuler ou retirer un seul jour</text></g><g id="Item · Voir qui est présent chaque jour dans le"><g id="Icon · check"><svg xmlns="http://www.w3.org/2000/svg" width="16" height="16" viewBox="0 0 24 24" fill="none" stroke="#009966" stroke-width="2" stroke-linecap="round" stroke-linejoin="round" x="472" y="439.5"><path d="M20 6 9 17l-5-5"/></svg></g><text x="496" y="452.5" font-family="Geist, Helvetica Neue, Arial, sans-serif" font-size="14" font-weight="400" fill="#314158" xml:space="preserve">Voir qui est présent chaque jour dans le planning par personne</text></g><g id="Item · Être alerté d'une absence de dernier mom"><g id="Icon · check"><svg xmlns="http://www.w3.org/2000/svg" width="16" height="16" viewBox="0 0 24 24" fill="none" stroke="#009966" stroke-width="2" stroke-linecap="round" stroke-linejoin="round" x="472" y="465.5"><path d="M20 6 9 17l-5-5"/></svg></g><text x="496" y="478.5" font-family="Geist, Helvetica Neue, Arial, sans-serif" font-size="14" font-weight="400" fill="#314158" xml:space="preserve">Être alerté d'une absence de dernier moment, et fermer l'agenda Soins d'un praticien absent</text></g></g></g><g id="Rangée · Maquettes Figma :"><rect x="472" y="499.5" width="712" height="1" fill="#e5e5e5" id="Bordure haute"/><g id="Paragraphe · Maquettes Figma :"><g id="Icon · pen-tool"><svg xmlns="http://www.w3.org/2000/svg" width="14" height="14" viewBox="0 0 24 24" fill="none" stroke="#62748e" stroke-width="2" stroke-linecap="round" stroke-linejoin="round" x="472" y="514.97"><path d="M15.707 21.293a1 1 0 0 1-1.414 0l-1.586-1.586a1 1 0 0 1 0-1.414l5.586-5.586a1 1 0 0 1 1.414 0l1.586 1.586a1 1 0 0 1 0 1.414z"/><path d="m18 13-1.375-6.874a1 1 0 0 0-.746-.776L3.235 2.028a1 1 0 0 0-1.207 1.207L5.35 15.879a1 1 0 0 0 .776.746L13 18"/><path d="m2.3 2.3 7.286 7.286"/><circle cx="11" cy="11" r="2"/></svg></g><text x="490" y="525.72" font-family="Geist, Helvetica Neue, Arial, sans-serif" font-size="12" font-weight="400" fill="#62748e" xml:space="preserve">Maquettes Figma :</text><g id="Bloc · 01"><rect x="595.57" y="512.5" width="25.45" height="18.94" rx="4" fill="#f1f5f9" id="Fond"/><text x="601.57" y="525.5" font-family="Geist Mono, Menlo, monospace" font-size="11.2" font-weight="400" fill="#45556c" xml:space="preserve">01</text></g><g id="Bloc · 03"><rect x="625.02" y="512.5" width="25.45" height="18.94" rx="4" fill="#f1f5f9" id="Fond"/><text x="631.02" y="525.5" font-family="Geist Mono, Menlo, monospace" font-size="11.2" font-weight="400" fill="#45556c" xml:space="preserve">03</text></g><g id="Bloc · 04"><rect x="654.46" y="512.5" width="25.45" height="18.94" rx="4" fill="#f1f5f9" id="Fond"/><text x="660.46" y="525.5" font-family="Geist Mono, Menlo, monospace" font-size="11.2" font-weight="400" fill="#45556c" xml:space="preserve">04</text></g><g id="Bloc · 05"><rect x="683.91" y="512.5" width="25.45" height="18.94" rx="4" fill="#f1f5f9" id="Fond"/><text x="689.91" y="525.5" font-family="Geist Mono, Menlo, monospace" font-size="11.2" font-weight="400" fill="#45556c" xml:space="preserve">05</text></g><g id="Bloc · 06"><rect x="713.35" y="512.5" width="25.45" height="18.94" rx="4" fill="#f1f5f9" id="Fond"/><text x="719.35" y="525.5" font-family="Geist Mono, Menlo, monospace" font-size="11.2" font-weight="400" fill="#45556c" xml:space="preserve">06</text></g><g id="Bloc · 07"><rect x="742.8" y="512.5" width="25.45" height="18.94" rx="4" fill="#f1f5f9" id="Fond"/><text x="748.8" y="525.5" font-family="Geist Mono, Menlo, monospace" font-size="11.2" font-weight="400" fill="#45556c" xml:space="preserve">07</text></g><g id="Bloc · 09"><rect x="772.24" y="512.5" width="25.45" height="18.94" rx="4" fill="#f1f5f9" id="Fond"/><text x="778.24" y="525.5" font-family="Geist Mono, Menlo, monospace" font-size="11.2" font-weight="400" fill="#45556c" xml:space="preserve">09</text></g><g id="Bloc · 22"><rect x="801.69" y="512.5" width="25.45" height="18.94" rx="4" fill="#f1f5f9" id="Fond"/><text x="807.69" y="525.5" font-family="Geist Mono, Menlo, monospace" font-size="11.2" font-weight="400" fill="#45556c" xml:space="preserve">22</text></g><g id="Bloc · 23"><rect x="831.13" y="512.5" width="25.45" height="18.94" rx="4" fill="#f1f5f9" id="Fond"/><text x="837.13" y="525.5" font-family="Geist Mono, Menlo, monospace" font-size="11.2" font-weight="400" fill="#45556c" xml:space="preserve">23</text></g><g id="Bloc · 24"><rect x="860.58" y="512.5" width="25.45" height="18.94" rx="4" fill="#f1f5f9" id="Fond"/><text x="866.58" y="525.5" font-family="Geist Mono, Menlo, monospace" font-size="11.2" font-weight="400" fill="#45556c" xml:space="preserve">24</text></g><g id="Bloc · 25"><rect x="890.02" y="512.5" width="25.45" height="18.94" rx="4" fill="#f1f5f9" id="Fond"/><text x="896.02" y="525.5" font-family="Geist Mono, Menlo, monospace" font-size="11.2" font-weight="400" fill="#45556c" xml:space="preserve">25</text></g><g id="Bloc · 26"><rect x="919.47" y="512.5" width="25.45" height="18.94" rx="4" fill="#f1f5f9" id="Fond"/><text x="925.47" y="525.5" font-family="Geist Mono, Menlo, monospace" font-size="11.2" font-weight="400" fill="#45556c" xml:space="preserve">26</text></g><g id="Bloc · 27"><rect x="948.91" y="512.5" width="25.45" height="18.94" rx="4" fill="#f1f5f9" id="Fond"/><text x="954.91" y="525.5" font-family="Geist Mono, Menlo, monospace" font-size="11.2" font-weight="400" fill="#45556c" xml:space="preserve">27</text></g><g id="Bloc · 28"><rect x="978.36" y="512.5" width="25.45" height="18.94" rx="4" fill="#f1f5f9" id="Fond"/><text x="984.36" y="525.5" font-family="Geist Mono, Menlo, monospace" font-size="11.2" font-weight="400" fill="#45556c" xml:space="preserve">28</text></g><g id="Bloc · 29"><rect x="1007.8" y="512.5" width="25.45" height="18.94" rx="4" fill="#f1f5f9" id="Fond"/><text x="1013.8" y="525.5" font-family="Geist Mono, Menlo, monospace" font-size="11.2" font-weight="400" fill="#45556c" xml:space="preserve">29</text></g><g id="Bloc · 30"><rect x="1037.25" y="512.5" width="25.45" height="18.94" rx="4" fill="#f1f5f9" id="Fond"/><text x="1043.25" y="525.5" font-family="Geist Mono, Menlo, monospace" font-size="11.2" font-weight="400" fill="#45556c" xml:space="preserve">30</text></g><g id="Bloc · 39"><rect x="1066.7" y="512.5" width="25.45" height="18.94" rx="4" fill="#f1f5f9" id="Fond"/><text x="1072.7" y="525.5" font-family="Geist Mono, Menlo, monospace" font-size="11.2" font-weight="400" fill="#45556c" xml:space="preserve">39</text></g><g id="Bloc · 40"><rect x="1096.14" y="512.5" width="25.45" height="18.94" rx="4" fill="#f1f5f9" id="Fond"/><text x="1102.14" y="525.5" font-family="Geist Mono, Menlo, monospace" font-size="11.2" font-weight="400" fill="#45556c" xml:space="preserve">40</text></g><g id="Bloc · 41"><rect x="1125.59" y="512.5" width="25.45" height="18.94" rx="4" fill="#f1f5f9" id="Fond"/><text x="1131.59" y="525.5" font-family="Geist Mono, Menlo, monospace" font-size="11.2" font-weight="400" fill="#45556c" xml:space="preserve">41</text></g></g><g id="Button · Voir la démo en MVP"><rect x="472" y="543.44" width="163.73" height="28" rx="8" fill="#171717" id="Fond"/><text x="483" y="561.8" font-family="Geist, Helvetica Neue, Arial, sans-serif" font-size="12.8" font-weight="500" fill="#fafafa" xml:space="preserve">Voir la démo en MVP</text><g id="Icon · arrow-right"><svg xmlns="http://www.w3.org/2000/svg" width="14" height="14" viewBox="0 0 24 24" fill="none" stroke="#fafafa" stroke-width="2" stroke-linecap="round" stroke-linejoin="round" x="610.73" y="550.44"><path d="M5 12h14"/><path d="m12 5 7 7-7 7"/></svg></g></g></g></g></g></g><g id="Card · V1"><rect x="240" y="603.44" width="960" height="265" rx="14" fill="#ffffff" id="Fond"/><rect x="239" y="602.44" width="962" height="267" rx="15" fill="none" stroke="#fda5d5" stroke-width="2" id="Bordure"/><g id="Card content · V1"><g id="Bloc · V1"><g id="Bloc · V1 2"><rect x="256" y="620.44" width="33.4" height="20" rx="10" fill="#f6339a" id="Fond"/><text x="266" y="634.19" font-family="Geist, Helvetica Neue, Arial, sans-serif" font-size="12" font-weight="600" fill="#ffffff" xml:space="preserve">V1</text></g><g id="Titre · Binômes et remplacements"><text x="256" y="667.19" font-family="Geist, Helvetica Neue, Arial, sans-serif" font-size="18" font-weight="600" fill="#0f172b" xml:space="preserve">Binômes et</text><text x="256" y="691.94" font-family="Geist, Helvetica Neue, Arial, sans-serif" font-size="18" font-weight="600" fill="#0f172b" xml:space="preserve">remplacements</text></g><text x="256" y="713.69" font-family="Geist, Helvetica Neue, Arial, sans-serif" font-size="12" font-weight="500" fill="#c6005c" xml:space="preserve">Version affichée dans la démo</text></g><g id="Bloc · Le problème réglé : On sait qui est abse"><g id="Paragraphe · Le problème réglé : On sait qui est abse"><text x="472" y="634.44" font-family="Geist, Helvetica Neue, Arial, sans-serif" font-size="14" font-weight="500" fill="#1d293d" xml:space="preserve">Le problème réglé :</text><text x="600.75" y="634.44" font-family="Geist, Helvetica Neue, Arial, sans-serif" font-size="14" font-weight="400" fill="#45556c" xml:space="preserve">On sait qui est absent, mais pas qui travaille avec quel praticien ni qui peut le remplacer.</text></g><g id="Bloc · CE QU'ON PEUT FAIRE EN PLUS DU MVP"><text x="472" y="667.19" font-family="Geist, Helvetica Neue, Arial, sans-serif" font-size="12" font-weight="500" letter-spacing="0.3" fill="#62748e" xml:space="preserve">CE QU'ON PEUT FAIRE EN PLUS DU MVP</text><g id="Liste · Définir l'équipe de chaque praticien : t"><g id="Item · Définir l'équipe de chaque praticien : t"><g id="Icon · check"><svg xmlns="http://www.w3.org/2000/svg" width="16" height="16" viewBox="0 0 24 24" fill="none" stroke="#009966" stroke-width="2" stroke-linecap="round" stroke-linejoin="round" x="472" y="679.44"><path d="M20 6 9 17l-5-5"/></svg></g><text x="496" y="692.44" font-family="Geist, Helvetica Neue, Arial, sans-serif" font-size="14" font-weight="400" fill="#314158" xml:space="preserve">Définir l'équipe de chaque praticien : titulaires, back-ups, besoin en assistants</text></g><g id="Item · Voir les binômes du jour et les manques "><g id="Icon · check"><svg xmlns="http://www.w3.org/2000/svg" width="16" height="16" viewBox="0 0 24 24" fill="none" stroke="#009966" stroke-width="2" stroke-linecap="round" stroke-linejoin="round" x="472" y="705.44"><path d="M20 6 9 17l-5-5"/></svg></g><text x="496" y="718.44" font-family="Geist, Helvetica Neue, Arial, sans-serif" font-size="14" font-weight="400" fill="#314158" xml:space="preserve">Voir les binômes du jour et les manques dans la vue Binômes</text></g><g id="Item · Agir sur un manque : récupérer un assist"><g id="Icon · check"><svg xmlns="http://www.w3.org/2000/svg" width="16" height="16" viewBox="0 0 24 24" fill="none" stroke="#009966" stroke-width="2" stroke-linecap="round" stroke-linejoin="round" x="472" y="731.44"><path d="M20 6 9 17l-5-5"/></svg></g><text x="496" y="744.44" font-family="Geist, Helvetica Neue, Arial, sans-serif" font-size="14" font-weight="400" fill="#314158" xml:space="preserve">Agir sur un manque : récupérer un assistant prêté, en prêter un pour la journée, ou accepter moins</text><text x="496" y="764.44" font-family="Geist, Helvetica Neue, Arial, sans-serif" font-size="14" font-weight="400" fill="#314158" xml:space="preserve">d'assistants ce jour-là</text></g><g id="Item · Réaffecter les RDV d'un assistant absent"><g id="Icon · check"><svg xmlns="http://www.w3.org/2000/svg" width="16" height="16" viewBox="0 0 24 24" fill="none" stroke="#009966" stroke-width="2" stroke-linecap="round" stroke-linejoin="round" x="472" y="777.44"><path d="M20 6 9 17l-5-5"/></svg></g><text x="496" y="790.44" font-family="Geist, Helvetica Neue, Arial, sans-serif" font-size="14" font-weight="400" fill="#314158" xml:space="preserve">Réaffecter les RDV d'un assistant absent avec des remplaçants classés par règles, ou reprogrammer le RDV</text></g></g></g><g id="Rangée · Maquettes Figma : 2"><rect x="472" y="811.44" width="712" height="1" fill="#e5e5e5" id="Bordure haute"/><g id="Paragraphe · Maquettes Figma : 2"><g id="Icon · pen-tool"><svg xmlns="http://www.w3.org/2000/svg" width="14" height="14" viewBox="0 0 24 24" fill="none" stroke="#62748e" stroke-width="2" stroke-linecap="round" stroke-linejoin="round" x="472" y="831.44"><path d="M15.707 21.293a1 1 0 0 1-1.414 0l-1.586-1.586a1 1 0 0 1 0-1.414l5.586-5.586a1 1 0 0 1 1.414 0l1.586 1.586a1 1 0 0 1 0 1.414z"/><path d="m18 13-1.375-6.874a1 1 0 0 0-.746-.776L3.235 2.028a1 1 0 0 0-1.207 1.207L5.35 15.879a1 1 0 0 0 .776.746L13 18"/><path d="m2.3 2.3 7.286 7.286"/><circle cx="11" cy="11" r="2"/></svg></g><text x="490" y="842.19" font-family="Geist, Helvetica Neue, Arial, sans-serif" font-size="12" font-weight="400" fill="#62748e" xml:space="preserve">Maquettes Figma :</text><g id="Bloc · 02"><rect x="595.57" y="828.97" width="25.45" height="18.94" rx="4" fill="#f1f5f9" id="Fond"/><text x="601.57" y="841.97" font-family="Geist Mono, Menlo, monospace" font-size="11.2" font-weight="400" fill="#45556c" xml:space="preserve">02</text></g><g id="Bloc · 08"><rect x="625.02" y="828.97" width="25.45" height="18.94" rx="4" fill="#f1f5f9" id="Fond"/><text x="631.02" y="841.97" font-family="Geist Mono, Menlo, monospace" font-size="11.2" font-weight="400" fill="#45556c" xml:space="preserve">08</text></g><g id="Bloc · 43"><rect x="654.46" y="828.97" width="25.45" height="18.94" rx="4" fill="#f1f5f9" id="Fond"/><text x="660.46" y="841.97" font-family="Geist Mono, Menlo, monospace" font-size="11.2" font-weight="400" fill="#45556c" xml:space="preserve">43</text></g><g id="Bloc · 44"><rect x="683.91" y="828.97" width="25.45" height="18.94" rx="4" fill="#f1f5f9" id="Fond"/><text x="689.91" y="841.97" font-family="Geist Mono, Menlo, monospace" font-size="11.2" font-weight="400" fill="#45556c" xml:space="preserve">44</text></g><g id="Bloc · 10"><rect x="713.35" y="828.97" width="25.45" height="18.94" rx="4" fill="#f1f5f9" id="Fond"/><text x="719.35" y="841.97" font-family="Geist Mono, Menlo, monospace" font-size="11.2" font-weight="400" fill="#45556c" xml:space="preserve">10</text></g><g id="Bloc · 12"><rect x="742.8" y="828.97" width="25.45" height="18.94" rx="4" fill="#f1f5f9" id="Fond"/><text x="748.8" y="841.97" font-family="Geist Mono, Menlo, monospace" font-size="11.2" font-weight="400" fill="#45556c" xml:space="preserve">12</text></g><g id="Bloc · 13"><rect x="772.24" y="828.97" width="25.45" height="18.94" rx="4" fill="#f1f5f9" id="Fond"/><text x="778.24" y="841.97" font-family="Geist Mono, Menlo, monospace" font-size="11.2" font-weight="400" fill="#45556c" xml:space="preserve">13</text></g><g id="Bloc · 14"><rect x="801.69" y="828.97" width="25.45" height="18.94" rx="4" fill="#f1f5f9" id="Fond"/><text x="807.69" y="841.97" font-family="Geist Mono, Menlo, monospace" font-size="11.2" font-weight="400" fill="#45556c" xml:space="preserve">14</text></g><g id="Bloc · 15"><rect x="831.13" y="828.97" width="25.45" height="18.94" rx="4" fill="#f1f5f9" id="Fond"/><text x="837.13" y="841.97" font-family="Geist Mono, Menlo, monospace" font-size="11.2" font-weight="400" fill="#45556c" xml:space="preserve">15</text></g><g id="Bloc · 16"><rect x="860.58" y="828.97" width="25.45" height="18.94" rx="4" fill="#f1f5f9" id="Fond"/><text x="866.58" y="841.97" font-family="Geist Mono, Menlo, monospace" font-size="11.2" font-weight="400" fill="#45556c" xml:space="preserve">16</text></g><g id="Bloc · 17"><rect x="890.02" y="828.97" width="25.45" height="18.94" rx="4" fill="#f1f5f9" id="Fond"/><text x="896.02" y="841.97" font-family="Geist Mono, Menlo, monospace" font-size="11.2" font-weight="400" fill="#45556c" xml:space="preserve">17</text></g><g id="Bloc · 18"><rect x="919.47" y="828.97" width="25.45" height="18.94" rx="4" fill="#f1f5f9" id="Fond"/><text x="925.47" y="841.97" font-family="Geist Mono, Menlo, monospace" font-size="11.2" font-weight="400" fill="#45556c" xml:space="preserve">18</text></g><g id="Bloc · 36"><rect x="948.91" y="828.97" width="25.45" height="18.94" rx="4" fill="#f1f5f9" id="Fond"/><text x="954.91" y="841.97" font-family="Geist Mono, Menlo, monospace" font-size="11.2" font-weight="400" fill="#45556c" xml:space="preserve">36</text></g></g><g id="Button · Reprendre la démo"><rect x="1030.98" y="824.44" width="153.02" height="28" rx="8" fill="#ffffff" id="Fond"/><rect x="1031.48" y="824.94" width="152.02" height="27" rx="7.5" fill="none" stroke="#e5e5e5" stroke-width="1" id="Bordure"/><text x="1041.98" y="842.8" font-family="Geist, Helvetica Neue, Arial, sans-serif" font-size="12.8" font-weight="500" fill="#0a0a0a" xml:space="preserve">Reprendre la démo</text><g id="Icon · arrow-right"><svg xmlns="http://www.w3.org/2000/svg" width="14" height="14" viewBox="0 0 24 24" fill="none" stroke="#0a0a0a" stroke-width="2" stroke-linecap="round" stroke-linejoin="round" x="1159" y="831.44"><path d="M5 12h14"/><path d="m12 5 7 7-7 7"/></svg></g></g></g></g></g></g><g id="Card · V2"><rect x="240" y="884.44" width="960" height="271" rx="14" fill="#ffffff" id="Fond"/><rect x="239.5" y="883.94" width="961" height="272" rx="14.5" fill="none" stroke="#0a0a0a" stroke-opacity="0.102" stroke-width="1" id="Bordure"/><g id="Card content · V2"><g id="Bloc · V2"><g id="Bloc · V2 2"><rect x="256" y="901.44" width="35.73" height="20" rx="10" fill="#0f172b" id="Fond"/><text x="266" y="915.19" font-family="Geist, Helvetica Neue, Arial, sans-serif" font-size="12" font-weight="600" fill="#ffffff" xml:space="preserve">V2</text></g><g id="Titre · Intelligence et conformité"><text x="256" y="948.19" font-family="Geist, Helvetica Neue, Arial, sans-serif" font-size="18" font-weight="600" fill="#0f172b" xml:space="preserve">Intelligence et</text><text x="256" y="972.94" font-family="Geist, Helvetica Neue, Arial, sans-serif" font-size="18" font-weight="600" fill="#0f172b" xml:space="preserve">conformité</text></g></g><g id="Bloc · Le problème réglé : Les remplacements fo"><g id="Paragraphe · Le problème réglé : Les remplacements fo"><text x="472" y="915.44" font-family="Geist, Helvetica Neue, Arial, sans-serif" font-size="14" font-weight="500" fill="#1d293d" xml:space="preserve">Le problème réglé :</text><text x="600.75" y="915.44" font-family="Geist, Helvetica Neue, Arial, sans-serif" font-size="14" font-weight="400" fill="#45556c" xml:space="preserve">Les remplacements fonctionnent : il faut les rendre plus justes et savoir qui a fait quoi.</text></g><g id="Bloc · CE QU'ON PEUT FAIRE EN PLUS DU V1"><text x="472" y="948.19" font-family="Geist, Helvetica Neue, Arial, sans-serif" font-size="12" font-weight="500" letter-spacing="0.3" fill="#62748e" xml:space="preserve">CE QU'ON PEUT FAIRE EN PLUS DU V1</text><g id="Liste · Classer les remplaçants par score d'affi"><g id="Item · Classer les remplaçants par score d'affi"><g id="Icon · check"><svg xmlns="http://www.w3.org/2000/svg" width="16" height="16" viewBox="0 0 24 24" fill="none" stroke="#009966" stroke-width="2" stroke-linecap="round" stroke-linejoin="round" x="472" y="960.44"><path d="M20 6 9 17l-5-5"/></svg></g><text x="496" y="973.44" font-family="Geist, Helvetica Neue, Arial, sans-serif" font-size="14" font-weight="400" fill="#314158" xml:space="preserve">Classer les remplaçants par score d'affinité, avec le détail du pourquoi</text></g><g id="Item · Voir le meilleur assistant suggéré au mo"><g id="Icon · check"><svg xmlns="http://www.w3.org/2000/svg" width="16" height="16" viewBox="0 0 24 24" fill="none" stroke="#009966" stroke-width="2" stroke-linecap="round" stroke-linejoin="round" x="472" y="986.44"><path d="M20 6 9 17l-5-5"/></svg></g><text x="496" y="999.44" font-family="Geist, Helvetica Neue, Arial, sans-serif" font-size="14" font-weight="400" fill="#314158" xml:space="preserve">Voir le meilleur assistant suggéré au moment de prendre un RDV dans Soins</text></g><g id="Item · Créer des rôles et régler les droits dan"><g id="Icon · check"><svg xmlns="http://www.w3.org/2000/svg" width="16" height="16" viewBox="0 0 24 24" fill="none" stroke="#009966" stroke-width="2" stroke-linecap="round" stroke-linejoin="round" x="472" y="1012.44"><path d="M20 6 9 17l-5-5"/></svg></g><text x="496" y="1025.44" font-family="Geist, Helvetica Neue, Arial, sans-serif" font-size="14" font-weight="400" fill="#314158" xml:space="preserve">Créer des rôles et régler les droits dans une grille</text></g><g id="Item · Suivre toutes les actions dans le journa"><g id="Icon · check"><svg xmlns="http://www.w3.org/2000/svg" width="16" height="16" viewBox="0 0 24 24" fill="none" stroke="#009966" stroke-width="2" stroke-linecap="round" stroke-linejoin="round" x="472" y="1038.44"><path d="M20 6 9 17l-5-5"/></svg></g><text x="496" y="1051.44" font-family="Geist, Helvetica Neue, Arial, sans-serif" font-size="14" font-weight="400" fill="#314158" xml:space="preserve">Suivre toutes les actions dans le journal d'audit</text></g><g id="Item · Changer d'utilisateur par code PIN sur u"><g id="Icon · check"><svg xmlns="http://www.w3.org/2000/svg" width="16" height="16" viewBox="0 0 24 24" fill="none" stroke="#009966" stroke-width="2" stroke-linecap="round" stroke-linejoin="round" x="472" y="1064.44"><path d="M20 6 9 17l-5-5"/></svg></g><text x="496" y="1077.44" font-family="Geist, Helvetica Neue, Arial, sans-serif" font-size="14" font-weight="400" fill="#314158" xml:space="preserve">Changer d'utilisateur par code PIN sur un poste partagé, et tracer l'opérateur de stérilisation</text></g></g></g><g id="Rangée · Maquettes Figma : 3"><rect x="472" y="1098.44" width="712" height="1" fill="#e5e5e5" id="Bordure haute"/><g id="Paragraphe · Maquettes Figma : 3"><g id="Icon · pen-tool"><svg xmlns="http://www.w3.org/2000/svg" width="14" height="14" viewBox="0 0 24 24" fill="none" stroke="#62748e" stroke-width="2" stroke-linecap="round" stroke-linejoin="round" x="472" y="1118.44"><path d="M15.707 21.293a1 1 0 0 1-1.414 0l-1.586-1.586a1 1 0 0 1 0-1.414l5.586-5.586a1 1 0 0 1 1.414 0l1.586 1.586a1 1 0 0 1 0 1.414z"/><path d="m18 13-1.375-6.874a1 1 0 0 0-.746-.776L3.235 2.028a1 1 0 0 0-1.207 1.207L5.35 15.879a1 1 0 0 0 .776.746L13 18"/><path d="m2.3 2.3 7.286 7.286"/><circle cx="11" cy="11" r="2"/></svg></g><text x="490" y="1129.19" font-family="Geist, Helvetica Neue, Arial, sans-serif" font-size="12" font-weight="400" fill="#62748e" xml:space="preserve">Maquettes Figma :</text><g id="Bloc · 11"><rect x="595.57" y="1115.97" width="25.45" height="18.94" rx="4" fill="#f1f5f9" id="Fond"/><text x="601.57" y="1128.97" font-family="Geist Mono, Menlo, monospace" font-size="11.2" font-weight="400" fill="#45556c" xml:space="preserve">11</text></g><g id="Bloc · 19"><rect x="625.02" y="1115.97" width="25.45" height="18.94" rx="4" fill="#f1f5f9" id="Fond"/><text x="631.02" y="1128.97" font-family="Geist Mono, Menlo, monospace" font-size="11.2" font-weight="400" fill="#45556c" xml:space="preserve">19</text></g><g id="Bloc · 20"><rect x="654.46" y="1115.97" width="25.45" height="18.94" rx="4" fill="#f1f5f9" id="Fond"/><text x="660.46" y="1128.97" font-family="Geist Mono, Menlo, monospace" font-size="11.2" font-weight="400" fill="#45556c" xml:space="preserve">20</text></g><g id="Bloc · 21"><rect x="683.91" y="1115.97" width="25.45" height="18.94" rx="4" fill="#f1f5f9" id="Fond"/><text x="689.91" y="1128.97" font-family="Geist Mono, Menlo, monospace" font-size="11.2" font-weight="400" fill="#45556c" xml:space="preserve">21</text></g><g id="Bloc · 31"><rect x="713.35" y="1115.97" width="25.45" height="18.94" rx="4" fill="#f1f5f9" id="Fond"/><text x="719.35" y="1128.97" font-family="Geist Mono, Menlo, monospace" font-size="11.2" font-weight="400" fill="#45556c" xml:space="preserve">31</text></g><g id="Bloc · 32"><rect x="742.8" y="1115.97" width="25.45" height="18.94" rx="4" fill="#f1f5f9" id="Fond"/><text x="748.8" y="1128.97" font-family="Geist Mono, Menlo, monospace" font-size="11.2" font-weight="400" fill="#45556c" xml:space="preserve">32</text></g><g id="Bloc · 33"><rect x="772.24" y="1115.97" width="25.45" height="18.94" rx="4" fill="#f1f5f9" id="Fond"/><text x="778.24" y="1128.97" font-family="Geist Mono, Menlo, monospace" font-size="11.2" font-weight="400" fill="#45556c" xml:space="preserve">33</text></g><g id="Bloc · 34"><rect x="801.69" y="1115.97" width="25.45" height="18.94" rx="4" fill="#f1f5f9" id="Fond"/><text x="807.69" y="1128.97" font-family="Geist Mono, Menlo, monospace" font-size="11.2" font-weight="400" fill="#45556c" xml:space="preserve">34</text></g><g id="Bloc · 35"><rect x="831.13" y="1115.97" width="25.45" height="18.94" rx="4" fill="#f1f5f9" id="Fond"/><text x="837.13" y="1128.97" font-family="Geist Mono, Menlo, monospace" font-size="11.2" font-weight="400" fill="#45556c" xml:space="preserve">35</text></g><g id="Bloc · 37"><rect x="860.58" y="1115.97" width="25.45" height="18.94" rx="4" fill="#f1f5f9" id="Fond"/><text x="866.58" y="1128.97" font-family="Geist Mono, Menlo, monospace" font-size="11.2" font-weight="400" fill="#45556c" xml:space="preserve">37</text></g><g id="Bloc · 38"><rect x="890.02" y="1115.97" width="25.45" height="18.94" rx="4" fill="#f1f5f9" id="Fond"/><text x="896.02" y="1128.97" font-family="Geist Mono, Menlo, monospace" font-size="11.2" font-weight="400" fill="#45556c" xml:space="preserve">38</text></g></g><g id="Button · Voir la démo en V2"><rect x="1031.92" y="1111.44" width="152.08" height="28" rx="8" fill="#171717" id="Fond"/><text x="1042.92" y="1129.8" font-family="Geist, Helvetica Neue, Arial, sans-serif" font-size="12.8" font-weight="500" fill="#fafafa" xml:space="preserve">Voir la démo en V2</text><g id="Icon · arrow-right"><svg xmlns="http://www.w3.org/2000/svg" width="14" height="14" viewBox="0 0 24 24" fill="none" stroke="#fafafa" stroke-width="2" stroke-linecap="round" stroke-linejoin="round" x="1159" y="1118.44"><path d="M5 12h14"/><path d="m12 5 7 7-7 7"/></svg></g></g></g></g></g></g><g id="Card · V3"><rect x="240" y="1171.44" width="960" height="193" rx="14" fill="#ffffff" id="Fond"/><rect x="239.5" y="1170.94" width="961" height="194" rx="14.5" fill="none" stroke="#0a0a0a" stroke-opacity="0.102" stroke-width="1" id="Bordure"/><g id="Card content · V3"><g id="Bloc · V3"><g id="Bloc · V3 2"><rect x="256" y="1188.44" width="35.68" height="20" rx="10" fill="#0f172b" id="Fond"/><text x="266" y="1202.19" font-family="Geist, Helvetica Neue, Arial, sans-serif" font-size="12" font-weight="600" fill="#ffffff" xml:space="preserve">V3</text></g><text x="256" y="1235.19" font-family="Geist, Helvetica Neue, Arial, sans-serif" font-size="18" font-weight="600" fill="#0f172b" xml:space="preserve">Le collaborateur</text></g><g id="Bloc · Le problème réglé : Le collaborateur dev"><g id="Paragraphe · Le problème réglé : Le collaborateur dev"><text x="472" y="1202.44" font-family="Geist, Helvetica Neue, Arial, sans-serif" font-size="14" font-weight="500" fill="#1d293d" xml:space="preserve">Le problème réglé :</text><text x="600.75" y="1202.44" font-family="Geist, Helvetica Neue, Arial, sans-serif" font-size="14" font-weight="400" fill="#45556c" xml:space="preserve">Le collaborateur devient acteur de son planning, au lieu de le subir.</text></g><g id="Bloc · CE QU'ON PEUT FAIRE EN PLUS DU V2"><text x="472" y="1235.19" font-family="Geist, Helvetica Neue, Arial, sans-serif" font-size="12" font-weight="500" letter-spacing="0.3" fill="#62748e" xml:space="preserve">CE QU'ON PEUT FAIRE EN PLUS DU V2</text><g id="Liste · Renseigner ses disponibilités, ses compé"><g id="Item · Renseigner ses disponibilités, ses compé"><g id="Icon · check"><svg xmlns="http://www.w3.org/2000/svg" width="16" height="16" viewBox="0 0 24 24" fill="none" stroke="#009966" stroke-width="2" stroke-linecap="round" stroke-linejoin="round" x="472" y="1247.44"><path d="M20 6 9 17l-5-5"/></svg></g><text x="496" y="1260.44" font-family="Geist, Helvetica Neue, Arial, sans-serif" font-size="14" font-weight="400" fill="#314158" xml:space="preserve">Renseigner ses disponibilités, ses compétences et ses actes préférés</text></g><g id="Item · Donner ses préférences de binôme, gardée"><g id="Icon · check"><svg xmlns="http://www.w3.org/2000/svg" width="16" height="16" viewBox="0 0 24 24" fill="none" stroke="#009966" stroke-width="2" stroke-linecap="round" stroke-linejoin="round" x="472" y="1273.44"><path d="M20 6 9 17l-5-5"/></svg></g><text x="496" y="1286.44" font-family="Geist, Helvetica Neue, Arial, sans-serif" font-size="14" font-weight="400" fill="#314158" xml:space="preserve">Donner ses préférences de binôme, gardées confidentielles</text></g></g></g><g id="Rangée · Maquettes Figma : 4"><rect x="472" y="1307.44" width="712" height="1" fill="#e5e5e5" id="Bordure haute"/><g id="Paragraphe · Maquettes Figma : 4"><g id="Icon · pen-tool"><svg xmlns="http://www.w3.org/2000/svg" width="14" height="14" viewBox="0 0 24 24" fill="none" stroke="#62748e" stroke-width="2" stroke-linecap="round" stroke-linejoin="round" x="472" y="1327.44"><path d="M15.707 21.293a1 1 0 0 1-1.414 0l-1.586-1.586a1 1 0 0 1 0-1.414l5.586-5.586a1 1 0 0 1 1.414 0l1.586 1.586a1 1 0 0 1 0 1.414z"/><path d="m18 13-1.375-6.874a1 1 0 0 0-.746-.776L3.235 2.028a1 1 0 0 0-1.207 1.207L5.35 15.879a1 1 0 0 0 .776.746L13 18"/><path d="m2.3 2.3 7.286 7.286"/><circle cx="11" cy="11" r="2"/></svg></g><text x="490" y="1338.19" font-family="Geist, Helvetica Neue, Arial, sans-serif" font-size="12" font-weight="400" fill="#62748e" xml:space="preserve">Maquettes Figma :</text><g id="Bloc · 42"><rect x="595.57" y="1324.97" width="25.45" height="18.94" rx="4" fill="#f1f5f9" id="Fond"/><text x="601.57" y="1337.97" font-family="Geist Mono, Menlo, monospace" font-size="11.2" font-weight="400" fill="#45556c" xml:space="preserve">42</text></g></g><g id="Button · Voir la démo en V3"><rect x="1031.99" y="1320.44" width="152.01" height="28" rx="8" fill="#171717" id="Fond"/><text x="1042.99" y="1338.8" font-family="Geist, Helvetica Neue, Arial, sans-serif" font-size="12.8" font-weight="500" fill="#fafafa" xml:space="preserve">Voir la démo en V3</text><g id="Icon · arrow-right"><svg xmlns="http://www.w3.org/2000/svg" width="14" height="14" viewBox="0 0 24 24" fill="none" stroke="#fafafa" stroke-width="2" stroke-linecap="round" stroke-linejoin="round" x="1159" y="1327.44"><path d="M5 12h14"/><path d="m12 5 7 7-7 7"/></svg></g></g></g></g></g></g></g></g></g></g></g></svg>