<svg xmlns="http://www.w3.org/2000/svg" width="1024" height="768" viewBox="0 0 1024 768" fill="none"><defs><linearGradient id="v1--13-remplacements-reprogrammer-rdv-degrade-1" x1="0" y1="0" x2="0" y2="1"><stop offset="0" stop-color="#fef2f8" stop-opacity="0.702"/><stop offset="1" stop-color="#ffffff"/></linearGradient></defs><g id="V1 · 13 · Remplacements · Reprogrammer un RDV"><rect id="Fond de page" width="1024" height="768" fill="#ffffff"/><g id="Page"><rect x="0" y="0" width="1024" height="768" fill="#f8fafc" id="Fond"/><g id="Contenu"><rect x="0" y="0" width="1024" height="768" fill="#ffffff" id="Fond"/><g id="Header · oralys"><rect x="0" y="0" width="1024" height="67" fill="#ffffff" id="Fond"/><rect x="0" y="64" width="1024" height="3" fill="#fda5d5" id="Bordure basse"/><g id="Grille"><g id="Rangée · oralys"><g id="Rangée · oralys 2"><g id="Icon · logo"><svg viewBox="0 0 16 24" x="24" y="19.99" width="16" height="24"><circle cx="8" cy="6.5" r="5.5" fill="#0f172b"/><circle cx="8" cy="17.5" r="5.5" fill="#0f172b"/><rect x="5.5" y="9" width="5" height="6" fill="white" rx="2.5"/></svg></g><text x="46" y="40.7" font-family="Geist, Helvetica Neue, Arial, sans-serif" font-size="25.6" font-weight="600" letter-spacing="-0.64" fill="#0f172b" xml:space="preserve">oralys</text></g><g id="Menu déroulant · Team"><rect x="128.37" y="17" width="91.17" height="30" rx="15" fill="#fdf2f8" id="Fond"/><rect x="128.87" y="17.5" width="90.17" height="29" rx="14.5" fill="none" stroke="#fccee8" stroke-width="1" id="Bordure"/><g id="Bloc"><rect x="139.37" y="28" width="8" height="8" rx="4" fill="#fb64b6" id="Fond"/></g><text x="153.37" y="37" font-family="Geist, Helvetica Neue, Arial, sans-serif" font-size="14" font-weight="500" fill="#861043" xml:space="preserve">Team</text><g id="Icon · chevron-down"><svg xmlns="http://www.w3.org/2000/svg" width="14" height="14" viewBox="0 0 24 24" fill="none" stroke="#c6005c" stroke-width="2" stroke-linecap="round" stroke-linejoin="round" x="194.54" y="25"><path d="m6 9 6 6 6-6"/></svg></g></g><g id="Déclencheur · V1"><rect x="231.54" y="22.2" width="28.13" height="19.59" rx="9.8" fill="#0f172b" id="Fond"/><text x="239.54" y="35.45" font-family="Geist, Helvetica Neue, Arial, sans-serif" font-size="10.4" font-weight="600" letter-spacing="0.26" fill="#ffffff" xml:space="preserve">V1</text></g></g><g id="Button · Cabinet Oralpes"><text x="440.63" y="37.25" font-family="Geist, Helvetica Neue, Arial, sans-serif" font-size="16" font-weight="500" fill="#1d293d" xml:space="preserve">Cabinet Oralpes</text><g id="Icon · chevron-down"><svg xmlns="http://www.w3.org/2000/svg" width="16" height="16" viewBox="0 0 24 24" fill="none" stroke="#62748e" stroke-width="2" stroke-linecap="round" stroke-linejoin="round" x="567.37" y="24"><path d="m6 9 6 6 6-6"/></svg></g></g><g id="Actions · Changer d'utilisateur"><g id="Button · Changer d'utilisateur"><rect x="611.58" y="18" width="164.75" height="28" rx="8" fill="#ffffff" id="Fond"/><rect x="612.08" y="18.5" width="163.75" height="27" rx="7.5" fill="none" stroke="#e5e5e5" stroke-width="1" id="Bordure"/><g id="Icon · users"><svg xmlns="http://www.w3.org/2000/svg" width="14" height="14" viewBox="0 0 24 24" fill="none" stroke="#0f172b" stroke-width="2" stroke-linecap="round" stroke-linejoin="round" x="622.58" y="25"><path d="M16 21v-2a4 4 0 0 0-4-4H6a4 4 0 0 0-4 4v2"/><path d="M16 3.128a4 4 0 0 1 0 7.744"/><path d="M22 21v-2a4 4 0 0 0-3-3.87"/><circle cx="9" cy="7" r="4"/></svg></g><text x="640.58" y="36.4" font-family="Geist, Helvetica Neue, Arial, sans-serif" font-size="12.8" font-weight="500" fill="#0f172b" xml:space="preserve">Changer d'utilisateur</text></g><g id="Déclencheur · Notifications"><g id="Icon · bell"><svg xmlns="http://www.w3.org/2000/svg" width="16" height="16" viewBox="0 0 24 24" fill="none" stroke="#0f172b" stroke-width="2" stroke-linecap="round" stroke-linejoin="round" x="790.33" y="24"><path d="M10.268 21a2 2 0 0 0 3.464 0"/><path d="M3.262 15.326A1 1 0 0 0 4 17h16a1 1 0 0 0 .74-1.673C19.41 13.956 18 12.499 18 8A6 6 0 0 0 6 8c0 4.499-1.411 5.956-2.738 7.326"/></svg></g><g id="Rangée · 2"><rect x="799.33" y="15" width="16" height="16" rx="8" fill="#f6339a" id="Fond"/><text x="804.24" y="26.39" font-family="Geist, Helvetica Neue, Arial, sans-serif" font-size="9.6" font-weight="600" fill="#ffffff" xml:space="preserve">2</text></g></g><g id="Menu déroulant · Menu utilisateur"><g id="Initiales · DG"><rect x="822.33" y="14" width="36" height="36" rx="18" fill="#d0fae5" id="Fond"/><text x="831.84" y="35.75" font-family="Geist, Helvetica Neue, Arial, sans-serif" font-size="12" font-weight="500" fill="#006045" xml:space="preserve">DG</text></g><g id="Bloc · Delphine Girard"><text x="866.33" y="29" font-family="Geist, Helvetica Neue, Arial, sans-serif" font-size="14" font-weight="500" fill="#0f172b" xml:space="preserve">Delphine Girard</text><text x="866.33" y="45.75" font-family="Geist, Helvetica Neue, Arial, sans-serif" font-size="12" font-weight="400" fill="#62748e" xml:space="preserve">Gestionnaire</text></g><g id="Icon · chevron-down"><svg xmlns="http://www.w3.org/2000/svg" width="16" height="16" viewBox="0 0 24 24" fill="none" stroke="#62748e" stroke-width="2" stroke-linecap="round" stroke-linejoin="round" x="976" y="24"><path d="m6 9 6 6 6-6"/></svg></g></g></g></g></g><g id="Navigation · Tableau de bord"><rect x="0" y="67" width="1024" height="45" fill="url(#v1--13-remplacements-reprogrammer-rdv-degrade-1)" id="Fond"/><rect x="0" y="111" width="1024" height="1" fill="#e2e8f0" id="Bordure basse"/><g id="Liste · Tableau de bord"><text x="36" y="94" font-family="Geist, Helvetica Neue, Arial, sans-serif" font-size="14" font-weight="500" fill="#62748e" xml:space="preserve">Tableau de bord</text><text x="168.3" y="94" font-family="Geist, Helvetica Neue, Arial, sans-serif" font-size="14" font-weight="500" fill="#62748e" xml:space="preserve">Planning</text><g id="Lien · Remplacements"><text x="253.81" y="94" font-family="Geist, Helvetica Neue, Arial, sans-serif" font-size="14" font-weight="500" fill="#0f172b" xml:space="preserve">Remplacements</text><g id="Bloc 2"><rect x="253.81" y="110" width="106.15" height="2" rx="1" fill="#fb64b6" id="Fond"/></g></g><text x="387.96" y="94" font-family="Geist, Helvetica Neue, Arial, sans-serif" font-size="14" font-weight="500" fill="#62748e" xml:space="preserve">Praticiens &amp; équipes</text><text x="548.8" y="94" font-family="Geist, Helvetica Neue, Arial, sans-serif" font-size="14" font-weight="500" fill="#62748e" xml:space="preserve">Aperçu Soins</text><text x="663.45" y="94" font-family="Geist, Helvetica Neue, Arial, sans-serif" font-size="14" font-weight="500" fill="#62748e" xml:space="preserve">Administration</text></g></g><g id="Bloc · Remplacements 2"><g id="Rangée · Remplacements"><g id="Bloc · Remplacements 3"><text x="32" y="168.5" font-family="Geist, Helvetica Neue, Arial, sans-serif" font-size="24" font-weight="600" letter-spacing="-0.6" fill="#0f172b" xml:space="preserve">Remplacements</text><text x="32" y="195" font-family="Geist, Helvetica Neue, Arial, sans-serif" font-size="14" font-weight="400" fill="#62748e" xml:space="preserve">Quand un assistant attitré est absent, Oralys propose les remplaçants admissibles et les classe.</text></g><g id="Onglets · Brique 1 · Règles &amp; priorités"><rect x="795.33" y="144" width="196.67" height="32" rx="10" fill="#f5f5f5" id="Fond"/><g id="Onglet · Brique 1 · Règles &amp; priorités"><rect x="798.33" y="147.5" width="190.67" height="25" rx="8" fill="#ffffff" id="Fond"/><text x="805.33" y="165" font-family="Geist, Helvetica Neue, Arial, sans-serif" font-size="14" font-weight="500" fill="#0a0a0a" xml:space="preserve">Brique 1 · Règles &amp; priorités</text></g></g></g><g id="Rangée · Règles : on écarte les absents, les pers"><rect x="32" y="224" width="960" height="64" rx="10" fill="#f8fafc" id="Fond"/><g id="Icon · info"><svg xmlns="http://www.w3.org/2000/svg" width="16" height="16" viewBox="0 0 24 24" fill="none" stroke="#90a1b9" stroke-width="2" stroke-linecap="round" stroke-linejoin="round" x="48" y="238"><circle cx="12" cy="12" r="10"/><path d="M12 16v-4"/><path d="M12 8h.01"/></svg></g><g id="Paragraphe · Règles : on écarte les absents, les pers"><text x="72" y="251" font-family="Geist, Helvetica Neue, Arial, sans-serif" font-size="14" font-weight="500" fill="#1d293d" xml:space="preserve">Règles :</text><text x="128.16" y="251" font-family="Geist, Helvetica Neue, Arial, sans-serif" font-size="14" font-weight="400" fill="#45556c" xml:space="preserve">on écarte les absents, les personnes qui ne travaillent pas ce jour-là, sans l'habilitation requise ou déjà au fauteuil. Puis on classe par</text><text x="72" y="271" font-family="Geist, Helvetica Neue, Arial, sans-serif" font-size="14" font-weight="400" fill="#45556c" xml:space="preserve">priorité déclarée (titulaire, back-up n°1, n°2…) avant tout calcul.</text></g></g><g id="Grille 2"><g id="Bloc · Toutes les absences"><g id="Groupe de boutons · Toutes les absences"><g id="Toggle · Toutes les absences"><rect x="32" y="312" width="147.2" height="28" rx="8" fill="#f5f5f5" id="Fond"/><rect x="32.5" y="312.5" width="146.2" height="27" rx="7.5" fill="none" stroke="#e5e5e5" stroke-width="1" id="Bordure"/><text x="45" y="330.4" font-family="Geist, Helvetica Neue, Arial, sans-serif" font-size="12.8" font-weight="500" fill="#0f172b" xml:space="preserve">Toutes les absences</text></g><g id="Toggle · Thomas · sam. 26 sept."><rect x="187.7" y="312.5" width="178.75" height="27" rx="7.5" fill="none" stroke="#e5e5e5" stroke-width="1" id="Bordure"/><g id="Icon · siren"><svg xmlns="http://www.w3.org/2000/svg" width="14" height="14" viewBox="0 0 24 24" fill="none" stroke="#ff2056" stroke-width="2" stroke-linecap="round" stroke-linejoin="round" x="200.2" y="319"><path d="M7 18v-6a5 5 0 1 1 10 0v6"/><path d="M5 21a1 1 0 0 0 1 1h12a1 1 0 0 0 1-1v-1a2 2 0 0 0-2-2H7a2 2 0 0 0-2 2z"/><path d="M21 12h1"/><path d="M18.5 4.5 18 5"/><path d="M2 12h1"/><path d="M12 2v1"/><path d="m4.929 4.929.707.707"/><path d="M12 12v6"/></svg></g><text x="218.2" y="330.4" font-family="Geist, Helvetica Neue, Arial, sans-serif" font-size="12.8" font-weight="500" fill="#0f172b" xml:space="preserve">Thomas · sam. 26 sept.</text></g><g id="Toggle · Camille · lun. 5 oct."><rect x="32.5" y="348.5" width="137.27" height="27" rx="7.5" fill="none" stroke="#e5e5e5" stroke-width="1" id="Bordure"/><text x="45" y="366.4" font-family="Geist, Helvetica Neue, Arial, sans-serif" font-size="12.8" font-weight="500" fill="#0f172b" xml:space="preserve">Camille · lun. 5 oct.</text></g><g id="Toggle · Inès · mar. 29 sept."><rect x="178.77" y="348.5" width="136.29" height="27" rx="7.5" fill="none" stroke="#e5e5e5" stroke-width="1" id="Bordure"/><text x="191.27" y="366.4" font-family="Geist, Helvetica Neue, Arial, sans-serif" font-size="12.8" font-weight="500" fill="#0f172b" xml:space="preserve">Inès · mar. 29 sept.</text></g><g id="Toggle · Léa · lun. 5 oct."><rect x="32.5" y="384.5" width="113.84" height="27" rx="7.5" fill="none" stroke="#e5e5e5" stroke-width="1" id="Bordure"/><text x="45" y="402.4" font-family="Geist, Helvetica Neue, Arial, sans-serif" font-size="12.8" font-weight="500" fill="#0f172b" xml:space="preserve">Léa · lun. 5 oct.</text></g></g><g id="Card · RDV à réaffecter 16"><rect x="32" y="428" width="390" height="340" fill="#ffffff" id="Fond"/><rect x="31.5" y="427.5" width="391" height="341" rx="0.5" fill="none" stroke="#0a0a0a" stroke-opacity="0.102" stroke-width="1" id="Bordure"/><g id="Card header · RDV à réaffecter 16"><rect x="32" y="477" width="390" height="1" fill="#e5e5e5" id="Bordure basse"/><g id="Card title · RDV à réaffecter 16"><text x="48" y="455" font-family="Geist, Helvetica Neue, Arial, sans-serif" font-size="14" font-weight="500" fill="#0a0a0a" xml:space="preserve">RDV à réaffecter</text><g id="Badge · 16"><rect x="159.21" y="441" width="29.98" height="20" rx="10" fill="#f5f5f5" id="Fond"/><text x="168.21" y="454.75" font-family="Geist, Helvetica Neue, Arial, sans-serif" font-size="12" font-weight="500" fill="#171717" xml:space="preserve">16</text></g></g></g><g id="Liste · lun. 5 oct."><g id="Item · lun. 5 oct."><rect x="32" y="538" width="390" height="1" fill="#e5e5e5" id="Bordure basse"/><g id="Button · lun. 5 oct."><g id="Bloc · lun. 5 oct."><text x="48" y="503.75" font-family="Geist, Helvetica Neue, Arial, sans-serif" font-size="12" font-weight="500" fill="#1d293d" xml:space="preserve">lun. 5 oct.</text><text x="48" y="519.75" font-family="Geist, Helvetica Neue, Arial, sans-serif" font-size="12" font-weight="400" fill="#62748e" xml:space="preserve">09:00–10:00</text></g><g id="Bloc · Dr Flore Perche · Soins courants"><text x="140" y="505" font-family="Geist, Helvetica Neue, Arial, sans-serif" font-size="14" font-weight="500" fill="#0f172b" xml:space="preserve">Dr Flore Perche · Soins…</text><text x="140" y="521.75" font-family="Geist, Helvetica Neue, Arial, sans-serif" font-size="12" font-weight="400" fill="#62748e" xml:space="preserve">P. Lambert · Salle 1</text></g><g id="Badge · Léa absent(e)"><rect x="312.91" y="498.5" width="92.59" height="19" rx="9.5" fill="none" stroke="#ffccd3" stroke-width="1" id="Bordure"/><text x="321.41" y="511.75" font-family="Geist, Helvetica Neue, Arial, sans-serif" font-size="12" font-weight="500" fill="#c70036" xml:space="preserve">Léa absent(e)</text></g></g></g><g id="Item · lun. 5 oct. 2"><rect x="32" y="599" width="390" height="1" fill="#e5e5e5" id="Bordure basse"/><g id="Button · lun. 5 oct. 2"><g id="Bloc · lun. 5 oct. 3"><text x="48" y="564.75" font-family="Geist, Helvetica Neue, Arial, sans-serif" font-size="12" font-weight="500" fill="#1d293d" xml:space="preserve">lun. 5 oct.</text><text x="48" y="580.75" font-family="Geist, Helvetica Neue, Arial, sans-serif" font-size="12" font-weight="400" fill="#62748e" xml:space="preserve">09:00–10:00</text></g><g id="Bloc · Dr Paul Dray · Soins courants"><text x="140" y="566" font-family="Geist, Helvetica Neue, Arial, sans-serif" font-size="14" font-weight="500" fill="#0f172b" xml:space="preserve">Dr Paul Dray · Soins…</text><text x="140" y="582.75" font-family="Geist, Helvetica Neue, Arial, sans-serif" font-size="12" font-weight="400" fill="#62748e" xml:space="preserve">R. Guerin · Salle 3</text></g><g id="Badge · Camille absent(e)"><rect x="290.95" y="559.5" width="114.55" height="19" rx="9.5" fill="none" stroke="#ffccd3" stroke-width="1" id="Bordure"/><text x="299.45" y="572.75" font-family="Geist, Helvetica Neue, Arial, sans-serif" font-size="12" font-weight="500" fill="#c70036" xml:space="preserve">Camille absent(e)</text></g></g></g><g id="Item · lun. 5 oct. 3"><rect x="32" y="660" width="390" height="1" fill="#e5e5e5" id="Bordure basse"/><g id="Button · lun. 5 oct. 3"><g id="Bloc · lun. 5 oct. 5"><text x="48" y="625.75" font-family="Geist, Helvetica Neue, Arial, sans-serif" font-size="12" font-weight="500" fill="#1d293d" xml:space="preserve">lun. 5 oct.</text><text x="48" y="641.75" font-family="Geist, Helvetica Neue, Arial, sans-serif" font-size="12" font-weight="400" fill="#62748e" xml:space="preserve">10:30–11:30</text></g><g id="Bloc · Dr Flore Perche · Parodontie"><text x="140" y="627" font-family="Geist, Helvetica Neue, Arial, sans-serif" font-size="14" font-weight="500" fill="#0f172b" xml:space="preserve">Dr Flore Perche · Parod…</text><text x="140" y="643.75" font-family="Geist, Helvetica Neue, Arial, sans-serif" font-size="12" font-weight="400" fill="#62748e" xml:space="preserve">T. Muller · Salle 1</text></g><g id="Badge · Léa absent(e) 2"><rect x="312.91" y="620.5" width="92.59" height="19" rx="9.5" fill="none" stroke="#ffccd3" stroke-width="1" id="Bordure"/><text x="321.41" y="633.75" font-family="Geist, Helvetica Neue, Arial, sans-serif" font-size="12" font-weight="500" fill="#c70036" xml:space="preserve">Léa absent(e)</text></g></g></g><g id="Item · lun. 5 oct. 4"><rect x="32" y="721" width="390" height="1" fill="#e5e5e5" id="Bordure basse"/><g id="Button · lun. 5 oct. 4"><g id="Bloc · lun. 5 oct. 7"><text x="48" y="686.75" font-family="Geist, Helvetica Neue, Arial, sans-serif" font-size="12" font-weight="500" fill="#1d293d" xml:space="preserve">lun. 5 oct.</text><text x="48" y="702.75" font-family="Geist, Helvetica Neue, Arial, sans-serif" font-size="12" font-weight="400" fill="#62748e" xml:space="preserve">10:30–11:30</text></g><g id="Bloc · Dr Paul Dray · Pédodontie"><text x="140" y="688" font-family="Geist, Helvetica Neue, Arial, sans-serif" font-size="14" font-weight="500" fill="#0f172b" xml:space="preserve">Dr Paul Dray · Pédo…</text><text x="140" y="704.75" font-family="Geist, Helvetica Neue, Arial, sans-serif" font-size="12" font-weight="400" fill="#62748e" xml:space="preserve">J. Jackson · Salle 3</text></g><g id="Badge · Camille absent(e) 2"><rect x="290.95" y="681.5" width="114.55" height="19" rx="9.5" fill="none" stroke="#ffccd3" stroke-width="1" id="Bordure"/><text x="299.45" y="694.75" font-family="Geist, Helvetica Neue, Arial, sans-serif" font-size="12" font-weight="500" fill="#c70036" xml:space="preserve">Camille absent(e)</text></g></g></g><g id="Button · lun. 5 oct. 5"><g id="Bloc · lun. 5 oct. 9"><text x="48" y="747.75" font-family="Geist, Helvetica Neue, Arial, sans-serif" font-size="12" font-weight="500" fill="#1d293d" xml:space="preserve">lun. 5 oct.</text><text x="48" y="763.75" font-family="Geist, Helvetica Neue, Arial, sans-serif" font-size="12" font-weight="400" fill="#62748e" xml:space="preserve">14:00–15:00</text></g><g id="Bloc · Dr Flore Perche · Prothèse"><text x="140" y="749" font-family="Geist, Helvetica Neue, Arial, sans-serif" font-size="14" font-weight="500" fill="#0f172b" xml:space="preserve">Dr Flore Perche · Proth…</text><text x="140" y="765.75" font-family="Geist, Helvetica Neue, Arial, sans-serif" font-size="12" font-weight="400" fill="#62748e" xml:space="preserve">L. Roude · Salle 1</text></g><g id="Badge · Léa absent(e) 3"><rect x="312.91" y="742.5" width="92.59" height="19" rx="9.5" fill="none" stroke="#ffccd3" stroke-width="1" id="Bordure"/><text x="321.41" y="755.75" font-family="Geist, Helvetica Neue, Arial, sans-serif" font-size="12" font-weight="500" fill="#c70036" xml:space="preserve">Léa absent(e)</text></g></g></g></g></g><g id="Card · ven. 9 oct., 09:00 · Pédodontie"><rect x="446" y="312" width="546" height="280" rx="14" fill="#ffffff" id="Fond"/><rect x="445.5" y="311.5" width="547" height="281" rx="14.5" fill="none" stroke="#0a0a0a" stroke-opacity="0.102" stroke-width="1" id="Bordure"/><g id="Card header · ven. 9 oct., 09:00 · Pédodontie"><text x="462" y="345.25" font-family="Geist, Helvetica Neue, Arial, sans-serif" font-size="16" font-weight="500" fill="#0a0a0a" xml:space="preserve">ven. 9 oct., 09:00 · Pédodontie</text><g id="Card description · Dr Paul Dray · T. Muller · Salle 3 · ass"><text x="462" y="371" font-family="Geist, Helvetica Neue, Arial, sans-serif" font-size="14" font-weight="400" fill="#737373" xml:space="preserve">Dr Paul Dray</text><text x="545.04" y="371" font-family="Geist, Helvetica Neue, Arial, sans-serif" font-size="14" font-weight="400" fill="#737373" xml:space="preserve">· T. Muller · Salle 3 · assistant(e) prévu(e) :</text><text x="807.38" y="371" font-family="Geist, Helvetica Neue, Arial, sans-serif" font-size="14" font-weight="400" fill="#737373" xml:space="preserve">Camille Laurent</text><g id="Déclencheur · absent(e) · retirer l'absence ?"><rect x="470" y="378" width="170.67" height="18" rx="4" fill="#fff1f2" id="Fond"/><rect x="470.5" y="378.5" width="169.67" height="17" rx="3.5" fill="none" stroke="#ffccd3" stroke-width="1" id="Bordure"/><text x="477" y="390.75" font-family="Geist, Helvetica Neue, Arial, sans-serif" font-size="12" font-weight="400" fill="#c70036" xml:space="preserve">absent(e) · retirer l'absence ?</text></g><text x="462" y="410.75" font-family="Geist, Helvetica Neue, Arial, sans-serif" font-size="12" font-weight="400" fill="#c6005c" xml:space="preserve">Voir cette journée dans le planning →</text></g></g><g id="Bloc · Aucun assistant admissible sur ce crénea"><g id="Pile · Aucun assistant admissible sur ce crénea"><rect x="462.5" y="432.5" width="513" height="97" rx="9.5" fill="none" stroke="#e5e5e5" stroke-width="1" stroke-dasharray="4 3" id="Bordure"/><text x="581.44" y="464" font-family="Geist, Helvetica Neue, Arial, sans-serif" font-size="14" font-weight="400" fill="#62748e" xml:space="preserve">Aucun assistant admissible sur ce créneau.</text><g id="Actions · Reprogrammer le RDV"><g id="Button · Reprogrammer le RDV"><rect x="518.38" y="481" width="189" height="32" rx="10" fill="#171717" id="Fond"/><g id="Icon · calendar-clock"><svg xmlns="http://www.w3.org/2000/svg" width="16" height="16" viewBox="0 0 24 24" fill="none" stroke="#fafafa" stroke-width="2" stroke-linecap="round" stroke-linejoin="round" x="529.38" y="489"><path d="M16 14v2.2l1.6 1"/><path d="M16 2v3"/><path d="M21 7.338V5a2 2 0 00-2-2H5a2 2 0 00-2 2v14a2 2 0 002 2h2.338"/><path d="M3 9h5.859"/><path d="M8 2v3"/><circle cx="16" cy="16" r="6"/></svg></g><text x="551.38" y="502" font-family="Geist, Helvetica Neue, Arial, sans-serif" font-size="14" font-weight="500" fill="#fafafa" xml:space="preserve">Reprogrammer le RDV</text></g><g id="Button · Maintenir sans assistant"><rect x="715.38" y="481" width="204.24" height="32" rx="10" fill="#ffffff" id="Fond"/><rect x="715.88" y="481.5" width="203.24" height="31" rx="9.5" fill="none" stroke="#e5e5e5" stroke-width="1" id="Bordure"/><g id="Icon · circle-check"><svg xmlns="http://www.w3.org/2000/svg" width="16" height="16" viewBox="0 0 24 24" fill="none" stroke="#62748e" stroke-width="2" stroke-linecap="round" stroke-linejoin="round" x="726.38" y="489"><circle cx="12" cy="12" r="10"/><path d="m16 9-5.5 5.5L8 12"/></svg></g><text x="748.38" y="502" font-family="Geist, Helvetica Neue, Arial, sans-serif" font-size="14" font-weight="500" fill="#62748e" xml:space="preserve">Maintenir sans assistant</text></g></g></g><g id="Section repliable · 4 personne(s) écartée(s) par les règles"><rect x="462.5" y="538.5" width="513" height="37" rx="9.5" fill="none" stroke="#e5e5e5" stroke-width="1" stroke-dasharray="4 3" id="Bordure"/><text x="487.03" y="562" font-family="Geist, Helvetica Neue, Arial, sans-serif" font-size="14" font-weight="400" fill="#62748e" xml:space="preserve">4 personne(s) écartée(s) par les règles</text><g id="Item"><g id="Icon · ban"><svg xmlns="http://www.w3.org/2000/svg" width="14" height="14" viewBox="0 0 24 24" fill="none" stroke="#90a1b9" stroke-width="2" stroke-linecap="round" stroke-linejoin="round" x="475" y="577"><circle cx="12" cy="12" r="10"/><path d="M4.929 4.929 19.07 19.071"/></svg></g><g id="Bloc 4"><text x="497" y="590" font-family="Geist, Helvetica Neue, Arial, sans-serif" font-size="14" font-weight="500" fill="#314158" xml:space="preserve">Camille Laurent</text><text x="603.69" y="590" font-family="Geist, Helvetica Neue, Arial, sans-serif" font-size="14" font-weight="400" fill="#62748e" xml:space="preserve">: Absent(e) : congé</text></g></g></g></g></g></g></g></g><g id="Voile"><rect x="0" y="0" width="1024" height="768" fill="#000000" fill-opacity="0.102" id="Fond"/></g><g id="Modale · Reprogrammer le RDV"><rect x="256" y="97.5" width="512" height="573" rx="14" fill="#ffffff" id="Fond"/><rect x="255.5" y="97" width="513" height="574" rx="14.5" fill="none" stroke="#0a0a0a" stroke-opacity="0.102" stroke-width="1" id="Bordure"/><g id="En-tête de modale · Reprogrammer le RDV"><g id="Titre de modale · Reprogrammer le RDV"><g id="Icon · calendar-clock"><svg xmlns="http://www.w3.org/2000/svg" width="20" height="20" viewBox="0 0 24 24" fill="none" stroke="#e60076" stroke-width="2" stroke-linecap="round" stroke-linejoin="round" x="272" y="113.5"><path d="M16 14v2.2l1.6 1"/><path d="M16 2v3"/><path d="M21 7.338V5a2 2 0 00-2-2H5a2 2 0 00-2 2v14a2 2 0 002 2h2.338"/><path d="M3 9h5.859"/><path d="M8 2v3"/><circle cx="16" cy="16" r="6"/></svg></g><text x="300" y="128.75" font-family="Geist, Helvetica Neue, Arial, sans-serif" font-size="16" font-weight="500" fill="#0a0a0a" xml:space="preserve">Reprogrammer le RDV</text></g><text x="272" y="156.5" font-family="Geist, Helvetica Neue, Arial, sans-serif" font-size="14" font-weight="400" fill="#737373" xml:space="preserve">T. Muller · Pédodontie avec Dr Paul Dray, prévu le ven. 9 oct. à 09:00.</text></g><g id="Liste · Ven. 9 Oct."><g id="Item · Ven. 9 Oct."><rect x="272.5" y="178" width="479" height="61" rx="9.5" fill="none" stroke="#e5e5e5" stroke-width="1" id="Bordure"/><g id="Bloc · Ven. 9 Oct."><text x="285" y="205.5" font-family="Geist, Helvetica Neue, Arial, sans-serif" font-size="14" font-weight="500" fill="#0f172b" xml:space="preserve">Ven. 9 Oct.</text><text x="285" y="222.25" font-family="Geist, Helvetica Neue, Arial, sans-serif" font-size="12" font-weight="400" fill="#62748e" xml:space="preserve">15:30–16:30</text></g><g id="Rangée · Inès Moreau"><g id="Initiales · IM"><rect x="409" y="196.5" width="24" height="24" rx="12" fill="#ffedd4" id="Fond"/><text x="414.09" y="212.25" font-family="Geist, Helvetica Neue, Arial, sans-serif" font-size="12" font-weight="500" fill="#9f2d00" xml:space="preserve">IM</text></g><text x="441" y="213.5" font-family="Geist, Helvetica Neue, Arial, sans-serif" font-size="14" font-weight="400" fill="#0a0a0a" xml:space="preserve">Inès Moreau</text><g id="Badge · 19/100"><rect x="528.13" y="199" width="55.83" height="19" rx="9.5" fill="none" stroke="#e5e5e5" stroke-width="1" id="Bordure"/><text x="536.63" y="212.25" font-family="Geist, Helvetica Neue, Arial, sans-serif" font-size="12" font-weight="500" fill="#0a0a0a" xml:space="preserve">19/100</text></g></g><g id="Button · Choisir"><rect x="674.79" y="194.5" width="64.21" height="28" rx="8" fill="#171717" id="Fond"/><text x="685.79" y="212.86" font-family="Geist, Helvetica Neue, Arial, sans-serif" font-size="12.8" font-weight="500" fill="#fafafa" xml:space="preserve">Choisir</text></g></g><g id="Item · Ven. 9 Oct. 2"><rect x="272.5" y="248" width="479" height="61" rx="9.5" fill="none" stroke="#e5e5e5" stroke-width="1" id="Bordure"/><g id="Bloc · Ven. 9 Oct. 3"><text x="285" y="275.5" font-family="Geist, Helvetica Neue, Arial, sans-serif" font-size="14" font-weight="500" fill="#0f172b" xml:space="preserve">Ven. 9 Oct.</text><text x="285" y="292.25" font-family="Geist, Helvetica Neue, Arial, sans-serif" font-size="12" font-weight="400" fill="#62748e" xml:space="preserve">17:00–18:00</text></g><g id="Rangée · Inès Moreau 2"><g id="Initiales · IM 2"><rect x="409" y="266.5" width="24" height="24" rx="12" fill="#ffedd4" id="Fond"/><text x="414.09" y="282.25" font-family="Geist, Helvetica Neue, Arial, sans-serif" font-size="12" font-weight="500" fill="#9f2d00" xml:space="preserve">IM</text></g><text x="441" y="283.5" font-family="Geist, Helvetica Neue, Arial, sans-serif" font-size="14" font-weight="400" fill="#0a0a0a" xml:space="preserve">Inès Moreau</text><g id="Badge · 19/100 2"><rect x="528.13" y="269" width="55.83" height="19" rx="9.5" fill="none" stroke="#e5e5e5" stroke-width="1" id="Bordure"/><text x="536.63" y="282.25" font-family="Geist, Helvetica Neue, Arial, sans-serif" font-size="12" font-weight="500" fill="#0a0a0a" xml:space="preserve">19/100</text></g></g><g id="Button · Choisir 2"><rect x="674.79" y="264.5" width="64.21" height="28" rx="8" fill="#171717" id="Fond"/><text x="685.79" y="282.86" font-family="Geist, Helvetica Neue, Arial, sans-serif" font-size="12.8" font-weight="500" fill="#fafafa" xml:space="preserve">Choisir</text></g></g><g id="Item · Lun. 12 Oct."><rect x="272.5" y="318" width="479" height="61" rx="9.5" fill="none" stroke="#e5e5e5" stroke-width="1" id="Bordure"/><g id="Bloc · Lun. 12 Oct."><text x="285" y="345.5" font-family="Geist, Helvetica Neue, Arial, sans-serif" font-size="14" font-weight="500" fill="#0f172b" xml:space="preserve">Lun. 12 Oct.</text><text x="285" y="362.25" font-family="Geist, Helvetica Neue, Arial, sans-serif" font-size="12" font-weight="400" fill="#62748e" xml:space="preserve">15:30–16:30</text></g><g id="Rangée · Camille Laurent"><g id="Initiales · CL"><rect x="409" y="336.5" width="24" height="24" rx="12" fill="#ffedd4" id="Fond"/><text x="413.27" y="352.25" font-family="Geist, Helvetica Neue, Arial, sans-serif" font-size="12" font-weight="500" fill="#9f2d00" xml:space="preserve">CL</text></g><text x="441" y="353.5" font-family="Geist, Helvetica Neue, Arial, sans-serif" font-size="14" font-weight="400" fill="#0a0a0a" xml:space="preserve">Camille Laurent</text><g id="Badge · 90/100"><rect x="550.29" y="339" width="59.16" height="19" rx="9.5" fill="none" stroke="#e5e5e5" stroke-width="1" id="Bordure"/><text x="558.79" y="352.25" font-family="Geist, Helvetica Neue, Arial, sans-serif" font-size="12" font-weight="500" fill="#0a0a0a" xml:space="preserve">90/100</text></g></g><g id="Button · Choisir 3"><rect x="674.79" y="334.5" width="64.21" height="28" rx="8" fill="#171717" id="Fond"/><text x="685.79" y="352.86" font-family="Geist, Helvetica Neue, Arial, sans-serif" font-size="12.8" font-weight="500" fill="#fafafa" xml:space="preserve">Choisir</text></g></g><g id="Item · Lun. 12 Oct. 2"><rect x="272.5" y="388" width="479" height="61" rx="9.5" fill="none" stroke="#e5e5e5" stroke-width="1" id="Bordure"/><g id="Bloc · Lun. 12 Oct. 3"><text x="285" y="415.5" font-family="Geist, Helvetica Neue, Arial, sans-serif" font-size="14" font-weight="500" fill="#0f172b" xml:space="preserve">Lun. 12 Oct.</text><text x="285" y="432.25" font-family="Geist, Helvetica Neue, Arial, sans-serif" font-size="12" font-weight="400" fill="#62748e" xml:space="preserve">17:00–18:00</text></g><g id="Rangée · Camille Laurent 2"><g id="Initiales · CL 2"><rect x="409" y="406.5" width="24" height="24" rx="12" fill="#ffedd4" id="Fond"/><text x="413.27" y="422.25" font-family="Geist, Helvetica Neue, Arial, sans-serif" font-size="12" font-weight="500" fill="#9f2d00" xml:space="preserve">CL</text></g><text x="441" y="423.5" font-family="Geist, Helvetica Neue, Arial, sans-serif" font-size="14" font-weight="400" fill="#0a0a0a" xml:space="preserve">Camille Laurent</text><g id="Badge · 90/100 2"><rect x="550.29" y="409" width="59.16" height="19" rx="9.5" fill="none" stroke="#e5e5e5" stroke-width="1" id="Bordure"/><text x="558.79" y="422.25" font-family="Geist, Helvetica Neue, Arial, sans-serif" font-size="12" font-weight="500" fill="#0a0a0a" xml:space="preserve">90/100</text></g></g><g id="Button · Choisir 4"><rect x="674.79" y="404.5" width="64.21" height="28" rx="8" fill="#171717" id="Fond"/><text x="685.79" y="422.86" font-family="Geist, Helvetica Neue, Arial, sans-serif" font-size="12.8" font-weight="500" fill="#fafafa" xml:space="preserve">Choisir</text></g></g><g id="Item · Mar. 13 Oct."><rect x="272.5" y="458" width="479" height="61" rx="9.5" fill="none" stroke="#e5e5e5" stroke-width="1" id="Bordure"/><g id="Bloc · Mar. 13 Oct."><text x="285" y="485.5" font-family="Geist, Helvetica Neue, Arial, sans-serif" font-size="14" font-weight="500" fill="#0f172b" xml:space="preserve">Mar. 13 Oct.</text><text x="285" y="502.25" font-family="Geist, Helvetica Neue, Arial, sans-serif" font-size="12" font-weight="400" fill="#62748e" xml:space="preserve">17:00–18:00</text></g><g id="Rangée · Camille Laurent 3"><g id="Initiales · CL 3"><rect x="409" y="476.5" width="24" height="24" rx="12" fill="#ffedd4" id="Fond"/><text x="413.27" y="492.25" font-family="Geist, Helvetica Neue, Arial, sans-serif" font-size="12" font-weight="500" fill="#9f2d00" xml:space="preserve">CL</text></g><text x="441" y="493.5" font-family="Geist, Helvetica Neue, Arial, sans-serif" font-size="14" font-weight="400" fill="#0a0a0a" xml:space="preserve">Camille Laurent</text><g id="Badge · 90/100 3"><rect x="550.29" y="479" width="59.16" height="19" rx="9.5" fill="none" stroke="#e5e5e5" stroke-width="1" id="Bordure"/><text x="558.79" y="492.25" font-family="Geist, Helvetica Neue, Arial, sans-serif" font-size="12" font-weight="500" fill="#0a0a0a" xml:space="preserve">90/100</text></g></g><g id="Button · Choisir 5"><rect x="674.79" y="474.5" width="64.21" height="28" rx="8" fill="#171717" id="Fond"/><text x="685.79" y="492.86" font-family="Geist, Helvetica Neue, Arial, sans-serif" font-size="12.8" font-weight="500" fill="#fafafa" xml:space="preserve">Choisir</text></g></g><g id="Item · Jeu. 15 Oct."><rect x="272.5" y="528" width="479" height="61" rx="9.5" fill="none" stroke="#e5e5e5" stroke-width="1" id="Bordure"/><g id="Bloc · Jeu. 15 Oct."><text x="285" y="555.5" font-family="Geist, Helvetica Neue, Arial, sans-serif" font-size="14" font-weight="500" fill="#0f172b" xml:space="preserve">Jeu. 15 Oct.</text><text x="285" y="572.25" font-family="Geist, Helvetica Neue, Arial, sans-serif" font-size="12" font-weight="400" fill="#62748e" xml:space="preserve">15:30–16:30</text></g><g id="Rangée · Camille Laurent 4"><g id="Initiales · CL 4"><rect x="409" y="546.5" width="24" height="24" rx="12" fill="#ffedd4" id="Fond"/><text x="413.27" y="562.25" font-family="Geist, Helvetica Neue, Arial, sans-serif" font-size="12" font-weight="500" fill="#9f2d00" xml:space="preserve">CL</text></g><text x="441" y="563.5" font-family="Geist, Helvetica Neue, Arial, sans-serif" font-size="14" font-weight="400" fill="#0a0a0a" xml:space="preserve">Camille Laurent</text><g id="Badge · 90/100 4"><rect x="550.29" y="549" width="59.16" height="19" rx="9.5" fill="none" stroke="#e5e5e5" stroke-width="1" id="Bordure"/><text x="558.79" y="562.25" font-family="Geist, Helvetica Neue, Arial, sans-serif" font-size="12" font-weight="500" fill="#0a0a0a" xml:space="preserve">90/100</text></g></g><g id="Button · Choisir 6"><rect x="674.79" y="544.5" width="64.21" height="28" rx="8" fill="#171717" id="Fond"/><text x="685.79" y="562.86" font-family="Geist, Helvetica Neue, Arial, sans-serif" font-size="12.8" font-weight="500" fill="#fafafa" xml:space="preserve">Choisir</text></g></g></g><g id="Pied de modale · Annuler le RDV"><path d="M256,605.5H768V656.5A14,14 0 0 1 754,670.5H270A14,14 0 0 1 256,656.5V605.5Z" fill="#f5f5f5" fill-opacity="0.502" id="Fond"/><rect x="256" y="605.5" width="512" height="1" fill="#e5e5e5" id="Bordure haute"/><g id="Button · Annuler le RDV"><g id="Icon · calendar-x"><svg xmlns="http://www.w3.org/2000/svg" width="16" height="16" viewBox="0 0 24 24" fill="none" stroke="#e7000b" stroke-width="2" stroke-linecap="round" stroke-linejoin="round" x="283" y="630.5"><path d="M8 2v3"/><path d="M16 2v3"/><rect x="3" y="3" width="18" height="18" rx="2"/><path d="M3 9h18"/><path d="m14 13-4 4"/><path d="m10 13 4 4"/></svg></g><text x="305" y="643.5" font-family="Geist, Helvetica Neue, Arial, sans-serif" font-size="14" font-weight="500" fill="#e7000b" xml:space="preserve">Annuler le RDV</text></g><g id="Button · Fermer"><rect x="683.48" y="622.5" width="68.52" height="32" rx="10" fill="#ffffff" id="Fond"/><rect x="683.98" y="623" width="67.52" height="31" rx="9.5" fill="none" stroke="#e5e5e5" stroke-width="1" id="Bordure"/><text x="694.48" y="643.5" font-family="Geist, Helvetica Neue, Arial, sans-serif" font-size="14" font-weight="500" fill="#0a0a0a" xml:space="preserve">Fermer</text></g></g><g id="Icon · x"><svg xmlns="http://www.w3.org/2000/svg" width="16" height="16" viewBox="0 0 24 24" fill="none" stroke="#0a0a0a" stroke-width="2" stroke-linecap="round" stroke-linejoin="round" x="738" y="111.5"><path d="M18 6 6 18"/><path d="m6 6 12 12"/></svg></g></g></g></g></svg>